<?xml version="1.0" encoding="utf-8"?>
<!-- Generator: Adobe Illustrator 13.0.0, SVG Export Plug-In . SVG Version: 6.00 Build 14948)  -->
<!DOCTYPE svg PUBLIC "-//W3C//DTD SVG 1.1//EN" "http://www.w3.org/Graphics/SVG/1.1/DTD/svg11.dtd">
<svg version="1.1" id="Layer_1" xmlns="http://www.w3.org/2000/svg" xmlns:xlink="http://www.w3.org/1999/xlink" x="0px" y="0px"
	 width="48px" height="48px" viewBox="0 0 48 48" style="enable-background:new 0 0 48 48;" xml:space="preserve">
<style type="text/css">
<![CDATA[
	.st0{fill:#FFFFFF;}
]]>
</style>
<path class="st0" d="M13.8,42.45c-0.367-0.4-0.558-0.866-0.575-1.4c-0.017-0.533,0.175-1,0.575-1.399L29.55,23.9L13.8,8.15
	c-0.367-0.367-0.558-0.825-0.575-1.375C13.208,6.225,13.4,5.75,13.8,5.35c0.367-0.4,0.825-0.608,1.375-0.625
	C15.725,4.708,16.2,4.9,16.6,5.3l17.55,17.55c0.166,0.167,0.283,0.333,0.35,0.5s0.1,0.35,0.1,0.55c0,0.2-0.033,0.383-0.1,0.55
	s-0.184,0.333-0.35,0.5L16.6,42.5c-0.367,0.367-0.825,0.55-1.375,0.55C14.675,43.05,14.2,42.85,13.8,42.45z"/>
</svg>
