<?xml version="1.0" encoding="utf-8"?>
<!-- Generator: Adobe Illustrator 13.0.0, SVG Export Plug-In . SVG Version: 6.00 Build 14948)  -->
<!DOCTYPE svg PUBLIC "-//W3C//DTD SVG 1.1//EN" "http://www.w3.org/Graphics/SVG/1.1/DTD/svg11.dtd">
<svg version="1.1" id="Layer_1" xmlns="http://www.w3.org/2000/svg" xmlns:xlink="http://www.w3.org/1999/xlink" x="0px" y="0px"
	 width="48px" height="48px" viewBox="0 0 48 48" style="enable-background:new 0 0 48 48;" xml:space="preserve">
<style type="text/css">
<![CDATA[
	.st0{fill:#1E66B0;}
]]>
</style>
<path class="st0" d="M19.55,32.5c-0.3-0.3-0.45-0.675-0.45-1.125s0.15-0.825,0.45-1.125l4.75-4.75H7.5
	c-0.433,0-0.792-0.142-1.075-0.425C6.142,24.791,6,24.434,6,24s0.142-0.792,0.425-1.075C6.708,22.642,7.067,22.5,7.5,22.5h16.8
	l-4.8-4.8c-0.3-0.3-0.45-0.659-0.45-1.075s0.167-0.792,0.5-1.125c0.3-0.3,0.675-0.45,1.125-0.45c0.45,0,0.825,0.15,1.125,0.45
	l7.45,7.45c0.166,0.167,0.283,0.333,0.35,0.5C29.666,23.617,29.7,23.8,29.7,24s-0.034,0.383-0.101,0.55
	c-0.066,0.167-0.184,0.333-0.35,0.5l-7.5,7.5C21.483,32.85,21.133,33,20.7,33C20.267,33,19.883,32.834,19.55,32.5z M9,42
	c-0.8,0-1.5-0.3-2.1-0.9C6.3,40.5,6,39.8,6,39v-9c0-0.434,0.142-0.791,0.425-1.075C6.708,28.642,7.067,28.5,7.5,28.5
	s0.792,0.142,1.075,0.425C8.858,29.209,9,29.566,9,30v9h30V8.9H9V18c0,0.434-0.142,0.792-0.425,1.075
	C8.292,19.358,7.933,19.5,7.5,19.5s-0.792-0.142-1.075-0.425C6.142,18.792,6,18.434,6,18V8.9c0-0.8,0.3-1.5,0.9-2.1
	C7.5,6.2,8.2,5.9,9,5.9h30c0.8,0,1.5,0.3,2.1,0.9C41.7,7.4,42,8.1,42,8.9V39c0,0.8-0.3,1.5-0.9,2.1C40.5,41.7,39.8,42,39,42H9z"/>
</svg>
