<?xml version="1.0" encoding="utf-8"?>
<!-- Generator: Adobe Illustrator 13.0.0, SVG Export Plug-In . SVG Version: 6.00 Build 14948)  -->
<!DOCTYPE svg PUBLIC "-//W3C//DTD SVG 1.1//EN" "http://www.w3.org/Graphics/SVG/1.1/DTD/svg11.dtd">
<svg version="1.1" id="Layer_1" xmlns="http://www.w3.org/2000/svg" xmlns:xlink="http://www.w3.org/1999/xlink" x="0px" y="0px"
	 width="48px" height="48px" viewBox="0 0 48 48" style="enable-background:new 0 0 48 48;" xml:space="preserve">
<style type="text/css">
<![CDATA[
	.st0{fill:#1E66B0;}
]]>
</style>
<path class="st0" d="M18.75,29.15H35.3c0.3,0,0.525-0.134,0.675-0.4c0.15-0.267,0.125-0.533-0.074-0.8L31.05,21.4
	c-0.167-0.2-0.366-0.3-0.6-0.3s-0.434,0.1-0.601,0.3l-4.55,5.95l-2.8-3.6c-0.167-0.2-0.367-0.292-0.6-0.275S21.467,23.6,21.3,23.8
	l-3.15,4.15c-0.2,0.267-0.233,0.533-0.1,0.8S18.417,29.15,18.75,29.15z M13,38c-0.8,0-1.5-0.3-2.1-0.9C10.3,36.5,10,35.8,10,35V7
	c0-0.8,0.3-1.5,0.9-2.1S12.2,4,13,4h28c0.8,0,1.5,0.3,2.1,0.9C43.7,5.5,44,6.2,44,7v28c0,0.8-0.3,1.5-0.9,2.1
	C42.5,37.7,41.8,38,41,38H13z M13,35h28V7H13V35z M7,44c-0.8,0-1.5-0.3-2.1-0.9C4.3,42.5,4,41.8,4,41V11.5
	c0-0.434,0.142-0.792,0.425-1.075C4.708,10.142,5.067,10,5.5,10s0.792,0.142,1.075,0.425C6.858,10.708,7,11.066,7,11.5V41h29.5
	c0.434,0,0.791,0.142,1.075,0.425C37.858,41.709,38,42.066,38,42.5s-0.142,0.791-0.425,1.075C37.291,43.858,36.934,44,36.5,44H7z
	 M13,7v28V7z"/>
</svg>
