<?xml version="1.0" encoding="utf-8"?>
<!-- Generator: Adobe Illustrator 13.0.0, SVG Export Plug-In . SVG Version: 6.00 Build 14948)  -->
<!DOCTYPE svg PUBLIC "-//W3C//DTD SVG 1.1//EN" "http://www.w3.org/Graphics/SVG/1.1/DTD/svg11.dtd">
<svg version="1.1" id="Layer_1" xmlns="http://www.w3.org/2000/svg" xmlns:xlink="http://www.w3.org/1999/xlink" x="0px" y="0px"
	 width="48px" height="48px" viewBox="0 0 48 48" style="enable-background:new 0 0 48 48;" xml:space="preserve">
<style type="text/css">
<![CDATA[
	.st0{fill:#1E66B0;stroke:#1E66B0;}
]]>
</style>
<path class="st0" d="M23.7,23.7c0.866-1.067,1.509-2.167,1.925-3.3c0.416-1.133,0.625-2.45,0.625-3.95s-0.209-2.817-0.625-3.95
	s-1.059-2.233-1.925-3.3c2.532-0.567,4.759-0.184,6.675,1.15s2.875,3.367,2.875,6.1c0,2.733-0.959,4.767-2.875,6.1
	S26.232,24.267,23.7,23.7z M33.4,40c0.332-0.066,0.6-0.242,0.8-0.525s0.3-0.641,0.3-1.074V35.3c0-1.7-0.434-3.282-1.3-4.75
	c-0.866-1.466-2.366-2.7-4.5-3.7c5.767,0.734,9.708,1.801,11.825,3.2c2.115,1.4,3.175,3.15,3.175,5.25v3.2
	c0,0.434-0.142,0.791-0.425,1.075C42.992,39.857,42.633,40,42.2,40H33.4z M41.5,25.55c-0.434,0-0.791-0.142-1.075-0.425
	C40.143,24.842,40,24.483,40,24.05v-3.5h-3.5c-0.434,0-0.791-0.142-1.075-0.425C35.143,19.842,35,19.483,35,19.05
	c0-0.433,0.143-0.792,0.425-1.075c0.284-0.284,0.642-0.425,1.075-0.425H40v-3.5c0-0.433,0.143-0.792,0.425-1.075
	c0.284-0.284,0.642-0.425,1.075-0.425s0.791,0.142,1.075,0.425C42.857,13.258,43,13.617,43,14.05v3.5h3.5
	c0.434,0,0.791,0.142,1.075,0.425C47.857,18.258,48,18.617,48,19.05c0,0.434-0.143,0.792-0.425,1.075
	c-0.284,0.283-0.642,0.425-1.075,0.425H43v3.5c0,0.434-0.143,0.792-0.425,1.075C42.291,25.408,41.934,25.55,41.5,25.55z
	 M15.75,23.95c-2.2,0-4-0.7-5.4-2.1s-2.1-3.2-2.1-5.4c0-2.2,0.7-4,2.1-5.4c1.4-1.4,3.2-2.1,5.4-2.1s4,0.7,5.4,2.1
	c1.4,1.4,2.1,3.2,2.1,5.4c0,2.2-0.7,4-2.1,5.4S17.95,23.95,15.75,23.95z M1.5,40c-0.433,0-0.792-0.143-1.075-0.425
	C0.142,39.291,0,38.934,0,38.5v-3.2c0-1.167,0.308-2.225,0.925-3.175C1.542,31.175,2.367,30.467,3.4,30
	c2.4-1.066,4.542-1.834,6.425-2.3c1.883-0.468,3.858-0.7,5.925-0.7s4.033,0.232,5.9,0.7c1.867,0.466,4,1.233,6.4,2.3
	c1.034,0.467,1.866,1.175,2.5,2.125s0.95,2.008,0.95,3.175v3.2c0,0.434-0.143,0.791-0.425,1.075C30.791,39.857,30.434,40,30,40H1.5z
	 M15.75,20.95c1.3,0,2.375-0.425,3.225-1.275c0.85-0.85,1.275-1.925,1.275-3.225c0-1.3-0.425-2.375-1.275-3.225
	S17.05,11.95,15.75,11.95s-2.375,0.425-3.225,1.275S11.25,15.15,11.25,16.45c0,1.3,0.425,2.375,1.275,3.225
	C13.375,20.525,14.45,20.95,15.75,20.95z M3,37h25.5v-1.7c0-0.532-0.133-1.032-0.4-1.5c-0.266-0.466-0.684-0.833-1.25-1.1
	c-2.3-1.067-4.25-1.784-5.85-2.15S17.65,30,15.75,30s-3.642,0.184-5.225,0.55S6.967,31.633,4.6,32.7
	c-0.5,0.233-0.892,0.591-1.175,1.075C3.142,34.258,3,34.768,3,35.3V37z"/>
</svg>
