<?xml version="1.0" encoding="UTF-8"?>
<!DOCTYPE svg PUBLIC "-//W3C//DTD SVG 1.1//EN" "http://www.w3.org/Graphics/SVG/1.1/DTD/svg11.dtd">
<!-- Creator: CorelDRAW -->
<svg xmlns="http://www.w3.org/2000/svg" xml:space="preserve" width="829px" height="56px" style="shape-rendering:geometricPrecision; text-rendering:geometricPrecision; image-rendering:optimizeQuality; fill-rule:evenodd; clip-rule:evenodd"
viewBox="0 0 829 56.3059">
 <defs>
  <style type="text/css">
   <![CDATA[
    .str0 {stroke:#1F66B0;stroke-width:2.36182}
    .fil3 {fill:none;fill-rule:nonzero}
    .fil0 {fill:black}
    .fil1 {fill:white}
    .fil2 {fill:#1F66B0;fill-rule:nonzero}
    .fil4 {fill:#6699FF;fill-rule:nonzero}
   ]]>
  </style>
 </defs>
 <g id="Layer_x0020_1">
  <metadata id="CorelCorpID_0Corel-Layer"/>
  <rect class="fil0" x="-0.00118429" y="0.00224312" width="829.002" height="56.3015"/>
  <g id="_326292104">
   <path id="_326292272" class="fil1" d="M274.954 12.0311c-2.04534,0.0366083 -3.72696,-1.62966 -3.68563,-3.77301 -0.0413319,-2.14335 1.64147,-3.77301 3.68563,-3.74821 2.03235,-0.0247991 3.7246,1.60486 3.69035,3.74821 0.0342464,2.14335 -1.658,3.80962 -3.69035,3.77301m0 -7.04296c-1.79971,0 -3.16957,1.35923 -3.16957,3.26994 -0.0354274,1.91308 1.39111,3.33253 3.16957,3.29592 1.79144,0 3.1554,-1.36041 3.1554,-3.29592 0,-1.9119 -1.36395,-3.26994 -3.1554,-3.26994m1.68988 5.45109l-0.66013 0 -0.859704 -1.71586 -0.883322 0 0 1.71586 -0.603446 0 0 -4.3245 1.68162 0c0.878598,0 1.41709,0.490078 1.41709,1.28719 0,0.68611 -0.376711,1.1384 -1.00496,1.27302l0.912845 1.76428zm-1.3982 -3.786l-0.981338 0 0 1.54463 0.981338 0c0.568019,0 0.882141,-0.294047 0.882141,-0.795934 0,-0.503068 -0.289323,-0.748698 -0.882141,-0.748698z"/>
   <g>
    <path id="_326292344" class="fil1" d="M151.163 13.6738l18.3006 0 0 -9.12727 -18.3006 0c-13.6502,0 -21.3155,6.6072 -21.3155,19.3422l0 0.407415 0 8.17073 0 0.409776c0,12.7338 7.6653,19.341 21.3155,19.341l18.3006 0 0 -9.12727 -18.3006 0c-7.32756,0 -11.0274,-3.33489 -11.0274,-10.6223l0 -8.17073c0,-7.28859 3.6998,-10.6235 11.0274,-10.6235z"/>
    <rect id="_326291912" class="fil1" x="109.27" y="4.542" width="10.2894" height="47.6715"/>
    <path id="_326291768" class="fil1" d="M209.476 34.4437c7.53304,-1.63674 11.9036,-6.8611 11.9036,-14.4886 0,-9.1934 -6.52336,-15.4085 -16.8115,-15.4085l-24.8145 0 0 9.12254 10.2893 0 3.0255 0 10.3554 0c5.17948,0 7.66648,2.13036 7.66648,6.14665 0,4.01982 -2.75743,6.28717 -7.53185,6.28717l-10.49 0 -3.0255 0 -10.2893 0 0 26.1123 10.2893 -0.00118091 0 -16.9874 8.49075 0 10.7404 16.9874 11.7005 0 -11.4985 -17.6381 0 -0.132262 0 0z"/>
    <polygon id="_326292416" class="fil1" points="231.592,4.54061 267.164,4.54061 267.164,13.6667 241.881,13.6667 241.881,23.8225 259.444,23.8225 259.444,32.9474 241.881,32.9474 241.881,43.0867 267.097,43.0867 267.097,52.2128 231.592,52.2128 "/>
    <path id="_326291744" class="fil1" d="M3.18492 4.54533l10.2905 0 0 28.8745c0,7.35354 3.69625,10.6908 11.0262,10.6908 7.32874,0 11.0285,-3.33608 11.0285,-10.6235l0 -28.9418 10.2869 0 0 29.3516c0,12.7326 -7.66648,19.341 -21.3155,19.341 -13.6513,0 -21.3166,-6.60838 -21.3166,-19.341l0 -29.3516 0 0z"/>
    <path id="_326291792" class="fil1" d="M98.9817 52.2164l-10.2905 0 0 -28.8768c0,-7.35472 -3.69625,-10.6908 -11.0262,-10.6908 -7.32874,0 -11.0285,3.33489 -11.0285,10.6235l0 28.9441 -10.2869 0 0 -29.3539c0,-12.7338 7.66648,-19.3398 21.3166,-19.3398 13.6502,0 21.3166,6.60602 21.3166,19.3398l0 29.3539 -0.00118091 0z"/>
   </g>
  </g>
  <path class="fil2" d="M317.258 4.28317c7.0524,0 13.0337,2.37836 17.9416,7.12326 4.90787,4.75671 7.36771,10.5385 7.36771,17.37 0,6.80796 -2.45984,12.5909 -7.36771,17.3358 -4.90787,4.74372 -10.8892,7.12208 -17.9416,7.12208 -7.04178,0 -12.9983,-2.37836 -17.8837,-7.12208 -4.88425,-4.7449 -7.32047,-10.5278 -7.32047,-17.3358 0,-6.83157 2.43622,-12.6133 7.32047,-17.37 4.88543,-4.7449 10.842,-7.12326 17.8837,-7.12326zm0.139348 45.536c5.93408,0 10.9471,-2.04062 15.0389,-6.09705 4.09186,-4.06824 6.13247,-9.04696 6.13247,-14.9456 0,-5.92227 -2.04062,-10.9116 -6.13247,-14.9799 -4.09186,-4.05761 -9.10483,-6.09705 -15.0389,-6.09705 -5.96833,0 -11.0167,2.03943 -15.1546,6.09705 -4.12729,4.06824 -6.20215,9.05759 -6.20215,14.9799 0,5.89865 2.07486,10.8774 6.20215,14.9456 4.13791,4.05643 9.18631,6.09705 15.1546,6.09705z"/>
  <polygon class="fil2" points="394.537,4.90196 394.537,52.6167 391.471,52.6167 355.226,10.9163 355.226,52.6167 351.543,52.6167 351.543,4.90196 354.679,4.90196 390.853,46.6011 390.853,4.90196 "/>
  <path class="fil2" d="M405.599 4.90196l9.94446 0c5.21136,0 9.16269,1.09589 11.8564,3.27585 2.68067,2.19059 4.02219,5.21018 4.02219,9.05759 0,4.59257 -2.28506,8.13766 -6.867,10.6199 7.3559,1.59777 11.0403,5.61878 11.0403,12.089 0,3.87103 -1.44544,6.94848 -4.32568,9.24536 -2.87906,2.28506 -6.77253,3.42701 -11.6922,3.42701l-13.9785 0 0 -47.7147zm3.69625 3.07746l0 19.0257 5.11807 0c8.67262,0 13.0207,-3.17193 13.0207,-9.50162 0,-6.3533 -4.38236,-9.52405 -13.1495,-9.52405l-4.98935 0zm0 22.1256l0 19.4343 9.8736 0c4.06942,0 7.16931,-0.875056 9.2796,-2.6228 2.1221,-1.76074 3.18256,-4.10367 3.18256,-7.04178 0,-6.50446 -4.68586,-9.76968 -14.0706,-9.76968l-8.2652 0z"/>
  <path class="fil2" d="M465.894 4.28317c7.0524,0 13.0337,2.37836 17.9416,7.12326 4.90787,4.75671 7.36771,10.5385 7.36771,17.37 0,6.80796 -2.45984,12.5909 -7.36771,17.3358 -4.90787,4.74372 -10.8892,7.12208 -17.9416,7.12208 -7.04178,0 -12.9983,-2.37836 -17.8837,-7.12208 -4.88425,-4.7449 -7.32047,-10.5278 -7.32047,-17.3358 0,-6.83157 2.43622,-12.6133 7.32047,-17.37 4.88543,-4.7449 10.842,-7.12326 17.8837,-7.12326zm0.139348 45.536c5.93408,0 10.9471,-2.04062 15.0389,-6.09705 4.09186,-4.06824 6.13247,-9.04696 6.13247,-14.9456 0,-5.92227 -2.04062,-10.9116 -6.13247,-14.9799 -4.09186,-4.05761 -9.10483,-6.09705 -15.0389,-6.09705 -5.96833,0 -11.0167,2.03943 -15.1546,6.09705 -4.12729,4.06824 -6.20215,9.05759 -6.20215,14.9799 0,5.89865 2.07486,10.8774 6.20215,14.9456 4.13791,4.05643 9.18631,6.09705 15.1546,6.09705z"/>
  <path class="fil2" d="M515.579 4.56304l22.0335 48.0537 -3.86985 0 -7.54366 -16.4962 -23.2911 0 -7.54248 16.4962 -3.87103 0 22.0335 -48.0537 2.05124 0zm9.22174 28.48l-10.2822 -22.4645 -10.2125 22.4645 20.4947 0z"/>
  <path class="fil2" d="M543.418 4.90196l12.2177 0c5.1287,0 9.04578,1.10651 11.7513,3.33371 2.7161,2.21539 4.06824,5.22317 4.06824,8.99973 0,5.50187 -3.0314,9.38471 -9.08121,11.6107 1.56235,0.746336 3.68326,3.17075 6.3533,7.27442l10.7829 16.4962 -4.33631 0 -8.33487 -13.0798c-2.77514,-4.37174 -4.93149,-7.09964 -6.48202,-8.18372 -1.55054,-1.08408 -3.81198,-1.62021 -6.79615,-1.62021l-6.45841 0 0 22.8837 -3.68444 0 0 -47.7147zm3.68444 3.07746l0 18.6749 7.92628 0c4.02219,0 7.11145,-0.804201 9.23355,-2.43622 2.13391,-1.63202 3.19437,-3.92889 3.19437,-6.91306 0,-2.93693 -1.08408,-5.2338 -3.2416,-6.86582 -2.16815,-1.64383 -5.26923,-2.45984 -9.32566,-2.45984l-7.78693 0z"/>
  <path class="fil2" d="M583.509 4.90196l16.6945 0c8.45178,0 14.8984,2.22602 19.3516,6.66743 4.45322,4.43078 6.67924,10.1771 6.67924,17.2071 0,6.90125 -2.2024,12.6027 -6.60956,17.0902 -4.40598,4.50045 -10.6672,6.75009 -18.7694,6.75009l-17.3464 0 0 -47.7147zm3.68444 3.07746l0 41.5598 13.4529 0c6.17853,0 11.319,-1.88828 15.4227,-5.67782 4.11548,-3.80017 6.16672,-8.82495 6.16672,-15.085 0,-6.12067 -2.02763,-11.1218 -6.08524,-14.9917 -4.04462,-3.87103 -9.29141,-5.80536 -15.738,-5.80536l-13.2191 0z"/>
  <polygon class="fil2" points="638.894,4.90196 638.894,52.6167 635.211,52.6167 635.211,4.90196 "/>
  <polygon class="fil2" points="692.753,4.90196 692.753,52.6167 689.688,52.6167 653.443,10.9163 653.443,52.6167 649.76,52.6167 649.76,4.90196 652.895,4.90196 689.07,46.6011 689.07,4.90196 "/>
  <path class="fil2" d="M743.674 8.35259l0 4.17334c-5.6424,-3.21798 -11.273,-4.82639 -16.9036,-4.82639 -6.02737,0 -11.051,2.00519 -15.0613,6.01556 -4.01038,4.01038 -6.00375,9.02217 -6.00375,15.0613 0,6.03918 1.98157,11.0522 5.9329,15.0507 3.96432,3.98676 9.35046,5.99195 16.1584,5.99195 4.91968,0 9.2796,-0.978976 13.0798,-2.93811l0 -12.8814 -10.072 0 0 -3.06683 13.8025 0 0 18.2687c-5.63059,2.68067 -11.273,4.03281 -16.9508,4.03281 -7.39015,0 -13.5687,-2.34293 -18.5238,-7.0406 -4.95392,-4.68704 -7.42557,-10.5396 -7.42557,-17.5566 0,-6.96029 2.42441,-12.7657 7.28623,-17.3936 4.86063,-4.6398 10.9695,-6.96029 18.3254,-6.96029 5.01297,0 10.4688,1.36395 16.3556,4.06942z"/>
  <path class="fil3 str0" d="M317.258 4.28317c7.0524,0 13.0337,2.37836 17.9416,7.12326 4.90787,4.75671 7.36771,10.5385 7.36771,17.37 0,6.80796 -2.45984,12.5909 -7.36771,17.3358 -4.90787,4.74372 -10.8892,7.12208 -17.9416,7.12208 -7.04178,0 -12.9983,-2.37836 -17.8837,-7.12208 -4.88425,-4.7449 -7.32047,-10.5278 -7.32047,-17.3358 0,-6.83157 2.43622,-12.6133 7.32047,-17.37 4.88543,-4.7449 10.842,-7.12326 17.8837,-7.12326zm0.139348 45.536c5.93408,0 10.9471,-2.04062 15.0389,-6.09705 4.09186,-4.06824 6.13247,-9.04696 6.13247,-14.9456 0,-5.92227 -2.04062,-10.9116 -6.13247,-14.9799 -4.09186,-4.05761 -9.10483,-6.09705 -15.0389,-6.09705 -5.96833,0 -11.0167,2.03943 -15.1546,6.09705 -4.12729,4.06824 -6.20215,9.05759 -6.20215,14.9799 0,5.89865 2.07486,10.8774 6.20215,14.9456 4.13791,4.05643 9.18631,6.09705 15.1546,6.09705z"/>
  <polygon class="fil3 str0" points="394.537,4.90196 394.537,52.6167 391.471,52.6167 355.226,10.9163 355.226,52.6167 351.543,52.6167 351.543,4.90196 354.679,4.90196 390.853,46.6011 390.853,4.90196 "/>
  <path class="fil3 str0" d="M405.599 4.90196l9.94446 0c5.21136,0 9.16269,1.09589 11.8564,3.27585 2.68067,2.19059 4.02219,5.21018 4.02219,9.05759 0,4.59257 -2.28506,8.13766 -6.867,10.6199 7.3559,1.59777 11.0403,5.61878 11.0403,12.089 0,3.87103 -1.44544,6.94848 -4.32568,9.24536 -2.87906,2.28506 -6.77253,3.42701 -11.6922,3.42701l-13.9785 0 0 -47.7147zm3.69625 3.07746l0 19.0257 5.11807 0c8.67262,0 13.0207,-3.17193 13.0207,-9.50162 0,-6.3533 -4.38236,-9.52405 -13.1495,-9.52405l-4.98935 0zm0 22.1256l0 19.4343 9.8736 0c4.06942,0 7.16931,-0.875056 9.2796,-2.6228 2.1221,-1.76074 3.18256,-4.10367 3.18256,-7.04178 0,-6.50446 -4.68586,-9.76968 -14.0706,-9.76968l-8.2652 0z"/>
  <path class="fil3 str0" d="M465.894 4.28317c7.0524,0 13.0337,2.37836 17.9416,7.12326 4.90787,4.75671 7.36771,10.5385 7.36771,17.37 0,6.80796 -2.45984,12.5909 -7.36771,17.3358 -4.90787,4.74372 -10.8892,7.12208 -17.9416,7.12208 -7.04178,0 -12.9983,-2.37836 -17.8837,-7.12208 -4.88425,-4.7449 -7.32047,-10.5278 -7.32047,-17.3358 0,-6.83157 2.43622,-12.6133 7.32047,-17.37 4.88543,-4.7449 10.842,-7.12326 17.8837,-7.12326zm0.139348 45.536c5.93408,0 10.9471,-2.04062 15.0389,-6.09705 4.09186,-4.06824 6.13247,-9.04696 6.13247,-14.9456 0,-5.92227 -2.04062,-10.9116 -6.13247,-14.9799 -4.09186,-4.05761 -9.10483,-6.09705 -15.0389,-6.09705 -5.96833,0 -11.0167,2.03943 -15.1546,6.09705 -4.12729,4.06824 -6.20215,9.05759 -6.20215,14.9799 0,5.89865 2.07486,10.8774 6.20215,14.9456 4.13791,4.05643 9.18631,6.09705 15.1546,6.09705z"/>
  <path class="fil3 str0" d="M515.579 4.56304l22.0335 48.0537 -3.86985 0 -7.54366 -16.4962 -23.2911 0 -7.54248 16.4962 -3.87103 0 22.0335 -48.0537 2.05124 0zm9.22174 28.48l-10.2822 -22.4645 -10.2125 22.4645 20.4947 0z"/>
  <path class="fil3 str0" d="M543.418 4.90196l12.2177 0c5.1287,0 9.04578,1.10651 11.7513,3.33371 2.7161,2.21539 4.06824,5.22317 4.06824,8.99973 0,5.50187 -3.0314,9.38471 -9.08121,11.6107 1.56235,0.746336 3.68326,3.17075 6.3533,7.27442l10.7829 16.4962 -4.33631 0 -8.33487 -13.0798c-2.77514,-4.37174 -4.93149,-7.09964 -6.48202,-8.18372 -1.55054,-1.08408 -3.81198,-1.62021 -6.79615,-1.62021l-6.45841 0 0 22.8837 -3.68444 0 0 -47.7147zm3.68444 3.07746l0 18.6749 7.92628 0c4.02219,0 7.11145,-0.804201 9.23355,-2.43622 2.13391,-1.63202 3.19437,-3.92889 3.19437,-6.91306 0,-2.93693 -1.08408,-5.2338 -3.2416,-6.86582 -2.16815,-1.64383 -5.26923,-2.45984 -9.32566,-2.45984l-7.78693 0z"/>
  <path class="fil3 str0" d="M583.509 4.90196l16.6945 0c8.45178,0 14.8984,2.22602 19.3516,6.66743 4.45322,4.43078 6.67924,10.1771 6.67924,17.2071 0,6.90125 -2.2024,12.6027 -6.60956,17.0902 -4.40598,4.50045 -10.6672,6.75009 -18.7694,6.75009l-17.3464 0 0 -47.7147zm3.68444 3.07746l0 41.5598 13.4529 0c6.17853,0 11.319,-1.88828 15.4227,-5.67782 4.11548,-3.80017 6.16672,-8.82495 6.16672,-15.085 0,-6.12067 -2.02763,-11.1218 -6.08524,-14.9917 -4.04462,-3.87103 -9.29141,-5.80536 -15.738,-5.80536l-13.2191 0z"/>
  <polygon class="fil3 str0" points="638.894,4.90196 638.894,52.6167 635.211,52.6167 635.211,4.90196 "/>
  <polygon class="fil3 str0" points="692.753,4.90196 692.753,52.6167 689.688,52.6167 653.443,10.9163 653.443,52.6167 649.76,52.6167 649.76,4.90196 652.895,4.90196 689.07,46.6011 689.07,4.90196 "/>
  <path class="fil3 str0" d="M743.674 8.35259l0 4.17334c-5.6424,-3.21798 -11.273,-4.82639 -16.9036,-4.82639 -6.02737,0 -11.051,2.00519 -15.0613,6.01556 -4.01038,4.01038 -6.00375,9.02217 -6.00375,15.0613 0,6.03918 1.98157,11.0522 5.9329,15.0507 3.96432,3.98676 9.35046,5.99195 16.1584,5.99195 4.91968,0 9.2796,-0.978976 13.0798,-2.93811l0 -12.8814 -10.072 0 0 -3.06683 13.8025 0 0 18.2687c-5.63059,2.68067 -11.273,4.03281 -16.9508,4.03281 -7.39015,0 -13.5687,-2.34293 -18.5238,-7.0406 -4.95392,-4.68704 -7.42557,-10.5396 -7.42557,-17.5566 0,-6.96029 2.42441,-12.7657 7.28623,-17.3936 4.86063,-4.6398 10.9695,-6.96029 18.3254,-6.96029 5.01297,0 10.4688,1.36395 16.3556,4.06942z"/>
  <path class="fil4" d="M767.753 30.9966l5.85024 0c2.23547,0 3.95133,0.503068 5.13933,1.50448 1.19272,1.00614 1.78908,2.37009 1.78908,4.10249 0,1.75247 -0.601084,3.14241 -1.80443,4.16389 -1.19863,1.02267 -2.95582,1.53519 -5.27986,1.53519l-4.05525 0 0 9.92202 -1.63911 0 0 -21.2281zm1.63911 1.36986l0 8.56751 3.95133 0c1.77373,0 3.11761,-0.373168 4.0399,-1.12541 0.923473,-0.746336 1.38521,-1.80443 1.38521,-3.17429 0,-1.30727 -0.451108,-2.34411 -1.35332,-3.1117 -0.902217,-0.772316 -2.19413,-1.15611 -3.87457,-1.15611l-4.14854 0z"/>
  <path class="fil4" d="M783.649 30.9966l5.43574 0c2.28152,0 4.02455,0.49244 5.2279,1.48323 1.20807,0.986061 1.80916,2.32403 1.80916,4.00447 0,2.44803 -1.34742,4.17452 -4.0399,5.16531 0.695557,0.331836 1.63911,1.41119 2.8271,3.23688l4.79686 7.33819 -1.92961 0 -3.70806 -5.81953c-1.23405,-1.94496 -2.19295,-3.15776 -2.88379,-3.64075 -0.689652,-0.481812 -1.69579,-0.720356 -3.02313,-0.720356l-2.87316 0 0 10.1806 -1.63911 0 0 -21.2281zm1.63911 1.36986l0 8.30771 3.5262 0c1.79026,0 3.16366,-0.357816 4.10839,-1.08408 0.948272,-0.72508 1.42064,-1.74775 1.42064,-3.07509 0,-1.30727 -0.481812,-2.32876 -1.44189,-3.05502 -0.964805,-0.730984 -2.34411,-1.09352 -4.14854,-1.09352l-3.46479 0z"/>
  <path class="fil4" d="M811.345 30.7214c3.13768,0 5.79828,1.0581 7.98178,3.16957 2.18351,2.11619 3.27703,4.68822 3.27703,7.72789 0,3.02904 -1.09352,5.60106 -3.27703,7.71135 -2.18351,2.11147 -4.8441,3.16957 -7.98178,3.16957 -3.13296,0 -5.78292,-1.0581 -7.9558,-3.16957 -2.17406,-2.11029 -3.25695,-4.68231 -3.25695,-7.71135 0,-3.03967 1.0829,-5.61169 3.25695,-7.72789 2.17288,-2.11147 4.82284,-3.16957 7.9558,-3.16957zm0.0614074 20.2585c2.64052,0 4.87008,-0.908121 6.69105,-2.71255 1.81978,-1.81034 2.72791,-4.02455 2.72791,-6.64853 0,-2.63461 -0.908121,-4.85473 -2.72791,-6.66507 -1.82097,-1.80443 -4.05053,-2.71255 -6.69105,-2.71255 -2.65469,0 -4.90078,0.908121 -6.74182,2.71255 -1.83632,1.81034 -2.75861,4.03045 -2.75861,6.66507 0,2.62399 0.922292,4.8382 2.75861,6.64853 1.84104,1.80443 4.08714,2.71255 6.74182,2.71255z"/>
  <path class="fil3 str0" d="M767.753 30.9966l5.85024 0c2.23547,0 3.95133,0.503068 5.13933,1.50448 1.19272,1.00614 1.78908,2.37009 1.78908,4.10249 0,1.75247 -0.601084,3.14241 -1.80443,4.16389 -1.19863,1.02267 -2.95582,1.53519 -5.27986,1.53519l-4.05525 0 0 9.92202 -1.63911 0 0 -21.2281zm1.63911 1.36986l0 8.56751 3.95133 0c1.77373,0 3.11761,-0.373168 4.0399,-1.12541 0.923473,-0.746336 1.38521,-1.80443 1.38521,-3.17429 0,-1.30727 -0.451108,-2.34411 -1.35332,-3.1117 -0.902217,-0.772316 -2.19413,-1.15611 -3.87457,-1.15611l-4.14854 0z"/>
  <path class="fil3 str0" d="M783.649 30.9966l5.43574 0c2.28152,0 4.02455,0.49244 5.2279,1.48323 1.20807,0.986061 1.80916,2.32403 1.80916,4.00447 0,2.44803 -1.34742,4.17452 -4.0399,5.16531 0.695557,0.331836 1.63911,1.41119 2.8271,3.23688l4.79686 7.33819 -1.92961 0 -3.70806 -5.81953c-1.23405,-1.94496 -2.19295,-3.15776 -2.88379,-3.64075 -0.689652,-0.481812 -1.69579,-0.720356 -3.02313,-0.720356l-2.87316 0 0 10.1806 -1.63911 0 0 -21.2281zm1.63911 1.36986l0 8.30771 3.5262 0c1.79026,0 3.16366,-0.357816 4.10839,-1.08408 0.948272,-0.72508 1.42064,-1.74775 1.42064,-3.07509 0,-1.30727 -0.481812,-2.32876 -1.44189,-3.05502 -0.964805,-0.730984 -2.34411,-1.09352 -4.14854,-1.09352l-3.46479 0z"/>
  <path class="fil3 str0" d="M811.345 30.7214c3.13768,0 5.79828,1.0581 7.98178,3.16957 2.18351,2.11619 3.27703,4.68822 3.27703,7.72789 0,3.02904 -1.09352,5.60106 -3.27703,7.71135 -2.18351,2.11147 -4.8441,3.16957 -7.98178,3.16957 -3.13296,0 -5.78292,-1.0581 -7.9558,-3.16957 -2.17406,-2.11029 -3.25695,-4.68231 -3.25695,-7.71135 0,-3.03967 1.0829,-5.61169 3.25695,-7.72789 2.17288,-2.11147 4.82284,-3.16957 7.9558,-3.16957zm0.0614074 20.2585c2.64052,0 4.87008,-0.908121 6.69105,-2.71255 1.81978,-1.81034 2.72791,-4.02455 2.72791,-6.64853 0,-2.63461 -0.908121,-4.85473 -2.72791,-6.66507 -1.82097,-1.80443 -4.05053,-2.71255 -6.69105,-2.71255 -2.65469,0 -4.90078,0.908121 -6.74182,2.71255 -1.83632,1.81034 -2.75861,4.03045 -2.75861,6.66507 0,2.62399 0.922292,4.8382 2.75861,6.64853 1.84104,1.80443 4.08714,2.71255 6.74182,2.71255z"/>
 </g>
</svg>
