<?xml version="1.0" encoding="UTF-8"?>
<!DOCTYPE svg PUBLIC "-//W3C//DTD SVG 1.1//EN" "http://www.w3.org/Graphics/SVG/1.1/DTD/svg11.dtd">
<!-- Creator: CorelDRAW -->
<svg xmlns="http://www.w3.org/2000/svg" xml:space="preserve" width="816px" height="56px" style="shape-rendering:geometricPrecision; text-rendering:geometricPrecision; image-rendering:optimizeQuality; fill-rule:evenodd; clip-rule:evenodd"
viewBox="0 0 816 56.2905">
 <defs>
  <style type="text/css">
   <![CDATA[
    .str0 {stroke:#1F66B0;stroke-width:2.08256}
    .fil3 {fill:none;fill-rule:nonzero}
    .fil0 {fill:black}
    .fil1 {fill:white}
    .fil2 {fill:#1F66B0;fill-rule:nonzero}
   ]]>
  </style>
 </defs>
 <g id="Layer_x0020_1">
  <metadata id="CorelCorpID_0Corel-Layer"/>
  <rect class="fil0" x="-0.00236451" y="-1.04848" width="816.005" height="56.2862"/>
  <g id="_195756784">
   <path id="_196489552" class="fil1" d="M274.878 10.9771c-2.04478,0.0365983 -3.72594,-1.62921 -3.68462,-3.77198 -0.0413206,-2.14277 1.64102,-3.77198 3.68462,-3.74719 2.03179,-0.0247924 3.72358,1.60442 3.68934,3.74719 0.0342371,2.14277 -1.65755,3.80858 -3.68934,3.77198m0 -7.04104c-1.79922,0 -3.1687,1.35886 -3.1687,3.26905 -0.0354177,1.91256 1.39073,3.33162 3.1687,3.29503 1.79095,0 3.15454,-1.36004 3.15454,-3.29503 0,-1.91137 -1.36358,-3.26905 -3.15454,-3.26905m1.68942 5.4496l-0.65995 0 -0.859469 -1.7154 -0.883081 0 0 1.7154 -0.603281 0 0 -4.32332 1.68116 0c0.878359,0 1.41671,0.489945 1.41671,1.28684 0,0.685923 -0.376608,1.13809 -1.00468,1.27268l0.912596 1.7638zm-1.39782 -3.78497l-0.98107 0 0 1.54421 0.98107 0c0.567864,0 0.881901,-0.293967 0.881901,-0.795717 0,-0.502931 -0.289244,-0.748494 -0.881901,-0.748494z"/>
   <g>
    <path id="_196489216" class="fil1" d="M151.12 12.6193l18.2956 0 0 -9.12478 -18.2956 0c-13.6464,0 -21.3096,6.6054 -21.3096,19.3369l0 0.407303 0 8.1685 0 0.409665c0,12.7303 7.66321,19.3357 21.3096,19.3357l18.2956 0 0 -9.12478 -18.2956 0c-7.32556,0 -11.0243,-3.33399 -11.0243,-10.6194l0 -8.1685c0,-7.2866 3.69879,-10.6206 11.0243,-10.6206z"/>
    <rect id="_196489024" class="fil1" x="109.239" y="3.49004" width="10.2866" height="47.6585"/>
    <path id="_196489456" class="fil1" d="M209.418 33.3835c7.53098,-1.6363 11.9003,-6.85923 11.9003,-14.4847 0,-9.19089 -6.52158,-15.4043 -16.8069,-15.4043l-24.8077 0 0 9.12006 10.2865 0 3.02467 0 10.3526 0c5.17807,0 7.66439,2.12978 7.66439,6.14497 0,4.01873 -2.75668,6.28546 -7.5298,6.28546l-10.4872 0 -3.02467 0 -10.2865 0 0 26.1052 10.2865 -0.00118059 0 -16.9828 8.48844 0 10.7375 16.9828 11.6973 0 -11.4954 -17.6333 0 -0.132226 0 0z"/>
    <polygon id="_196489360" class="fil1" points="231.528,3.48864 267.09,3.48864 267.09,12.6122 241.814,12.6122 241.814,22.7653 259.372,22.7653 259.372,31.8877 241.814,31.8877 241.814,42.0243 267.023,42.0243 267.023,51.1479 231.528,51.1479 "/>
    <path id="_196489312" class="fil1" d="M3.18287 3.49336l10.2877 0 0 28.8666c0,7.35153 3.69525,10.6879 11.0232,10.6879 7.32674,0 11.0255,-3.33517 11.0255,-10.6206l0 -28.9339 10.2841 0 0 29.3436c0,12.7291 -7.66439,19.3357 -21.3096,19.3357 -13.6476,0 -21.3108,-6.60658 -21.3108,-19.3357l0 -29.3436 0 0z"/>
    <path id="_195756688" class="fil1" d="M98.9535 51.1514l-10.2877 0 0 -28.869c0,-7.35271 -3.69525,-10.6879 -11.0232,-10.6879 -7.32674,0 -11.0255,3.33399 -11.0255,10.6206l0 28.9363 -10.2841 0 0 -29.3459c0,-12.7303 7.66439,-19.3345 21.3108,-19.3345 13.6464,0 21.3108,6.60422 21.3108,19.3345l0 29.3459 -0.00118059 0z"/>
   </g>
  </g>
  <path class="fil2" d="M317.17 3.23127c7.05048,0 13.0302,2.37771 17.9367,7.12132 4.90653,4.75542 7.3657,10.5356 7.3657,17.3653 0,6.8061 -2.45917,12.5874 -7.3657,17.3311 -4.90653,4.74243 -10.8862,7.12014 -17.9367,7.12014 -7.03986,0 -12.9948,-2.37771 -17.8789,-7.12014 -4.88292,-4.74361 -7.31848,-10.525 -7.31848,-17.3311 0,-6.82971 2.43556,-12.6099 7.31848,-17.3653 4.8841,-4.74361 10.839,-7.12132 17.8789,-7.12132zm0.13931 45.5235c5.93246,0 10.9441,-2.04006 15.0348,-6.09538 4.09074,-4.06713 6.1308,-9.0445 6.1308,-14.9415 0,-5.92066 -2.04006,-10.9086 -6.1308,-14.9758 -4.09074,-4.05651 -9.10235,-6.09538 -15.0348,-6.09538 -5.9667,0 -11.0137,2.03888 -15.1505,6.09538 -4.12616,4.06713 -6.20046,9.05512 -6.20046,14.9758 0,5.89705 2.0743,10.8744 6.20046,14.9415 4.13679,4.05533 9.18381,6.09538 15.1505,6.09538z"/>
  <polygon class="fil2" points="394.428,3.8499 394.428,51.5516 391.363,51.5516 355.128,9.86265 355.128,51.5516 351.446,51.5516 351.446,3.8499 354.581,3.8499 390.746,45.5377 390.746,3.8499 "/>
  <path class="fil2" d="M405.488 3.8499l9.94175 0c5.20994,0 9.1602,1.09559 11.8531,3.27496 2.67994,2.18999 4.02109,5.20876 4.02109,9.05512 0,4.59131 -2.28444,8.13544 -6.86513,10.617 7.35389,1.59734 11.0373,5.61725 11.0373,12.0857 0,3.86997 -1.44504,6.94659 -4.3245,9.24284 -2.87828,2.28444 -6.77068,3.42607 -11.689,3.42607l-13.9746 0 0 -47.7017zm3.69525 3.07662l0 19.0205 5.11668 0c8.67025,0 13.0172,-3.17106 13.0172,-9.49902 0,-6.35157 -4.38117,-9.52146 -13.1459,-9.52146l-4.98799 0zm0 22.1195l0 19.429 9.87091 0c4.06831,0 7.16736,-0.874817 9.27707,-2.62209 2.12152,-1.76026 3.18169,-4.10255 3.18169,-7.03986 0,-6.50269 -4.68458,-9.76702 -14.0667,-9.76702l-8.26295 0z"/>
  <path class="fil2" d="M465.766 3.23127c7.05048,0 13.0302,2.37771 17.9367,7.12132 4.90653,4.75542 7.3657,10.5356 7.3657,17.3653 0,6.8061 -2.45917,12.5874 -7.3657,17.3311 -4.90653,4.74243 -10.8862,7.12014 -17.9367,7.12014 -7.03986,0 -12.9948,-2.37771 -17.8789,-7.12014 -4.88292,-4.74361 -7.31848,-10.525 -7.31848,-17.3311 0,-6.82971 2.43556,-12.6099 7.31848,-17.3653 4.8841,-4.74361 10.839,-7.12132 17.8789,-7.12132zm0.13931 45.5235c5.93246,0 10.9441,-2.04006 15.0348,-6.09538 4.09074,-4.06713 6.1308,-9.0445 6.1308,-14.9415 0,-5.92066 -2.04006,-10.9086 -6.1308,-14.9758 -4.09074,-4.05651 -9.10235,-6.09538 -15.0348,-6.09538 -5.9667,0 -11.0137,2.03888 -15.1505,6.09538 -4.12616,4.06713 -6.20046,9.05512 -6.20046,14.9758 0,5.89705 2.0743,10.8744 6.20046,14.9415 4.13679,4.05533 9.18381,6.09538 15.1505,6.09538z"/>
  <path class="fil2" d="M515.437 3.51107l22.0274 48.0406 -3.86879 0 -7.54161 -16.4917 -23.2848 0 -7.54043 16.4917 -3.86997 0 22.0274 -48.0406 2.05068 0zm9.21923 28.4723l-10.2794 -22.4584 -10.2097 22.4584 20.4891 0z"/>
  <path class="fil2" d="M543.268 3.8499l12.2144 0c5.1273,0 9.04332,1.10621 11.748,3.3328 2.71536,2.21479 4.06713,5.22175 4.06713,8.99727 0,5.50037 -3.03057,9.38215 -9.07873,11.6076 1.56192,0.746133 3.68226,3.16988 6.35157,7.27243l10.78 16.4917 -4.33513 0 -8.3326 -13.0762c-2.77439,-4.37054 -4.93014,-7.09771 -6.48026,-8.18149 -1.55011,-1.08378 -3.81094,-1.61977 -6.79429,-1.61977l-6.45665 0 0 22.8775 -3.68344 0 0 -47.7017zm3.68344 3.07662l0 18.6698 7.92412 0c4.02109,0 7.10951,-0.803982 9.23103,-2.43556 2.13333,-1.63157 3.1935,-3.92782 3.1935,-6.91117 0,-2.93613 -1.08378,-5.23237 -3.24072,-6.86395 -2.16756,-1.64338 -5.26779,-2.45917 -9.32312,-2.45917l-7.78481 0z"/>
  <path class="fil2" d="M583.348 3.8499l16.69 0c8.44948,0 14.8943,2.22541 19.3463,6.66561 4.452,4.42957 6.67742,10.1743 6.67742,17.2024 0,6.89937 -2.2018,12.5993 -6.60776,17.0855 -4.40478,4.49923 -10.6643,6.74825 -18.7643,6.74825l-17.3417 0 0 -47.7017zm3.68344 3.07662l0 41.5485 13.4493 0c6.17685,0 11.316,-1.88776 15.4185,-5.67628 4.11436,-3.79914 6.16504,-8.82255 6.16504,-15.0809 0,-6.119 -2.02707,-11.1188 -6.08358,-14.9876 -4.04352,-3.86997 -9.28888,-5.80378 -15.7337,-5.80378l-13.2155 0z"/>
  <polygon class="fil2" points="638.719,3.8499 638.719,51.5516 635.037,51.5516 635.037,3.8499 "/>
  <polygon class="fil2" points="692.563,3.8499 692.563,51.5516 689.499,51.5516 653.264,9.86265 653.264,51.5516 649.582,51.5516 649.582,3.8499 652.716,3.8499 688.881,45.5377 688.881,3.8499 "/>
  <path class="fil2" d="M743.47 7.29959l0 4.1722c-5.64086,-3.21711 -11.2699,-4.82507 -16.899,-4.82507 -6.02573,0 -11.048,2.00464 -15.0572,6.01392 -4.00928,4.00928 -6.00212,9.01971 -6.00212,15.0572 0,6.03754 1.98103,11.0491 5.93128,15.0466 3.96324,3.98567 9.34791,5.99031 16.154,5.99031 4.91834,0 9.27707,-0.978709 13.0762,-2.93731l0 -12.8779 -10.0692 0 0 -3.06599 13.7987 0 0 18.2637c-5.62905,2.67994 -11.2699,4.03171 -16.9462,4.03171 -7.38813,0 -13.565,-2.34229 -18.5187,-7.03868 -4.95257,-4.68576 -7.42355,-10.5368 -7.42355,-17.5518 0,-6.9584 2.42375,-12.7622 7.28424,-17.3889 4.85931,-4.63854 10.9665,-6.9584 18.3204,-6.9584 5.0116,0 10.4659,1.36358 16.3512,4.06831z"/>
  <path class="fil3 str0" d="M317.17 3.23127c7.05048,0 13.0302,2.37771 17.9367,7.12132 4.90653,4.75542 7.3657,10.5356 7.3657,17.3653 0,6.8061 -2.45917,12.5874 -7.3657,17.3311 -4.90653,4.74243 -10.8862,7.12014 -17.9367,7.12014 -7.03986,0 -12.9948,-2.37771 -17.8789,-7.12014 -4.88292,-4.74361 -7.31848,-10.525 -7.31848,-17.3311 0,-6.82971 2.43556,-12.6099 7.31848,-17.3653 4.8841,-4.74361 10.839,-7.12132 17.8789,-7.12132zm0.13931 45.5235c5.93246,0 10.9441,-2.04006 15.0348,-6.09538 4.09074,-4.06713 6.1308,-9.0445 6.1308,-14.9415 0,-5.92066 -2.04006,-10.9086 -6.1308,-14.9758 -4.09074,-4.05651 -9.10235,-6.09538 -15.0348,-6.09538 -5.9667,0 -11.0137,2.03888 -15.1505,6.09538 -4.12616,4.06713 -6.20046,9.05512 -6.20046,14.9758 0,5.89705 2.0743,10.8744 6.20046,14.9415 4.13679,4.05533 9.18381,6.09538 15.1505,6.09538z"/>
  <polygon class="fil3 str0" points="394.428,3.8499 394.428,51.5516 391.363,51.5516 355.128,9.86265 355.128,51.5516 351.446,51.5516 351.446,3.8499 354.581,3.8499 390.746,45.5377 390.746,3.8499 "/>
  <path class="fil3 str0" d="M405.488 3.8499l9.94175 0c5.20994,0 9.1602,1.09559 11.8531,3.27496 2.67994,2.18999 4.02109,5.20876 4.02109,9.05512 0,4.59131 -2.28444,8.13544 -6.86513,10.617 7.35389,1.59734 11.0373,5.61725 11.0373,12.0857 0,3.86997 -1.44504,6.94659 -4.3245,9.24284 -2.87828,2.28444 -6.77068,3.42607 -11.689,3.42607l-13.9746 0 0 -47.7017zm3.69525 3.07662l0 19.0205 5.11668 0c8.67025,0 13.0172,-3.17106 13.0172,-9.49902 0,-6.35157 -4.38117,-9.52146 -13.1459,-9.52146l-4.98799 0zm0 22.1195l0 19.429 9.87091 0c4.06831,0 7.16736,-0.874817 9.27707,-2.62209 2.12152,-1.76026 3.18169,-4.10255 3.18169,-7.03986 0,-6.50269 -4.68458,-9.76702 -14.0667,-9.76702l-8.26295 0z"/>
  <path class="fil3 str0" d="M465.766 3.23127c7.05048,0 13.0302,2.37771 17.9367,7.12132 4.90653,4.75542 7.3657,10.5356 7.3657,17.3653 0,6.8061 -2.45917,12.5874 -7.3657,17.3311 -4.90653,4.74243 -10.8862,7.12014 -17.9367,7.12014 -7.03986,0 -12.9948,-2.37771 -17.8789,-7.12014 -4.88292,-4.74361 -7.31848,-10.525 -7.31848,-17.3311 0,-6.82971 2.43556,-12.6099 7.31848,-17.3653 4.8841,-4.74361 10.839,-7.12132 17.8789,-7.12132zm0.13931 45.5235c5.93246,0 10.9441,-2.04006 15.0348,-6.09538 4.09074,-4.06713 6.1308,-9.0445 6.1308,-14.9415 0,-5.92066 -2.04006,-10.9086 -6.1308,-14.9758 -4.09074,-4.05651 -9.10235,-6.09538 -15.0348,-6.09538 -5.9667,0 -11.0137,2.03888 -15.1505,6.09538 -4.12616,4.06713 -6.20046,9.05512 -6.20046,14.9758 0,5.89705 2.0743,10.8744 6.20046,14.9415 4.13679,4.05533 9.18381,6.09538 15.1505,6.09538z"/>
  <path class="fil3 str0" d="M515.437 3.51107l22.0274 48.0406 -3.86879 0 -7.54161 -16.4917 -23.2848 0 -7.54043 16.4917 -3.86997 0 22.0274 -48.0406 2.05068 0zm9.21923 28.4723l-10.2794 -22.4584 -10.2097 22.4584 20.4891 0z"/>
  <path class="fil3 str0" d="M543.268 3.8499l12.2144 0c5.1273,0 9.04332,1.10621 11.748,3.3328 2.71536,2.21479 4.06713,5.22175 4.06713,8.99727 0,5.50037 -3.03057,9.38215 -9.07873,11.6076 1.56192,0.746133 3.68226,3.16988 6.35157,7.27243l10.78 16.4917 -4.33513 0 -8.3326 -13.0762c-2.77439,-4.37054 -4.93014,-7.09771 -6.48026,-8.18149 -1.55011,-1.08378 -3.81094,-1.61977 -6.79429,-1.61977l-6.45665 0 0 22.8775 -3.68344 0 0 -47.7017zm3.68344 3.07662l0 18.6698 7.92412 0c4.02109,0 7.10951,-0.803982 9.23103,-2.43556 2.13333,-1.63157 3.1935,-3.92782 3.1935,-6.91117 0,-2.93613 -1.08378,-5.23237 -3.24072,-6.86395 -2.16756,-1.64338 -5.26779,-2.45917 -9.32312,-2.45917l-7.78481 0z"/>
  <path class="fil3 str0" d="M583.348 3.8499l16.69 0c8.44948,0 14.8943,2.22541 19.3463,6.66561 4.452,4.42957 6.67742,10.1743 6.67742,17.2024 0,6.89937 -2.2018,12.5993 -6.60776,17.0855 -4.40478,4.49923 -10.6643,6.74825 -18.7643,6.74825l-17.3417 0 0 -47.7017zm3.68344 3.07662l0 41.5485 13.4493 0c6.17685,0 11.316,-1.88776 15.4185,-5.67628 4.11436,-3.79914 6.16504,-8.82255 6.16504,-15.0809 0,-6.119 -2.02707,-11.1188 -6.08358,-14.9876 -4.04352,-3.86997 -9.28888,-5.80378 -15.7337,-5.80378l-13.2155 0z"/>
  <polygon class="fil3 str0" points="638.719,3.8499 638.719,51.5516 635.037,51.5516 635.037,3.8499 "/>
  <polygon class="fil3 str0" points="692.563,3.8499 692.563,51.5516 689.499,51.5516 653.264,9.86265 653.264,51.5516 649.582,51.5516 649.582,3.8499 652.716,3.8499 688.881,45.5377 688.881,3.8499 "/>
  <path class="fil3 str0" d="M743.47 7.29959l0 4.1722c-5.64086,-3.21711 -11.2699,-4.82507 -16.899,-4.82507 -6.02573,0 -11.048,2.00464 -15.0572,6.01392 -4.00928,4.00928 -6.00212,9.01971 -6.00212,15.0572 0,6.03754 1.98103,11.0491 5.93128,15.0466 3.96324,3.98567 9.34791,5.99031 16.154,5.99031 4.91834,0 9.27707,-0.978709 13.0762,-2.93731l0 -12.8779 -10.0692 0 0 -3.06599 13.7987 0 0 18.2637c-5.62905,2.67994 -11.2699,4.03171 -16.9462,4.03171 -7.38813,0 -13.565,-2.34229 -18.5187,-7.03868 -4.95257,-4.68576 -7.42355,-10.5368 -7.42355,-17.5518 0,-6.9584 2.42375,-12.7622 7.28424,-17.3889 4.85931,-4.63854 10.9665,-6.9584 18.3204,-6.9584 5.0116,0 10.4659,1.36358 16.3512,4.06831z"/>
  <polygon class="fil2" points="767.727,26.1477 787.823,26.1477 787.823,6.09302 791.489,6.09302 791.489,26.1477 811.544,26.1477 811.544,29.8134 791.489,29.8134 791.489,49.9106 787.823,49.9106 787.823,29.8134 767.727,29.8134 "/>
  <polygon class="fil3 str0" points="767.727,26.1477 787.823,26.1477 787.823,6.09302 791.489,6.09302 791.489,26.1477 811.544,26.1477 811.544,29.8134 791.489,29.8134 791.489,49.9106 787.823,49.9106 787.823,29.8134 767.727,29.8134 "/>
 </g>
</svg>
