<?xml version="1.0" encoding="UTF-8"?>
<!DOCTYPE svg PUBLIC "-//W3C//DTD SVG 1.1//EN" "http://www.w3.org/Graphics/SVG/1.1/DTD/svg11.dtd">
<!-- Creator: CorelDRAW -->
<svg xmlns="http://www.w3.org/2000/svg" xml:space="preserve" width="891px" height="56px" style="shape-rendering:geometricPrecision; text-rendering:geometricPrecision; image-rendering:optimizeQuality; fill-rule:evenodd; clip-rule:evenodd"
viewBox="0 0 891 56.3441">
 <defs>
  <style type="text/css">
   <![CDATA[
    .fil0 {fill:#747474}
    .fil1 {fill:white}
    .fil3 {fill:#6699FF;fill-rule:nonzero}
    .fil2 {fill:white;fill-rule:nonzero}
   ]]>
  </style>
 </defs>
 <g id="Layer_x0020_1">
  <metadata id="CorelCorpID_0Corel-Layer"/>
  <g id="_201841096">
   <rect id="_201840784" class="fil0" y="0.00224465" width="891.001" height="56.3397"/>
   <g>
    <path id="_201840760" class="fil1" d="M295.438 10.158c-2.20626,0.0378148 -4.02019,-1.75839 -3.97528,-4.071 -0.0449051,-2.31143 1.77021,-4.06864 3.97528,-4.04264 2.19208,-0.0259977 4.01664,1.73121 3.98001,4.04264 0.0366331,2.31261 -1.78793,4.10882 -3.98001,4.071m0 -7.59723c-1.94155,0 -3.4187,1.46532 -3.4187,3.52623 -0.0378148,2.06327 1.50078,3.59477 3.4187,3.55578 1.9321,0 3.40333,-1.46769 3.40333,-3.55578 0,-2.06209 -1.47123,-3.52623 -3.40333,-3.52623m1.82338 5.87902l-0.712573 0 -0.927645 -1.85056 -0.952461 0 0 1.85056 -0.651124 0 0 -4.6654 1.81275 0.00118171c0.948916,0 1.53032,0.528226 1.53032,1.38851 0,0.739753 -0.407691,1.2278 -1.08481,1.37315l0.985549 1.90256zm-1.50905 -4.084l-1.05763 0 0 1.66622 1.05763 0c0.612127,0 0.951279,-0.316699 0.951279,-0.857924 0,-0.543588 -0.311972,-0.808292 -0.951279,-0.808292z"/>
    <g>
     <path id="_201840736" class="fil1" d="M161.91 11.9294l19.7393 0 0 -9.84604 -19.7393 0c-14.7241,0 -22.9926,7.12809 -22.9926,20.8643l0 0.439597 0 8.81322 0 0.441961c0,13.7351 8.26845,20.862 22.9926,20.862l19.7393 0 0 -9.84485 -19.7393 0c-7.90448,0 -11.8951,-3.59714 -11.8951,-11.4591l0 -8.81322c0,-7.86076 3.99065,-11.4579 11.8951,-11.4579z"/>
     <rect id="_201840448" class="fil1" x="116.722" y="2.07887" width="11.0987" height="51.4211"/>
     <path id="_201840616" class="fil1" d="M224.81 34.3323c8.12428,-1.76548 12.8381,-7.40107 12.8381,-15.6282 0,-9.91694 -7.03474,-16.6208 -18.1322,-16.6208l-26.767 0 0 9.84013 11.0987 0 3.26389 0 11.1684 0c5.58714,0 8.27081,2.29843 8.27081,6.63059 0,4.33571 -2.97437,6.78185 -8.12428,6.78185l-11.3149 0 -3.26389 0 -11.0987 0 0 28.165 11.0987 0 0 -18.3236 9.15828 0 11.5855 18.3236 12.6207 0 -12.4021 -19.0256 0 -0.142987 0 0z"/>
     <polygon id="_201840880" class="fil1" points="248.666,2.07745 287.035,2.07745 287.035,11.9211 259.763,11.9211 259.763,22.8756 278.707,22.8756 278.707,32.7181 259.763,32.7181 259.763,43.6549 286.963,43.6549 286.963,53.4997 248.666,53.4997 "/>
     <path id="_201840832" class="fil1" d="M2.29252 2.08218l11.0998 0 0 31.1464c0,7.93166 3.9871,11.5312 11.8939,11.5312 7.90448,0 11.8963,-3.59832 11.8963,-11.4591l0 -31.2185 11.0951 0 0 31.6605c0,13.7339 -8.26963,20.862 -22.9914,20.862 -14.7253,0 -22.9938,-7.12809 -22.9938,-20.862l0 -31.6605 0 0z"/>
     <path id="_201840808" class="fil1" d="M105.624 53.5033l-11.0987 0 0 -31.1476c0,-7.93402 -3.98828,-11.5323 -11.8939,-11.5323 -7.90566,0 -11.8963,3.59714 -11.8963,11.4591l0 31.2209 -11.0963 0 0 -31.6628c0,-13.7351 8.26963,-20.8608 22.9926,-20.8608 14.7253,0 22.9938,7.12573 22.9938,20.8608l0 31.6628 -0.00118171 0z"/>
    </g>
   </g>
   <path id="_202692840" class="fil2" d="M341.071 1.79739c7.60787,0 14.0577,2.5655 19.3517,7.6835 5.29289,5.12982 7.94702,11.3669 7.94702,18.7349 0,7.34317 -2.65413,13.5802 -7.94702,18.6982 -5.29408,5.11682 -11.7439,7.68232 -19.3517,7.68232 -7.59487,0 -14.0198,-2.5655 -19.2879,-7.68232 -5.26926,-5.118 -7.89739,-11.3551 -7.89739,-18.6982 0,-7.36798 2.62813,-13.6051 7.89739,-18.7349 5.26808,-5.118 11.6931,-7.6835 19.2879,-7.6835zm0.151259 49.1144c6.40016,0 11.8065,-2.20035 16.2202,-6.57623 4.4137,-4.3877 6.61405,-9.75741 6.61405,-16.1198 0,-6.38716 -2.20035,-11.7687 -6.61405,-16.1576 -4.4137,-4.37588 -9.82004,-6.57623 -16.2202,-6.57623 -6.43797,0 -11.8821,2.20035 -16.3466,6.57623 -4.45151,4.38888 -6.68968,9.77041 -6.68968,16.1576 0,6.36234 2.23816,11.732 6.68968,16.1198 4.46451,4.37588 9.90867,6.57623 16.3466,6.57623z"/>
   <polygon id="_202692840" class="fil2" points="424.424,2.46387 424.424,53.9298 421.117,53.9298 382.024,8.95266 382.024,53.9298 378.05,53.9298 378.05,2.46387 381.433,2.46387 420.45,47.4422 420.45,2.46387 "/>
   <path id="_202692840" class="fil2" d="M436.356 2.46387l10.7264 0c5.62023,0 9.88267,1.18289 12.7873,3.53332 2.89165,2.36461 4.33807,5.62141 4.33807,9.77041 0,4.95374 -2.46387,8.77658 -7.4058,11.4555 7.93402,1.72176 11.9069,6.05983 11.9069,13.039 0,4.17381 -1.55868,7.49443 -4.66422,9.9713 -3.10554,2.46387 -7.30535,3.6964 -12.6124,3.6964l-15.0763 0 0 -51.466zm3.98592 3.32061l0 20.5205 5.52096 0c9.35444,0 14.0447,-3.41988 14.0447,-10.2478 0,-6.85276 -4.72803,-10.2726 -14.1829,-10.2726l-5.3827 0zm0 23.8647l0 20.9612 10.6508 0c4.38888,0 7.73313,-0.943007 10.0091,-2.82902 2.2878,-1.89901 3.43288,-4.4267 3.43288,-7.59487 0,-7.01583 -5.05537,-10.5373 -15.1767,-10.5373l-8.91603 0z"/>
   <path id="_202692840" class="fil2" d="M501.389 1.79739c7.60787,0 14.0577,2.5655 19.3517,7.6835 5.29289,5.12982 7.94702,11.3669 7.94702,18.7349 0,7.34317 -2.65413,13.5802 -7.94702,18.6982 -5.29408,5.11682 -11.7439,7.68232 -19.3517,7.68232 -7.59487,0 -14.0198,-2.5655 -19.2879,-7.68232 -5.26926,-5.118 -7.89739,-11.3551 -7.89739,-18.6982 0,-7.36798 2.62813,-13.6051 7.89739,-18.7349 5.26808,-5.118 11.6931,-7.6835 19.2879,-7.6835zm0.151259 49.1144c6.40016,0 11.8065,-2.20035 16.2202,-6.57623 4.4137,-4.3877 6.61405,-9.75741 6.61405,-16.1198 0,-6.38716 -2.20035,-11.7687 -6.61405,-16.1576 -4.4137,-4.37588 -9.82004,-6.57623 -16.2202,-6.57623 -6.43797,0 -11.8821,2.20035 -16.3466,6.57623 -4.45151,4.38888 -6.68968,9.77041 -6.68968,16.1576 0,6.36234 2.23816,11.732 6.68968,16.1198 4.46451,4.37588 9.90867,6.57623 16.3466,6.57623z"/>
   <path id="_202692840" class="fil2" d="M554.979 2.0999l23.7654 51.8299 -4.17499 0 -8.13491 -17.7919 -25.1232 0 -8.1361 17.7919 -4.17381 0 23.7643 -51.8299 2.21335 0zm9.94648 30.7186l-11.0904 -24.231 -11.0147 24.231 22.1051 0z"/>
   <path id="_202692840" class="fil2" d="M585.005 2.46387l13.1773 0c5.53278,0 9.75859,1.19471 12.6751,3.59714 2.92947,2.38824 4.38888,5.63323 4.38888,9.70659 0,5.93456 -3.2698,10.1226 -9.79522,12.5238 1.68512,0.804747 3.97292,3.41988 6.85276,7.84658l11.6304 17.7919 -4.67722 0 -8.99047 -14.1085c-2.9921,-4.71504 -5.31889,-7.6575 -6.99102,-8.82622 -1.67212,-1.1699 -4.11236,-1.74775 -7.33135,-1.74775l-6.96502 0 0 24.6824 -3.9741 0 0 -51.466zm3.9741 3.32061l0 20.1435 8.5497 0c4.33807,0 7.6705,-0.868559 9.9583,-2.62813 2.30198,-1.76075 3.44588,-4.23762 3.44588,-7.45661 0,-3.16817 -1.1699,-5.64623 -3.49551,-7.4058 -2.33861,-1.77375 -5.68404,-2.65295 -10.0599,-2.65295l-8.39844 0z"/>
   <path id="_202692840" class="fil2" d="M628.247 2.46387l18.0058 0c9.11692,0 16.0701,2.40242 20.8738,7.19309 4.80248,4.77767 7.20491,10.9769 7.20491,18.5588 0,7.44361 -2.37643,13.5932 -7.12928,18.4335 -4.75403,4.8533 -11.5063,7.28054 -20.2451,7.28054l-18.7101 0 0 -51.466zm3.9741 3.32061l0 44.8259 14.5103 0c6.66368,0 12.2095,-2.03727 16.635,-6.12364 4.43852,-4.09936 6.65186,-9.5187 6.65186,-16.271 0,-6.60105 -2.18735,-11.9956 -6.56324,-16.1706 -4.36407,-4.17381 -10.0221,-6.26072 -16.9753,-6.26072l-14.2586 0z"/>
   <polygon id="_202692840" class="fil2" points="687.986,2.46387 687.986,53.9298 684.012,53.9298 684.012,2.46387 "/>
   <polygon id="_202692840" class="fil2" points="746.078,2.46387 746.078,53.9298 742.771,53.9298 703.678,8.95266 703.678,53.9298 699.704,53.9298 699.704,2.46387 703.087,2.46387 742.104,47.4422 742.104,2.46387 "/>
   <path id="_202692840" class="fil2" d="M801.001 6.18627l0 4.50115c-6.08582,-3.46951 -12.1586,-5.20545 -18.2315,-5.20545 -6.50179,0 -11.9211,2.16254 -16.2462,6.48879 -4.32507,4.32507 -6.47579,9.73141 -6.47579,16.245 0,6.5136 2.13772,11.9199 6.40016,16.2332 4.27544,4.30025 10.0847,6.46279 17.4279,6.46279 5.30589,0 10.0091,-1.05645 14.1085,-3.16817l0 -13.8946 -10.8647 0 0 -3.30643 14.8884 0 0 19.7027c-6.07401,2.89283 -12.1598,4.35107 -18.2835,4.35107 -7.97184,0 -14.6355,-2.52768 -19.9792,-7.59487 -5.34489,-5.05419 -8.00965,-11.3669 -8.00965,-18.937 0,-7.50624 2.61513,-13.7681 7.85839,-18.7597 5.24326,-5.00456 11.8325,-7.50742 19.7665,-7.50742 5.40634,0 11.2913,1.47123 17.6406,4.38888z"/>
   <path id="_202692384" class="fil2" d="M341.068 0.67594l0.0236343 0 0 0.00354514c3.93865,0.00354514 7.59014,0.672395 10.9427,2.00537 0.580221,0.230434 1.12263,0.466777 1.62131,0.704301 2.72385,1.29516 5.23972,3.06064 7.54288,5.28699l0.00354514 0.00472685c2.75221,2.66713 4.82494,5.63441 6.20872,8.89357l0.00118171 -0.00118171c1.38497,3.26153 2.07982,6.81376 2.07982,10.6461l0 0.0212708 -0.00354514 0c-0.00236343,3.82166 -0.698393,7.36207 -2.07982,10.6118 -0.232798,0.54477 -0.478594,1.07063 -0.731481,1.5705 -1.34006,2.63049 -3.16463,5.06246 -5.46306,7.28881l0.00236343 0.00236343 -0.0153623 0.0153623 -0.0177257 0.0118171c-0.763387,0.738571 -1.55986,1.42987 -2.37997,2.07154 -0.817746,0.639307 -1.66385,1.23016 -2.52768,1.76666 -4.45742,2.76166 -9.52815,4.14545 -15.2075,4.14545 -3.93274,0 -7.57715,-0.66885 -10.9297,-2.00537 -3.35134,-1.33652 -6.40134,-3.33598 -9.14173,-5.99838l-0.0129988 -0.00709028 -0.0153623 -0.0153623 0.00354514 -0.00354514c-0.755115,-0.735026 -1.46532,-1.49959 -2.12354,-2.29134 -0.657033,-0.789384 -1.26561,-1.60713 -1.81984,-2.44733 -2.84911,-4.32271 -4.27071,-9.23982 -4.27071,-14.7371 0,-3.82875 0.690121,-7.37625 2.06445,-10.6413 1.37433,-3.26035 3.43406,-6.22881 6.17445,-8.89712 2.74039,-2.66122 5.78921,-4.66304 9.14173,-5.99956 3.35252,-1.33652 6.99692,-2.00537 10.9297,-2.00537zm0.0236343 2.24289l0 0.00472685 -0.0236343 0c-3.66095,0 -7.02883,0.613309 -10.1048,1.83875 -3.07364,1.22544 -5.87784,3.06891 -8.40434,5.52333 -2.52414,2.45796 -4.41724,5.17945 -5.67341,8.16091 -1.2538,2.97555 -1.88011,6.23472 -1.88011,9.77277 0,5.06128 1.29634,9.56833 3.89256,13.5093 0.504592,0.764568 1.06354,1.51496 1.66976,2.24407 0.603855,0.72439 1.26561,1.43696 1.97582,2.12827l0.0141806 0.00709028 0.0153623 0.0153623 -0.00236343 0.00354514c2.52178,2.44851 5.32362,4.28726 8.39253,5.51151 3.076,1.22544 6.44388,1.83875 10.1048,1.83875 5.25981,0 9.93939,-1.26916 14.0305,-3.80275 0.794111,-0.493956 1.57286,-1.03754 2.32679,-1.62722 0.743298,-0.582585 1.47714,-1.22071 2.18853,-1.90492l-0.00236343 -0.00354514 0.0153623 -0.0153623 0.0177257 -0.0118171c2.11763,-2.04791 3.79684,-4.28489 5.02937,-6.70859 0.246978,-0.484502 0.472685,-0.96546 0.670031,-1.42987 1.26561,-2.97437 1.90374,-6.2229 1.90492,-9.73259l-0.00354514 0 0 -0.0212708c0,-3.53569 -0.63458,-6.79131 -1.89665,-9.76686l0 -0.00590857c-1.26325,-2.97792 -3.16463,-5.69704 -5.70295,-8.15737l-0.00118171 0.00118171c-2.12236,-2.05145 -4.44324,-3.67867 -6.95438,-4.87339 -0.516409,-0.246978 -1.01391,-0.464413 -1.48069,-0.651124 -3.089,-1.2278 -6.46397,-1.84465 -10.1178,-1.84702zm0.126443 46.875l0.0224526 0 0 0.00354514c3.04173,-0.00118171 5.85303,-0.528226 8.42207,-1.57168 0.867378,-0.353332 1.69694,-0.756297 2.47687,-1.20653 1.60004,-0.920555 3.10791,-2.081 4.51178,-3.47306 2.09872,-2.08809 3.67276,-4.40779 4.71622,-6.95202 1.04463,-2.54777 1.56813,-5.34016 1.56813,-8.3748l-0.00354514 0c0,-3.05709 -0.522317,-5.86012 -1.56459,-8.40671 -1.04109,-2.54659 -2.61631,-4.86866 -4.71622,-6.95675l-0.00590857 0 -0.0153623 -0.0153623 0.00236343 -0.00236343c-1.04936,-1.03873 -2.16017,-1.95101 -3.32061,-2.72739 -1.14981,-0.769295 -2.37288,-1.41569 -3.65977,-1.93801 -2.56668,-1.04109 -5.37916,-1.56459 -8.43389,-1.56459 -3.07718,0 -5.91093,0.523499 -8.49652,1.56459 -2.58323,1.03873 -4.94074,2.60568 -7.0631,4.68786 -2.11645,2.08454 -3.70703,4.40661 -4.76585,6.96029 -1.05645,2.54896 -1.58704,5.3508 -1.58704,8.39844l0 0.0212708 -0.00354514 0c0.00118171,3.02164 0.536498,5.81285 1.59413,8.35944 0.167803,0.399419 0.354514,0.809474 0.560132,1.22189 1.03045,2.068 2.43315,3.97765 4.20217,5.71949l0.00827199 0.00472685 0.0153623 0.0153623 -0.00236343 0.00236343c0.588493,0.573131 1.20062,1.11554 1.83756,1.62131 0.63458,0.50341 1.28689,0.96546 1.94746,1.38024 3.42106,2.14835 7.33726,3.22844 11.7533,3.22844zm0.0224526 2.24289l0 0.00354514 -0.0224526 0c-4.8403,0 -9.15473,-1.19708 -12.948,-3.57941 -0.739753,-0.464413 -1.45823,-0.973732 -2.14835,-1.52086 -0.68303,-0.541225 -1.35661,-1.13681 -2.01482,-1.78202l-0.0141806 -0.00709028 -0.0153623 -0.0153623 0.00236343 -0.00236343c-1.94983,-1.92383 -3.49787,-4.02964 -4.6335,-6.31035 -0.217435,-0.43487 -0.424235,-0.891012 -0.620399,-1.36252 -1.17108,-2.81484 -1.76075,-5.89084 -1.76312,-9.21973l-0.00354514 0 0 -0.0212708c0,-3.33952 0.589675,-6.42734 1.76193,-9.25872 1.17226,-2.82902 2.93065,-5.39688 5.26453,-7.69768 2.33743,-2.29252 4.94192,-4.02019 7.80285,-5.17236 2.85975,-1.15099 5.9712,-1.72885 9.32963,-1.72885 3.34661,0 6.43916,0.577858 9.27763,1.72885 1.4086,0.571949 2.76403,1.29398 4.06155,2.16135 1.28689,0.859106 2.50878,1.86238 3.6574,2.99919l0.00590857 0 0.0141806 0.0153623 -0.00236343 0.00236343c2.31025,2.29607 4.04619,4.8663 5.20663,7.70004 1.15926,2.83375 1.73948,5.9192 1.73948,9.25045l-0.00354514 0c0,3.32889 -0.57904,6.40489 -1.73594,9.22682 -1.15926,2.82548 -2.89874,5.39098 -5.20899,7.68941 -1.53623,1.52323 -3.19535,2.79948 -4.97501,3.82284 -0.906374,0.522317 -1.82457,0.97255 -2.74867,1.34833 -2.82784,1.14863 -5.92157,1.72766 -9.26581,1.73003zm84.3082 -49.5693l0 51.4672 0 1.12381 -1.12263 0 -3.30762 0 -0.506955 0 -0.340333 -0.391147 -37.1247 -42.713 0 41.9804 0 1.12381 -1.12263 0 -3.97292 0 -1.12263 0 -0.00118171 -1.12381 0 -51.4672 0 -1.12381 1.12381 0 3.38206 0 0.508137 0 0.33797 0.391147 37.0503 42.7083 0 -41.9756 0 -1.12381 1.12381 0 3.97292 0 1.12381 0 -0.00118171 1.12381zm-2.24644 50.3445l0 -49.2219 -1.72648 0 0 43.8557 0 3.00392 -1.96992 -2.27125 -38.6822 -44.5884 -1.75012 0 0 49.2219 1.72648 0 0 -43.8569 0 -2.99919 1.96992 2.26653 38.7555 44.5896 1.67685 0zm13.0568 -51.4683l10.7264 0 0.0366331 0 0 0.00354514c2.90347,0.00236343 5.46897,0.313154 7.68704,0.928827 0.361604,0.0992639 0.722027,0.211527 1.07063,0.328516l0.00472685 0c1.81038,0.614491 3.37852,1.45942 4.69613,2.52768l0.00945371 0.00827199 0.0106354 0.00827199 0.00472685 0.00472685c0.438416,0.359241 0.847288,0.738571 1.22307,1.13326 0.387602,0.407691 0.739753,0.831926 1.05291,1.26443 1.63549,2.25589 2.45442,4.99865 2.45442,8.22l0 0.0153623 -0.00354514 0c-0.00236343,2.69076 -0.681849,5.08964 -2.03373,7.18127 -0.212708,0.329698 -0.453778,0.661759 -0.713755,0.992639 -0.821291,1.03754 -1.82811,1.98882 -3.00982,2.84911 2.96256,0.959551 5.29526,2.35988 6.98511,4.20926 2.18381,2.39061 3.27807,5.47251 3.27807,9.24691 0,2.2488 -0.428962,4.28135 -1.27861,6.09646 -0.852015,1.82102 -2.1259,3.40924 -3.81339,4.75403 -1.66503,1.32234 -3.62195,2.31261 -5.8613,2.97083l-0.00472685 0c-2.21099,0.646397 -4.69377,0.971368 -7.44361,0.971368l0 -0.00354514 -15.0775 0 -1.12381 0 0 -1.12026 0 -51.4672 0 -1.12381 1.12381 0zm10.7264 2.24644l-9.60378 0 0 49.2254 13.9549 0 0 -0.00354514c2.55368,0 4.82612,-0.293065 6.81612,-0.874468l0 -0.00118171c1.95928,-0.574313 3.65977,-1.4346 5.09791,-2.57613 1.41687,-1.12972 2.47923,-2.44615 3.18117,-3.94574 0.704301,-1.50314 1.05882,-3.22135 1.05882,-5.14872 0,-3.20244 -0.895739,-5.78212 -2.68131,-7.7355 -1.82102,-1.99355 -4.60514,-3.39624 -8.34053,-4.20808l-2.95546 -0.642852 2.66122 -1.44051c1.9321,-1.047 3.45297,-2.27125 4.5555,-3.66449 0.204436,-0.259977 0.402964,-0.536498 0.590857,-0.827199 1.11199,-1.71939 1.67094,-3.71176 1.67212,-5.96056l-0.00354514 0 0 -0.0153623c0,-2.73921 -0.67594,-5.04237 -2.02427,-6.90357 -0.265885,-0.366331 -0.555405,-0.714937 -0.860287,-1.03636 -0.316699,-0.334425 -0.661759,-0.653487 -1.02573,-0.952461l-0.00590857 -0.00590857 -0.00472685 -0.00472685 -0.00118171 0.00118171c-1.1049,-0.894557 -2.43906,-1.60831 -4.00364,-2.14008l0 -0.00118171c-0.304882,-0.102809 -0.622763,-0.200891 -0.950097,-0.291883 -2.029,-0.562496 -4.39716,-0.84847 -7.09146,-0.849652l0 0.00354514 -0.0366331 0zm-5.61668 3.32061l0 18.2752 4.39716 0 0.0200891 0 0 0.00354514c4.42552,-0.00118171 7.71304,-0.788203 9.85431,-2.35161l-0.00118171 -0.00118171c2.02782,-1.48187 3.04882,-3.73658 3.05237,-6.75467l-0.00354514 0 0 -0.0224526c0,-3.04528 -1.02809,-5.3118 -3.08073,-6.7984 -2.1649,-1.56813 -5.49379,-2.35043 -9.97957,-2.35043l-4.25889 0zm-2.24644 19.3978l0 -20.5216 0 -1.12381 1.12263 0 5.3827 0c4.9691,0 8.73522,0.927645 11.2972,2.78175 2.67067,1.93565 4.00955,4.80721 4.00955,8.61469l0 0.0224526 -0.00354514 0c-0.00472685,3.77912 -1.33061,6.63768 -3.96701,8.56269l-0.00354514 0c-2.53241,1.85056 -6.2619,2.78175 -11.1743,2.78412l0 0.00354514 -0.0200891 0 -5.52096 0 -1.12263 0 0 -1.12381zm2.24644 4.46806l0 18.7148 9.52697 0 0.0354514 0 0 0.00472685c2.07273,-0.00118171 3.89965,-0.226889 5.46897,-0.670031l0 -0.00118171c0.301337,-0.0874468 0.550678,-0.164258 0.731481,-0.226889 1.18644,-0.412418 2.20862,-0.97255 3.05709,-1.67685 1.01036,-0.836653 1.76902,-1.81157 2.26771,-2.91765 0.505773,-1.11672 0.75866,-2.38706 0.75866,-3.81339l0 -0.0141806 0.00354514 0c-0.00236343,-3.10554 -1.10845,-5.42997 -3.31471,-6.96265 -2.33152,-1.62131 -5.90148,-2.43669 -10.7004,-2.44142l0 0.00472685 -0.0425417 0 -7.79222 0zm-2.24644 19.8386l0 -20.9624 0 -1.12381 1.12263 0 8.91603 0 0.0425417 0 0 0.00354514c5.27517,0.00590857 9.27409,0.953643 11.9814,2.83611 2.8432,1.97582 4.26953,4.91475 4.27308,8.80731l0.00354514 0 0 0.0141806c0,1.74421 -0.320244,3.32416 -0.959551,4.73513 -0.642852,1.42396 -1.60358,2.66713 -2.88102,3.72594 -1.04818,0.867378 -2.30198,1.55513 -3.75194,2.06091l-0.00472685 0c-0.329698,0.114626 -0.613309,0.205618 -0.850834,0.272976l-0.00354514 0c-1.75366,0.49632 -3.78621,0.748025 -6.07873,0.750388l0 0.00354514 -0.0354514 0 -10.6508 0 -1.12263 0 0 -1.12381zm62.1735 -49.9392l0.0236343 0 0 0.00354514c3.93983,0.00354514 7.59014,0.672395 10.9427,2.00537 0.57904,0.230434 1.12263,0.466777 1.62131,0.704301 2.72385,1.29516 5.23972,3.06064 7.54288,5.28699l0.00354514 0.00472685c2.75221,2.66713 4.82375,5.63441 6.20754,8.89357l0.00236343 -0.00118171c1.38379,3.26153 2.07982,6.81376 2.07982,10.6461l0 0.0212708 -0.00354514 0c-0.00236343,3.82166 -0.698393,7.36207 -2.081,10.6118 -0.231616,0.54477 -0.477412,1.07063 -0.730299,1.5705 -1.34006,2.63049 -3.16463,5.06128 -5.46306,7.28881l0.00236343 0.00236343 -0.0153623 0.0153623 -0.0177257 0.0118171c-0.763387,0.738571 -1.55986,1.42987 -2.37997,2.07154 -0.817746,0.639307 -1.66385,1.23016 -2.52887,1.76666 -4.45624,2.76166 -9.52697,4.14545 -15.2063,4.14545 -3.93274,0 -7.57715,-0.66885 -10.9308,-2.00537 -3.35134,-1.33652 -6.39898,-3.33716 -9.14055,-5.99838l-0.0141806 -0.00709028 -0.0141806 -0.0153623 0.00354514 -0.00236343c-0.755115,-0.733844 -1.46532,-1.50078 -2.12354,-2.29252 -0.657033,-0.789384 -1.2668,-1.60713 -1.81984,-2.44733 -2.84911,-4.32271 -4.27071,-9.23982 -4.27071,-14.7371 0,-3.82875 0.688939,-7.37625 2.06563,-10.6413 1.37315,-3.26153 3.43288,-6.22881 6.17327,-8.89712 2.74039,-2.66122 5.78803,-4.66304 9.14055,-5.99956 3.3537,-1.33652 6.99811,-2.00537 10.9308,-2.00537zm0.0236343 2.24289l0 0.00472685 -0.0236343 0c-3.66095,0 -7.03001,0.613309 -10.1048,1.83875 -3.07482,1.22544 -5.87548,3.06891 -8.40434,5.52333 -2.52532,2.45796 -4.41724,5.18063 -5.67222,8.16091 -1.2538,2.97437 -1.88129,6.23472 -1.88129,9.77277 0,5.06128 1.29634,9.56833 3.89256,13.5093 0.504592,0.764568 1.06354,1.51496 1.66976,2.24407 0.603855,0.72439 1.26443,1.43696 1.97582,2.12827l0.0141806 0.00709028 0.0153623 0.0153623 -0.00236343 0.00354514c2.52296,2.44733 5.32244,4.28726 8.39253,5.51151 3.07482,1.22544 6.44388,1.83875 10.1048,1.83875 5.25981,0 9.93939,-1.26916 14.0293,-3.80275 0.795293,-0.493956 1.57404,-1.03754 2.32798,-1.62722 0.744479,-0.583766 1.47478,-1.22189 2.18735,-1.90729l-0.00236343 -0.00118171 0.0153623 -0.0153623 0.0189074 -0.0118171c2.11763,-2.04791 3.79684,-4.28489 5.02937,-6.70859 0.246978,-0.484502 0.472685,-0.96546 0.670031,-1.42987 1.26561,-2.97437 1.90374,-6.2229 1.90492,-9.73259l-0.00472685 0 0 -0.0212708c0,-3.53569 -0.633398,-6.79131 -1.89665,-9.76686l0 -0.00590857c-1.26207,-2.97792 -3.16581,-5.69468 -5.70295,-8.15619 -2.12236,-2.05145 -4.44324,-3.67867 -6.95438,-4.87339 -0.51759,-0.246978 -1.01391,-0.464413 -1.48069,-0.651124 -3.089,-1.2278 -6.46397,-1.84465 -10.1178,-1.84702zm0.126443 46.875l0.0224526 0 0 0.00354514c3.04173,-0.00118171 5.85303,-0.528226 8.42207,-1.57168 0.869741,-0.353332 1.69812,-0.756297 2.47687,-1.20653 1.60122,-0.920555 3.10909,-2.081 4.5106,-3.47306 2.10109,-2.08691 3.67395,-4.40661 4.7174,-6.95202 1.04463,-2.54777 1.56813,-5.34016 1.56813,-8.3748l-0.00354514 0c0,-3.05709 -0.522317,-5.86012 -1.56459,-8.40671 -1.04227,-2.54777 -2.61513,-4.86748 -4.7174,-6.95675l-0.00472685 0 -0.0153623 -0.0153623 0.00236343 -0.00236343c-1.04936,-1.03873 -2.16017,-1.95101 -3.32061,-2.72739 -1.14981,-0.769295 -2.37288,-1.41569 -3.65977,-1.93801 -2.56668,-1.04109 -5.37916,-1.56459 -8.43389,-1.56459 -3.07718,0 -5.91093,0.523499 -8.49652,1.56459 -2.58441,1.03873 -4.94074,2.60568 -7.06428,4.68786 -2.11409,2.08454 -3.70585,4.40661 -4.76467,6.96029 -1.05645,2.54896 -1.58704,5.3508 -1.58704,8.39844l0 0.0212708 -0.00354514 0c0.00118171,3.02164 0.535316,5.81285 1.59413,8.35944 0.166622,0.399419 0.354514,0.809474 0.55895,1.22189 1.03164,2.06918 2.43433,3.97765 4.20217,5.71949l0.00945371 0.00472685 0.0153623 0.0153623 -0.00236343 0.00236343c0.587312,0.573131 1.20062,1.11672 1.83756,1.62131 0.63458,0.50341 1.28689,0.96546 1.94746,1.38024 3.42106,2.14835 7.33726,3.22844 11.7533,3.22844zm0.0224526 2.24289l0 0.00354514 -0.0224526 0c-4.8403,0 -9.15473,-1.19708 -12.948,-3.57941 -0.738571,-0.463232 -1.45823,-0.973732 -2.14835,-1.52086 -0.68303,-0.541225 -1.35661,-1.13681 -2.01482,-1.78202l-0.0141806 -0.00709028 -0.0153623 -0.0153623 0.00236343 -0.00236343c-1.94983,-1.92383 -3.49669,-4.02964 -4.63468,-6.31035 -0.216254,-0.43487 -0.424235,-0.891012 -0.620399,-1.36252 -1.1699,-2.81484 -1.75957,-5.89084 -1.76193,-9.21973l-0.00472685 0 0 -0.0212708c0,-3.33952 0.589675,-6.42734 1.76312,-9.25872 1.17344,-2.82902 2.93183,-5.39688 5.26453,-7.69768 2.33861,-2.29252 4.94192,-4.02019 7.80285,-5.17236 2.85975,-1.15099 5.9712,-1.72885 9.32963,-1.72885 3.34661,0 6.43916,0.577858 9.27763,1.72885 1.4086,0.571949 2.76403,1.29398 4.06155,2.16135 1.28689,0.859106 2.50878,1.86238 3.6574,2.99919l0.00472685 0 0.0153623 0.0153623 -0.00236343 0.00236343c2.31143,2.29607 4.04619,4.8663 5.20663,7.70004 1.15926,2.83375 1.73948,5.9192 1.73948,9.25045l-0.00354514 0c0,3.32889 -0.580221,6.40489 -1.73594,9.22682 -1.15808,2.82429 -2.8952,5.38979 -5.20899,7.68941 -1.53505,1.52205 -3.19417,2.79948 -4.97383,3.82284 -0.905192,0.521136 -1.82338,0.97255 -2.75103,1.34833 -2.82784,1.14863 -5.92038,1.72766 -9.26463,1.73003zm54.438 -50.4001l23.7666 51.8335 0.726754 1.58822 -1.74421 0 -4.17499 0 -0.7173 0 -0.300155 -0.658214 -7.83594 -17.136 -23.6898 0 -7.83476 17.136 -0.301337 0.658214 -0.716118 0 -4.17617 0 -1.74539 0 0.727935 -1.58822 23.7666 -51.8335 0.301337 -0.658214 0.716118 0 2.21335 0 0.713755 0 0.3037 0.658214zm21.0026 51.1753l-22.7362 -49.5871 -0.781112 0 -22.7362 49.5871 1.7123 0 7.83476 -17.136 0.301337 -0.658214 0.7173 0 25.122 0 0.716118 0 0.302519 0.658214 7.83594 17.136 1.71112 0zm-13.819 -21.1137l-9.34026 -20.4094 -9.27763 20.4094 18.6179 0zm-8.32753 -23.5728l11.0904 24.231 0.726754 1.58822 -1.74421 0 -22.1063 0 -1.74421 0 0.720845 -1.58468 11.0159 -24.231 1.01627 -2.23816 1.02455 2.23462zm30.155 -6.77831l13.1785 0 0 -0.00354514c2.86565,0 5.4087,0.313154 7.62087,0.940644 2.26062,0.639307 4.18445,1.61186 5.76558,2.9141l0.00472685 0.00472685 0.00709028 0.00709028 0.00354514 -0.00354514c0.432507,0.354514 0.849652,0.740934 1.24198,1.15217 0.38642,0.405328 0.742116,0.829563 1.06,1.26325 1.65676,2.25825 2.48278,4.98092 2.48278,8.14909l0 0.0189074 -0.00354514 0c-0.00236343,2.56786 -0.577858,4.84975 -1.72294,6.83267 -0.278884,0.482139 -0.595583,0.950097 -0.943007,1.39797l-0.00354514 0.00590857c-1.42515,1.83047 -3.41161,3.33952 -5.95111,4.52714l0.0307245 0.0283611c1.52441,1.37906 3.34779,3.69522 5.46542,6.94611l0.00118171 -0.00118171 11.6316 17.7942 1.13444 1.73712 -2.07391 0 -4.67722 0 -0.610946 0 -0.333243 -0.522317 -8.99047 -14.1085 -0.00354514 0c-1.48896,-2.34688 -2.7983,-4.2329 -3.92092,-5.65213 -1.09545,-1.3826 -2.01718,-2.33861 -2.76403,-2.85975 -0.71021,-0.49632 -1.61422,-0.876831 -2.70258,-1.13563 -1.13563,-0.269431 -2.46505,-0.405328 -3.9871,-0.405328l-5.84357 0 0 23.5598 0 1.12381 -1.12263 0 -3.9741 0 -1.12381 0 0 -1.12381 0 -51.4672 0 -1.12026 1.12381 0zm13.1785 2.23935l-12.0558 0 0 49.2254 1.72766 0 0 -23.561 0 -1.12263 1.12381 0 6.9662 0c1.69694,0 3.1989,0.155986 4.50351,0.465595 1.35306,0.321426 2.51114,0.818927 3.46715,1.48778 0.925282,0.646397 2.00419,1.75012 3.23908,3.30762 1.20298,1.52086 2.55723,3.46833 4.06037,5.8353l-0.00236343 0.00118171 8.65605 13.5862 1.99119 0 -10.4948 -16.0571 0 -0.00354514c-2.01364,-3.09373 -3.71294,-5.2669 -5.08964,-6.51006 -0.239888,-0.216254 -0.478594,-0.411236 -0.713755,-0.576676 -0.202073,-0.144169 -0.393511,-0.261159 -0.563677,-0.34506l-0.016544 -0.00709028 -2.46033 -1.13681 2.54423 -0.934735c3.07364,-1.1309 5.3638,-2.66595 6.86575,-4.59332 0.282429,-0.363968 0.542406,-0.75157 0.77284,-1.14863 0.945371,-1.63549 1.4216,-3.54278 1.42278,-5.70886l-0.00354514 0 0 -0.0189074c0,-2.68485 -0.681849,-4.96438 -2.04436,-6.82439 -0.268249,-0.365149 -0.560132,-0.716118 -0.87565,-1.04463 -0.308427,-0.321426 -0.658214,-0.644034 -1.03991,-0.957188l-0.00590857 -0.00945371 -0.00945371 -0.00709028c-1.33534,-1.10018 -2.98737,-1.92856 -4.9502,-2.48396 -2.00891,-0.569586 -4.3487,-0.854379 -7.01465,-0.854379l0 -0.00354514zm-8.08528 3.32416l0 17.8959 7.43061 0 0.0378148 0 0 0.00472685c2.05736,-0.00118171 3.87484,-0.209163 5.43943,-0.621581 0.259977,-0.0697211 0.506955,-0.141806 0.732662,-0.215072 1.18999,-0.384057 2.21453,-0.904011 3.06536,-1.55868l0.00354514 -0.00354514c1.00327,-0.76575 1.75366,-1.68749 2.2488,-2.76166 0.50341,-1.08836 0.753933,-2.35634 0.753933,-3.80512l0 -0.0200891 0.00354514 0c-0.00118171,-1.40624 -0.261159,-2.65649 -0.77284,-3.74012 -0.0839016,-0.178439 -0.173712,-0.349787 -0.263522,-0.505773l0 -0.00354514c-0.488048,-0.846107 -1.16162,-1.59531 -2.016,-2.24053l0 -0.00472685c-1.04582,-0.79293 -2.33979,-1.39442 -3.87602,-1.79857 -1.57286,-0.414781 -3.40924,-0.621581 -5.50678,-0.621581l-7.28054 0zm-2.23935 19.0197l0 -20.1435 0 -1.12381 1.12026 0 8.39962 0c2.27598,0 4.3038,0.233979 6.07755,0.700756 1.81393,0.477412 3.36552,1.20771 4.65477,2.18499l0.00236343 -0.00472685c1.08718,0.821291 1.95692,1.79502 2.60095,2.9141l0.00118171 -0.00118171c0.129988,0.223344 0.249342,0.449051 0.353332,0.671213 0.652306,1.37906 0.982004,2.94837 0.984367,4.69731l0.00472685 0 0 0.0200891c0,1.76902 -0.321426,3.35134 -0.966641,4.74458 -0.648761,1.4086 -1.62486,2.6104 -2.92238,3.60304l0 -0.00118171c-1.05882,0.811837 -2.30907,1.45114 -3.74485,1.91556 -0.285975,0.0921736 -0.570768,0.177257 -0.847288,0.249342 -1.74421,0.459686 -3.75194,0.690121 -6.01019,0.693666l0 0.00354514 -0.0378148 0 -8.5497 0 -1.12026 0 0 -1.12381zm40.3898 -24.5867l18.0081 0c4.67131,0 8.81204,0.622763 12.4163,1.86593l0.00118171 -0.00472685c3.6385,1.2538 6.72159,3.14099 9.24572,5.65922l0.00472685 0 0.0153623 0.0153623 -0.00236343 0.00236343c0.704301,0.700756 1.36015,1.43342 1.95928,2.18617 0.596765,0.750388 1.15453,1.54214 1.66622,2.36697 2.59504,4.18917 3.89493,9.12401 3.89493,14.7844l0 0.024816 -0.00354514 0c-0.00236343,3.85357 -0.622763,7.38453 -1.8612,10.5822 -0.19971,0.51759 -0.421872,1.03282 -0.658214,1.54332l0.00354514 0.00236343c-1.20889,2.5915 -2.8562,4.9502 -4.93483,7.06783l-0.00354514 0.00827199 -0.0153623 0.0153623 -0.00236343 -0.00236343c-0.694847,0.706665 -1.43578,1.36961 -2.21808,1.9841 -0.785839,0.615673 -1.61186,1.18171 -2.4686,1.69103 -4.4007,2.61395 -9.84958,3.92211 -16.336,3.92211l-18.7112 0 -1.12381 0 0 -1.12381 0 -51.4672 0 -1.12381 1.12381 0zm18.0081 2.24644l-16.8843 0 0 49.2219 17.5874 0c6.0811,0 11.1495,-1.20298 15.1945,-3.60659 0.787021,-0.467958 1.53268,-0.978459 2.23226,-1.52559 0.700756,-0.549497 1.37197,-1.15099 2.00419,-1.7962l0.00472685 -0.00945371 0.0141806 -0.0153623 0.00354514 0.00236343c1.88956,-1.92737 3.38797,-4.07455 4.48933,-6.43679l0.00472685 0c0.209163,-0.452596 0.411236,-0.9241 0.596765,-1.40506 1.13799,-2.93892 1.70994,-6.20045 1.71112,-9.77513l-0.00354514 0 0 -0.024816c0,-5.24444 -1.18644,-9.78459 -3.55459,-13.6074 -0.453778,-0.733844 -0.961915,-1.45233 -1.51614,-2.14835 -0.55186,-0.693666 -1.14981,-1.36133 -1.78557,-1.99473l-0.00472685 0 -0.0153623 -0.0153623 0.00236343 -0.00236343c-2.27716,-2.27125 -5.07546,-3.97883 -8.39135,-5.12155l0 -0.00472685c-3.34898,-1.15572 -7.24745,-1.73476 -11.6895,-1.73476zm-12.9102 3.31589l0 42.5854 13.3876 0c3.20244,0 6.12718,-0.485684 8.77068,-1.45942 2.63168,-0.966641 5.00219,-2.42369 7.10564,-4.36643 2.10109,-1.93919 3.67276,-4.18563 4.71385,-6.73695 1.04936,-2.56668 1.57404,-5.47015 1.57404,-8.70923l0 -0.0224526 0.00354514 0c-0.00118171,-3.14336 -0.524681,-5.99956 -1.56577,-8.56151 -0.180802,-0.446688 -0.363968,-0.856742 -0.542406,-1.22189 -1.00091,-2.042 -2.36934,-3.8902 -4.09582,-5.53987l-0.016544 -0.0153623 -0.0118171 -0.0129988c-0.571949,-0.545952 -1.17817,-1.06236 -1.81393,-1.5445 -0.631035,-0.477412 -1.28452,-0.91701 -1.95574,-1.31288l0.00118171 -0.00236343c-3.47896,-2.05027 -7.62087,-3.07482 -12.4198,-3.07482l0 -0.00472685 -13.1347 0zm-2.24762 43.7092l0 -44.8283 0 -1.12026 1.12381 0 14.2586 0 0 -0.00354514c5.19599,0 9.71723,1.1309 13.5554,3.39388l0.00472685 0c0.750388,0.443142 1.47478,0.930008 2.16608,1.45351 0.680667,0.514045 1.34597,1.08481 1.99001,1.70049l0.00236343 -0.00354514 0.016544 0.0153623 0.0129988 0.0141806c1.92383,1.83402 3.4506,3.90202 4.57441,6.19336 0.233979,0.478594 0.440779,0.933553 0.613309,1.36133 1.14744,2.82075 1.72176,5.9582 1.72412,9.40526l0.00354514 0 0 0.0224526c0,3.51323 -0.583766,6.69913 -1.74894,9.55179 -1.17226,2.87038 -2.92829,5.38625 -5.2669,7.54524 -2.32088,2.14363 -4.93956,3.75312 -7.8513,4.82257 -2.89874,1.06591 -6.0811,1.60004 -9.54352,1.60004l-14.5114 0 -1.12381 0 0 -1.12381zm58.015 -48.1477l0 51.4672 -0.00118171 1.12381 -1.12145 0 -3.97292 0 -1.12499 0 0.00118171 -1.12381 0 -51.4672 -0.00118171 -1.12381 1.12499 0 3.97292 0 1.12145 0 0.00118171 1.12381zm-2.24644 50.3445l0 -49.2219 -1.72648 0 0 49.2219 1.72648 0zm60.3418 -50.3445l0 51.4672 0 1.12381 -1.12263 0 -3.30762 0 -0.508137 0 -0.339152 -0.391147 -37.1247 -42.713 0 41.9804 0 1.12381 -1.12263 0 -3.97292 0 -1.12499 0 0.00118171 -1.12381 0 -51.4672 0 -1.12381 1.12381 0 3.38206 0 0.506955 0 0.339152 0.391147 37.0503 42.7083 0 -41.9756 0 -1.12381 1.12381 0 3.97292 0 1.12145 0 0.00118171 1.12381zm-2.24644 50.3445l0 -49.2219 -1.72648 0 0 43.8557 0 3.00392 -1.96992 -2.27125 -38.6822 -44.5884 -1.75012 0 0 49.2219 1.72648 0 0 -43.8569 0 -2.99919 1.96992 2.26653 38.7555 44.5896 1.67685 0zm57.1725 -46.6233l0 4.50233 0 1.93092 -1.67567 -0.957188c-2.95901,-1.68749 -5.91802,-2.95428 -8.87585,-3.79803 -2.93656,-0.839016 -5.87193,-1.25852 -8.80495,-1.25852 -6.18981,0 -11.3456,2.055 -15.4509,6.16027 -2.05854,2.05854 -3.59714,4.36643 -4.61341,6.92011 -1.02573,2.57259 -1.53741,5.41697 -1.53741,8.53079 0,3.11027 0.5105,5.9582 1.52559,8.53552 1.00918,2.55841 2.52768,4.86157 4.54605,6.90711l0.00236343 -0.00236343 0.0153623 0.0153623 0 0.00472685c1.01155,1.01391 2.11172,1.90374 3.2958,2.66122 1.17935,0.753933 2.46505,1.39088 3.85002,1.90374 2.77703,1.03045 5.93929,1.54923 9.4738,1.54923 2.57968,0 5.00219,-0.25525 7.26163,-0.762205 2.02546,-0.452596 3.93274,-1.1179 5.72304,-1.98055l0 -12.0736 -9.74086 0 -1.12263 0 0 -1.12381 0 -3.3088 0 -1.12263 1.12263 0 14.8884 0 1.12381 0 0 1.12263 0 19.7063 0 0.707846 -0.640489 0.306064c-3.10672,1.47832 -6.2229,2.59504 -9.34735,3.33834 -3.13154,0.745661 -6.27135,1.12145 -9.41944,1.12145l-0.024816 0 0 -0.00472685c-4.12063,-0.00236343 -7.91157,-0.659396 -11.361,-1.9711l0.00118171 -0.00118171c-0.553042,-0.210345 -1.11081,-0.445506 -1.66622,-0.698393 -2.80775,-1.28216 -5.37798,-3.02873 -7.70241,-5.23144l0.00118171 -0.00236343c-2.78412,-2.6364 -4.87575,-5.60605 -6.26899,-8.90185 -1.3956,-3.29698 -2.09281,-6.91775 -2.09281,-10.8446l0 -0.0212708 0.00354514 0c0.00236343,-3.90202 0.686575,-7.48615 2.05027,-10.7441 0.21389,-0.512864 0.459686,-1.03991 0.726754,-1.57168l0 -0.00354514c1.33061,-2.64231 3.14336,-5.05537 5.42997,-7.23209l0.0129988 -0.0141806 0.016544 -0.0153623 0.00118171 0.00118171c0.75866,-0.722027 1.54804,-1.39797 2.3587,-2.01955 0.817746,-0.625126 1.66858,-1.20298 2.54659,-1.72885 4.49287,-2.69431 9.69478,-4.04382 15.6022,-4.04382l0.0283611 0 0 0.00354514c2.79239,0.00354514 5.70295,0.384057 8.72341,1.13681l0.00472685 0c0.518772,0.128807 1.01391,0.26234 1.48069,0.394692 2.5265,0.722027 5.15345,1.7123 7.87021,2.96019l0.658214 0.3037 0 0.713755zm-2.24644 2.61868l0 -1.89429c-2.35515,-1.05172 -4.65595,-1.90138 -6.89648,-2.54187 -0.502228,-0.141806 -0.973732,-0.269431 -1.41097,-0.37933l0 -0.00118171c-2.84911,-0.709028 -5.58005,-1.06945 -8.18336,-1.07181l0 0.00472685 -0.0283611 0c-5.50088,0 -10.3199,1.2408 -14.4535,3.71885 -0.801202,0.480957 -1.58113,1.01155 -2.33507,1.58704 -0.755115,0.57904 -1.48896,1.20535 -2.18971,1.8742l-0.0118171 0.0141806 -0.016544 0.0153623 -0.00118171 -0.00118171c-2.08927,1.99001 -3.74367,4.19626 -4.95847,6.60578l-0.00118171 -0.00118171c-0.225707,0.450233 -0.446688,0.930008 -0.655851,1.42869 -1.25262,2.98973 -1.88129,6.28671 -1.88247,9.88267l0.00354514 0 0 0.0212708c0,3.63968 0.636943,6.96738 1.90965,9.97602 1.27389,3.01455 3.19063,5.73367 5.74431,8.15028l0.00472685 0c2.14481,2.03255 4.5106,3.63968 7.08792,4.81903 0.488048,0.222162 1.00091,0.436052 1.53032,0.638125l0.00472685 0c3.20008,1.21598 6.72395,1.82693 10.561,1.82929l0 -0.00472685 0.024816 0c2.97437,0 5.94284,-0.354514 8.90185,-1.06 2.75576,-0.655851 5.50678,-1.62486 8.25781,-2.88693l0 -17.8616 -12.6408 0 0 1.06118 9.74086 0 1.12381 -0.00118171 0 1.12499 0 13.8946 0 0.679485 -0.610946 0.316699c-2.13299,1.10018 -4.42315,1.92619 -6.86812,2.47333 -2.44142,0.548315 -5.02701,0.822472 -7.75322,0.822472 -3.8063,0 -7.22736,-0.564859 -10.2549,-1.68867 -1.51141,-0.55895 -2.93656,-1.27034 -4.27189,-2.12354 -1.32943,-0.849652 -2.55841,-1.84229 -3.67986,-2.9661l-0.00236343 0.00236343 -0.0153623 -0.0153623 -0.00354514 -0.00945371c-2.23698,-2.26298 -3.92092,-4.82257 -5.04473,-7.66932 -1.11554,-2.83139 -1.67567,-5.95111 -1.67567,-9.3509 0,-3.39979 0.563677,-6.51951 1.69458,-9.35562 1.13799,-2.85738 2.83966,-5.41934 5.10618,-7.68468 4.54369,-4.54369 10.2301,-6.8173 17.0403,-6.8173 3.13981,0 6.28081,0.447869 9.41825,1.34479 2.56314,0.731481 5.12509,1.76666 7.69177,3.10082z"/>
   <path id="_202691784" class="fil3" d="M826.992 30.6135l6.30917 0c2.41188,0 4.26244,0.542406 5.54342,1.62131 1.28689,1.08599 1.92974,2.55723 1.92974,4.42552 0,1.89074 -0.648761,3.38915 -1.94628,4.49169 -1.29161,1.10136 -3.18826,1.65558 -5.69468,1.65558l-4.37352 0 0 10.7004 -1.76784 0 0 -22.8945zm1.76784 1.47596l0 9.241 4.26244 0c1.91319,0 3.36197,-0.402964 4.35698,-1.21362 0.996184,-0.805928 1.49369,-1.94628 1.49369,-3.42342 0,-1.40978 -0.486866,-2.52768 -1.45942,-3.35607 -0.973732,-0.833108 -2.36697,-1.24789 -4.17854,-1.24789l-4.47515 0z"/>
   <path id="_202691784" class="fil3" d="M844.137 30.6135l5.86248 0c2.46151,0 4.34043,0.530589 5.63795,1.60004 1.30343,1.06236 1.95219,2.50523 1.95219,4.31798 0,2.63995 -1.45351,4.50233 -4.35698,5.5706 0.749206,0.358059 1.76784,1.52205 3.04882,3.49078l5.17354 7.91512 -2.081 0 -3.99892 -6.27608c-1.33179,-2.09754 -2.36579,-3.40688 -3.11027,-3.92683 -0.743298,-0.519954 -1.82929,-0.777567 -3.26035,-0.777567l-3.09963 0 0 10.9805 -1.76784 0 0 -22.8945zm1.76784 1.47596l0 8.96093 3.80394 0c1.92974,0 3.41161,-0.385239 4.43024,-1.16871 1.02336,-0.782294 1.53268,-1.88483 1.53268,-3.31707 0,-1.40978 -0.519954,-2.51114 -1.55513,-3.29462 -1.03991,-0.788203 -2.52887,-1.18053 -4.47515,-1.18053l-3.73658 0z"/>
   <path id="_202691784" class="fil3" d="M874.008 30.3169c3.38325,0 6.25363,1.14154 8.6076,3.41751 2.35515,2.28189 3.53569,5.05655 3.53569,8.33462 0,3.26626 -1.18053,6.04092 -3.53569,8.31808 -2.35397,2.27598 -5.22435,3.41751 -8.6076,3.41751 -3.37852,0 -6.23708,-1.14154 -8.5816,-3.41751 -2.34334,-2.27716 -3.51205,-5.05182 -3.51205,-8.31808 0,-3.27807 1.16871,-6.05274 3.51205,-8.33462 2.34452,-2.27598 5.20308,-3.41751 8.5816,-3.41751zm0.0661759 21.8487c2.84793,0 5.25272,-0.978459 7.21672,-2.92592 1.96283,-1.95219 2.94128,-4.34043 2.94128,-7.17064 0,-2.84202 -0.978459,-5.23617 -2.94128,-7.18836 -1.96401,-1.94628 -4.36879,-2.92474 -7.21672,-2.92474 -2.86329,0 -5.2858,0.978459 -7.27108,2.92474 -1.98055,1.95219 -2.97555,4.34634 -2.97555,7.18836 0,2.8302 0.995003,5.21845 2.97555,7.17064 1.98528,1.94746 4.40779,2.92592 7.27108,2.92592z"/>
   <path id="_202692312" class="fil2" d="M826.997 29.4908l6.31153 0 0.0342697 0 0 0.00354514c1.30461,0.00236343 2.47214,0.157168 3.4896,0.45496 0.184347,0.0543588 0.359241,0.111081 0.509318,0.16544l-0.00118171 0.00236343c0.854379,0.308427 1.60477,0.731481 2.23462,1.26443 0.77284,0.651124 1.36015,1.43105 1.75012,2.32679 0.38642,0.883922 0.57904,1.87065 0.57904,2.95428l0 0.0212708 -0.00354514 0c-0.00236343,1.0919 -0.197346,2.08218 -0.580221,2.9661l0.00236343 0.00118171 -0.00590857 0.00827199c-0.0602674,0.145351 -0.132352,0.28952 -0.207982,0.430144l0.00236343 0.00118171 -0.00472685 0.00827199 0 0.00118171c-0.380512,0.719663 -0.898102,1.35779 -1.54804,1.90965l-0.00118171 -0.00118171c-0.76575,0.652306 -1.70167,1.14272 -2.80302,1.46178 -1.05882,0.308427 -2.26534,0.46205 -3.61486,0.46205l-3.25089 0 0 9.57897 0 1.12026 -1.12263 0 -1.76902 0 -1.12263 0 0 -1.12026 0 -22.8969 0 -1.12381 1.12263 0zm2.88811 3.72476l0 6.99811 3.14218 0 0 -0.00354514c0.861469,0 1.60358,-0.0874468 2.22517,-0.259977 0.569586,-0.157168 1.04582,-0.392329 1.4216,-0.699574l0.00945371 -0.00472685c0.713755,-0.577858 1.073,-1.42987 1.073,-2.55014 0,-1.07063 -0.355696,-1.9061 -1.06,-2.50641l-0.00590857 0c-0.362786,-0.310791 -0.820109,-0.549497 -1.36606,-0.711391 -0.587312,-0.174894 -1.28452,-0.26234 -2.08454,-0.26234l-3.35488 0zm14.2586 -3.72476l5.86366 0c1.32943,0 2.51823,0.147714 3.55932,0.441961l0.00354514 0c1.08363,0.308427 2.01482,0.782294 2.78766,1.41687l0.00472685 0.00472685 0.00709028 0.00590857 0.00236343 -0.00236343c0.198528,0.161895 0.402964,0.354514 0.607401,0.570768 0.202073,0.21389 0.381693,0.424235 0.525862,0.623945l-0.00118171 0c0.809474,1.10963 1.21362,2.4426 1.21362,3.98119l0.00354514 0 0 0.0189074 -0.00354514 0c-0.00236343,1.25262 -0.288338,2.3717 -0.852015,3.34543 -0.13826,0.237524 -0.29661,0.471504 -0.470322,0.693666 -0.541225,0.693666 -1.24434,1.28925 -2.10345,1.78793 0.57904,0.642852 1.22544,1.51377 1.93565,2.6045l0.00118171 -0.00118171 5.17354 7.91512 1.13326 1.73357 -2.07154 0 -2.081 0 -0.614491 0 -0.329698 -0.518772 -4.0001 -6.27726 -0.00354514 0c-0.655851,-1.034 -1.22544,-1.86002 -1.70167,-2.46033l-0.00236343 0.00236343c-0.453778,-0.571949 -0.823654,-0.959551 -1.10018,-1.15335 -0.252887,-0.177257 -0.583766,-0.315517 -0.984367,-0.411236l-0.00118171 0.00354514c-0.457323,-0.106354 -1.00327,-0.163076 -1.63431,-0.163076l-1.97582 0 0 9.85785 0 1.12026 -1.12263 0 -1.76902 0 -1.12263 0 0 -1.12026 0 -22.8969 0 -1.12381 1.12263 0zm2.89165 3.72476l0 6.71331 2.68013 0c0.876831,0 1.63549,-0.0850834 2.27243,-0.250523 0.595583,-0.155986 1.08954,-0.384057 1.47478,-0.681849l0.00472685 -0.00354514c0.362786,-0.276521 0.635762,-0.609764 0.811837,-0.995003 0.184347,-0.397056 0.276521,-0.876831 0.276521,-1.43105l0 -0.0200891 0.00472685 0c-0.00236343,-0.525862 -0.0980822,-0.992639 -0.288338,-1.39206l-0.0886285 -0.168985 -0.00472685 -0.0129988c-0.170167,-0.297792 -0.417145,-0.569586 -0.730299,-0.805928 -0.404146,-0.306064 -0.909919,-0.540043 -1.50787,-0.697211 -0.642852,-0.168985 -1.4086,-0.254068 -2.29134,-0.254068l-2.61395 0zm26.9832 -4.02137l0.0224526 0 0 0.00354514c1.82929,0.00236343 3.5286,0.315517 5.09082,0.93828 0.516409,0.2068 1.02455,0.450233 1.51968,0.727935l0.00118171 -0.00236343c0.978459,0.549497 1.89783,1.24198 2.75576,2.07273 1.28689,1.24553 2.25471,2.63404 2.90229,4.15727 0.649942,1.5315 0.976095,3.19299 0.976095,4.98092l0 0.0212708 -0.00472685 0c-0.00236343,1.78321 -0.328516,3.4376 -0.974913,4.95729l0 0.00354514c-0.0909919,0.211527 -0.2068,0.453778 -0.348605,0.731481l0.00590857 0.00236343c-0.623945,1.22307 -1.4736,2.35634 -2.54423,3.39388l0.00236343 0.00236343 -0.0153623 0.0153623 -0.0177257 0.0129988c-0.633398,0.609764 -1.30816,1.14863 -2.01955,1.61304l0.00118171 0.00354514c-0.705483,0.460868 -1.45942,0.850834 -2.2488,1.16517 -1.57286,0.622763 -3.27571,0.937099 -5.10382,0.937099 -1.82575,0 -3.52623,-0.313154 -5.092,-0.937099 -1.56695,-0.625126 -2.99446,-1.56222 -4.27071,-2.80302l-0.0141806 -0.00709028 -0.0153623 -0.0153623 0.00472685 -0.00236343c-0.348605,-0.339152 -0.677122,-0.694847 -0.982004,-1.06236 -0.306064,-0.368695 -0.59322,-0.752751 -0.849652,-1.14508 -1.33061,-2.02427 -1.99473,-4.32271 -1.99473,-6.88703l-0.00472685 0c0,-1.78439 0.322608,-3.44233 0.970187,-4.97619 0.64167,-1.52677 1.60595,-2.91647 2.88574,-4.16199 1.27743,-1.2408 2.70376,-2.1779 4.27071,-2.80184 1.56577,-0.623945 3.26626,-0.93828 5.092,-0.93828zm0.0661759 21.8522l0.0212708 0 0 0.00354514c1.2668,-0.00118171 2.43669,-0.223344 3.50733,-0.657033l0.00118171 0.00354514c0.164258,-0.0661759 0.334425,-0.142987 0.506955,-0.226889l0 -0.00354514c0.863832,-0.421872 1.66267,-0.995003 2.39061,-1.71703 0.87565,-0.869741 1.53032,-1.83284 1.96164,-2.88811 0.431325,-1.05054 0.647579,-2.21571 0.647579,-3.48842 0,-1.28216 -0.216254,-2.45087 -0.646397,-3.50378l-0.00118171 0c-0.431325,-1.05645 -1.08718,-2.02073 -1.96164,-2.89165l-0.00472685 0 -0.0153623 -0.0153623 0.00236343 -0.00236343c-0.256432,-0.250523 -0.508137,-0.478594 -0.756297,-0.67594 -0.24107,-0.192619 -0.512864,-0.385239 -0.80711,-0.570768l0.00236343 -0.00118171c-1.40269,-0.885103 -3.02046,-1.33179 -4.84857,-1.33179l-0.0224526 0 0 -0.00354514c-1.27389,0.00118171 -2.45206,0.223344 -3.52978,0.659396l-0.00590857 0c-0.17962,0.0709028 -0.350969,0.148896 -0.512864,0.225707 -0.867378,0.419508 -1.67567,0.995003 -2.41542,1.72057 -0.880376,0.868559 -1.54214,1.83402 -1.98055,2.89283 -0.437234,1.05527 -0.657033,2.22398 -0.657033,3.49787 0,1.26561 0.219799,2.4296 0.657033,3.48369 0.438416,1.05645 1.10018,2.02073 1.98055,2.88811l0.00945371 0.00472685 0.0153623 0.0153623 -0.00236343 0.00354514c0.251705,0.245796 0.509318,0.472685 0.759842,0.671213l0.00472685 0c0.278884,0.219799 0.549497,0.4136 0.80711,0.574313 1.41451,0.885103 3.04528,1.33297 4.89229,1.33297z"/>
  </g>
 </g>
</svg>
