<?xml version="1.0" encoding="UTF-8"?>
<!DOCTYPE svg PUBLIC "-//W3C//DTD SVG 1.1//EN" "http://www.w3.org/Graphics/SVG/1.1/DTD/svg11.dtd">
<!-- Creator: CorelDRAW -->
<svg xmlns="http://www.w3.org/2000/svg" xml:space="preserve" width="1925px" height="221px" style="shape-rendering:geometricPrecision; text-rendering:geometricPrecision; image-rendering:optimizeQuality; fill-rule:evenodd; clip-rule:evenodd"
viewBox="0 0 1925 221.311">
 <defs>
  <style type="text/css">
   <![CDATA[
    .fil0 {fill:black}
    .fil1 {fill:white}
    .fil2 {fill:#1F66B0;fill-rule:nonzero}
   ]]>
  </style>
 </defs>
 <g id="Layer_x0020_1">
  <metadata id="CorelCorpID_0Corel-Layer"/>
  <g id="_235625264">
   <rect id="_235624688" class="fil0" x="-3.33219e-005" width="1925" height="221.312"/>
   <g>
    <path id="_235625240" class="fil1" d="M711.072 70.4743c-5.18904,0.0909529 -9.45319,-4.13422 -9.34807,-9.57131 -0.105127,-5.43473 4.16139,-9.56659 9.34807,-9.50399 5.1536,-0.0626039 9.44256,4.07044 9.35752,9.50399 0.0850468,5.43709 -4.20391,9.66227 -9.35752,9.57131m0 -17.8622c-4.56772,0 -8.03929,3.44676 -8.03929,8.29325 -0.0897717,4.85003 3.52708,8.45035 8.03929,8.3594 4.54174,0 8.00149,-3.45148 8.00149,-8.3594 0,-4.84885 -3.45975,-8.29325 -8.00149,-8.29325m4.28542 13.8237l-1.67613 0 -2.17933 -4.35156 -2.24075 0 0 4.35156 -1.52966 0 0 -10.9675 4.26297 0c2.22894,0 3.59559,1.24263 3.59559,3.26604 0,1.73755 -0.956777,2.88569 -2.54904,3.22942l2.31635 4.47205zm-3.54834 -9.60084l-2.48644 0 0 3.91688 2.48644 0c1.44107,0 2.2372,-0.745341 2.2372,-2.0175 0,-1.27807 -0.733529,-1.89938 -2.2372,-1.89938z"/>
    <g>
     <path id="_235625216" class="fil1" d="M397.117 74.6392l46.4131 0 0 -23.1481 -46.4131 0c-34.6188,0 -54.0591,16.7578 -54.0591,49.0567l0 1.03237 0 20.7219 0 1.03828c0,32.2942 19.4403,49.052 54.0591,49.052l46.4131 -0.00118121 0 -23.1457 -46.4131 0c-18.5851,0 -27.9674,-8.45862 -27.9674,-26.9421l0 -20.7207c0,-18.4847 9.38232,-26.9433 27.9674,-26.9433z"/>
     <rect id="_235624760" class="fil1" x="290.87" y="51.48" width="26.0954" height="120.902"/>
     <path id="_235624856" class="fil1" d="M545.009 127.314c19.1036,-4.14958 30.1869,-17.4003 30.1869,-36.745 0,-23.3158 -16.5416,-39.0778 -42.6333,-39.0778l-62.9335 -0.00118121 0 23.1363 26.0928 0 7.6743 0 26.2618 0c13.1362,0 19.4438,5.40402 19.4438,15.5907 0,10.195 -6.99156,15.9439 -19.1013,15.9439l-26.6043 0.00118121 -7.6743 0 -26.0928 0 0 66.2231 26.0928 0 0 -43.0833 21.5358 0 27.2374 43.0833 29.6743 0 -29.1604 -44.7335 0 -0.337825 0 0z"/>
     <polygon id="_235624832" class="fil1" points="601.097,51.477 691.313,51.477 691.313,74.6215 627.192,74.6215 627.192,100.378 671.734,100.378 671.734,123.52 627.192,123.52 627.192,149.235 691.145,149.235 691.145,172.381 601.097,172.381 "/>
     <path id="_235624568" class="fil1" d="M21.8204 51.4876l26.0999 0 0 73.2312c0,18.6501 9.37523,27.1146 27.9639,27.1146 18.5875,0 27.9698,-8.46334 27.9698,-26.9445l0 -73.4002 26.0893 0 0 74.4384c0,32.293 -19.4427,49.052 -54.0591,49.052 -34.6212,0 -54.0638,-16.759 -54.0638,-49.052l0 -74.4396 0 0z"/>
     <path id="_235624064" class="fil1" d="M264.778 172.39l-26.0976 0 0 -73.236c0,-18.6548 -9.37523,-27.1146 -27.9651,-27.1146 -18.5886,0 -27.971,8.45862 -27.971,26.9445l0 73.4061 -26.0893 0 0 -74.4467c0,-32.2942 19.4427,-49.0484 54.0614,-49.0484 34.6212,0 54.0626,16.7542 54.0626,49.0484l0 74.4467 -0.00118121 0z"/>
    </g>
   </g>
   <path id="_235624208" class="fil2" d="M817.317 49.7335c18.4552,0 33.8203,5.83043 46.0954,17.4937 12.2456,11.6916 18.3973,26.3267 18.3973,43.9078 0,17.6106 -6.21078,32.1595 -18.5721,43.7046 -12.392,11.5168 -28.0194,17.2893 -46.8537,17.2893 -17.9886,0 -33.0041,-5.77255 -44.9874,-17.2893 -11.9833,-11.5451 -17.9602,-26.0066 -17.9602,-43.355 0,-17.8433 6.03596,-32.5659 18.1067,-44.2574 12.0696,-11.6632 27.3189,-17.4937 45.7741,-17.4937zm0.670925 16.2109c-13.6453,0 -24.8998,4.28542 -33.675,12.8279 -8.80589,8.54248 -13.2082,19.4474 -13.2082,32.7123 0,12.8586 4.40236,23.558 13.2366,32.1005 8.83424,8.54366 19.8844,12.8291 33.1506,12.8291 13.324,0 24.4321,-4.37283 33.3537,-13.0618 8.92165,-8.7173 13.3535,-19.5631 13.3535,-32.567 0,-12.6247 -4.43189,-23.2662 -13.3535,-31.8961 -8.92165,-8.62989 -19.8549,-12.9448 -32.8576,-12.9448z"/>
   <polygon id="_235624208" class="fil2" points="997.527,51.4238 1013.77,51.4238 1013.77,170.759 999.073,170.759 919.303,78.9471 919.303,170.759 903.238,170.759 903.238,51.4238 917.058,51.4238 997.527,144.023 "/>
   <path id="_235624208" class="fil2" d="M1079.72 170.759l-40.4102 0 0 -119.335 31.2547 0c9.8548,0 17.5515,1.34185 23.0619,3.96531 5.53986,2.65417 9.73905,6.29819 12.6543,10.9332 2.91522,4.66576 4.34448,10.0296 4.34448,16.1235 0,11.7211 -6.06431,20.1171 -18.1941,25.1904 8.71848,1.66196 15.6569,5.2481 20.8176,10.7584 5.16069,5.53986 7.72627,12.1286 7.72627,19.8265 0,6.09384 -1.57455,11.5168 -4.69411,16.2983 -3.1491,4.78152 -7.72627,8.68777 -13.7906,11.7199 -6.06431,3.00263 -13.6736,4.5193 -22.7701,4.5193zm-8.62989 -104.115l-14.6954 0 0 35.8614 11.3715 0c9.09647,0 15.5683,-1.71984 19.4178,-5.21857 3.84837,-3.4692 5.77255,-7.96015 5.77255,-13.4705 0,-11.4577 -7.28922,-17.1724 -21.8665,-17.1724zm1.28279 51.0813l-15.9782 0 0 37.8435 16.8227 0c9.35988,0 15.6864,-0.728804 19.0103,-2.18641 3.32391,-1.45761 6.00525,-3.73143 8.04638,-6.79312 2.01159,-3.09122 3.03216,-6.3856 3.03216,-9.91268 0,-3.6452 -1.07844,-6.96912 -3.20697,-10.0013 -2.15688,-3.00263 -5.18904,-5.2481 -9.09647,-6.73406 -3.93578,-1.48714 -10.1466,-2.21594 -18.63,-2.21594z"/>
   <path id="_235624208" class="fil2" d="M1196.4 49.7335c18.4552,0 33.8203,5.83043 46.0954,17.4937 12.2456,11.6916 18.3973,26.3267 18.3973,43.9078 0,17.6106 -6.21078,32.1595 -18.5721,43.7046 -12.392,11.5168 -28.0194,17.2893 -46.8537,17.2893 -17.9886,0 -33.0041,-5.77255 -44.9874,-17.2893 -11.9833,-11.5451 -17.9602,-26.0066 -17.9602,-43.355 0,-17.8433 6.03596,-32.5659 18.1067,-44.2574 12.0696,-11.6632 27.3189,-17.4937 45.7741,-17.4937zm0.670925 16.2109c-13.6453,0 -24.8998,4.28542 -33.675,12.8279 -8.80589,8.54248 -13.2082,19.4474 -13.2082,32.7123 0,12.8586 4.40236,23.558 13.2366,32.1005 8.83424,8.54366 19.8844,12.8291 33.1506,12.8291 13.324,0 24.4321,-4.37283 33.3537,-13.0618 8.92165,-8.7173 13.3535,-19.5631 13.3535,-32.567 0,-12.6247 -4.43189,-23.2662 -13.3535,-31.8961 -8.92165,-8.62989 -19.8549,-12.9448 -32.8576,-12.9448z"/>
   <path id="_235624208" class="fil2" d="M1312.9 50.7541l12.0412 0 53.3834 120.005 -17.522 0 -15.8896 -35.3653 -50.7316 0 -15.0155 35.3653 -17.522 0 51.2561 -120.005zm25.0156 69.449l-19.2135 -43.2381 -17.8433 43.2381 37.0568 0z"/>
   <path id="_235624208" class="fil2" d="M1392 170.759l0 -119.335 29.8845 0c12.0707,0 21.6633,3.00381 28.7482,8.98071 7.08488,5.9769 10.6415,14.0528 10.6415,24.2573 0,6.93959 -1.74937,12.9448 -5.21857,18.0181 -3.4692,5.07328 -8.45507,8.86377 -14.9564,11.3715 3.81884,2.50652 7.55027,5.91784 11.1955,10.2328 3.64402,4.34448 8.77518,11.8664 15.3651,22.6544 4.16848,6.76359 7.49239,11.8664 10.0001,15.2777l6.32654 8.54248 -20.3215 0 -5.21857 -7.87156c-0.174819,-0.263409 -0.524456,-0.758334 -1.02056,-1.42926l-3.32391 -4.69411 -5.30598 -8.7173 -5.71468 -9.33035c-3.52826,-4.89728 -6.76477,-8.77518 -9.70833,-11.6916 -2.9164,-2.91522 -5.56939,-4.98469 -7.93062,-6.26748 -2.36241,-1.28279 -6.35607,-1.92418 -11.9255,-1.92418l-4.4307 0 0 51.9258 -17.0861 0zm22.1878 -104.814l-5.10163 0 0 37.6687 6.47183 0c8.65942,0 14.6068,-0.728804 17.815,-2.21594 3.23532,-1.48714 5.71349,-3.70308 7.52192,-6.70571 1.80725,-2.97428 2.68252,-6.3856 2.68252,-10.2044 0,-3.76096 -0.992213,-7.17228 -2.97428,-10.2044 -2.01159,-3.06169 -4.81105,-5.19022 -8.42554,-6.44348 -3.61567,-1.25326 -9.59258,-1.89465 -17.9898,-1.89465z"/>
   <path id="_235624208" class="fil2" d="M1497.31 170.584l0 -119.16 40.2354 0c16.2392,0 29.0683,2.44982 38.5144,7.31875 9.44611,4.86893 16.968,12.0117 22.5669,21.4873 5.56821,9.44729 8.36767,19.7391 8.36767,30.9051 0,7.9885 -1.5462,15.599 -4.6067,22.8871 -3.09122,7.28922 -7.46404,13.7032 -13.1787,19.2147 -5.80209,5.71349 -12.5373,10.0001 -20.2341,12.9153 -4.48976,1.74937 -8.62989,2.94475 -12.3909,3.52826 -3.76096,0.611865 -10.9332,0.903623 -21.5169,0.903623l-37.7573 0zm38.427 -103.94l-21.342 0 0 88.7499 21.8677 0c8.54248,0 15.1608,-0.583516 19.9128,-1.74937 4.72364,-1.16585 8.65942,-2.65299 11.8085,-4.46023 3.17744,-1.7789 6.06431,-3.99484 8.68777,-6.6183 8.42673,-8.54366 12.6247,-19.3304 12.6247,-32.3639 0,-12.8279 -4.31495,-23.2662 -12.9744,-31.3421 -3.17744,-3.03216 -6.851,-5.51033 -10.9628,-7.43451 -4.14013,-1.95372 -8.04638,-3.23651 -11.7495,-3.84837 -3.70308,-0.641395 -9.65045,-0.933153 -17.8728,-0.933153z"/>
   <polygon id="_235624208" class="fil2" points="1628.51,51.4238 1645.6,51.4238 1645.6,170.759 1628.51,170.759 "/>
   <polygon id="_235624208" class="fil2" points="1766.89,51.4238 1783.13,51.4238 1783.13,170.759 1768.43,170.759 1688.66,78.9471 1688.66,170.759 1672.6,170.759 1672.6,51.4238 1686.42,51.4238 1766.89,144.023 "/>
   <path id="_235624208" class="fil2" d="M1873.16 111.981l40.0594 0 0 50.5852c-14.6942,6.35607 -29.2715,9.56305 -43.733,9.56305 -19.7675,0 -35.5413,-5.77255 -47.3487,-17.2893 -11.838,-11.5451 -17.7275,-25.7739 -17.7275,-42.6841 0,-17.8138 6.12337,-32.6544 18.3689,-44.4913 12.216,-11.8369 27.5812,-17.7854 46.0363,-17.7854 6.70571,0 13.0913,0.728804 19.1261,2.18759 6.03478,1.45761 13.6736,4.1106 22.8871,7.9885l0 17.4346c-14.2276,-8.25073 -28.3678,-12.3909 -42.3628,-12.3909 -13.0322,0 -24.0246,4.43189 -32.9757,13.324 -8.95,8.89212 -13.4114,19.797 -13.4114,32.7123 0,13.5579 4.46142,24.6364 13.4114,33.238 8.95118,8.60036 20.4384,12.887 34.5208,12.887 6.82265,0 14.986,-1.57455 24.5195,-4.69411l1.60408 -0.524456 0 -24.8408 -22.9745 0 0 -15.2198z"/>
  </g>
 </g>
</svg>
