<?xml version="1.0" encoding="utf-8"?>
<!-- Generator: Adobe Illustrator 13.0.0, SVG Export Plug-In . SVG Version: 6.00 Build 14948)  -->
<!DOCTYPE svg PUBLIC "-//W3C//DTD SVG 1.1//EN" "http://www.w3.org/Graphics/SVG/1.1/DTD/svg11.dtd">
<svg version="1.1" id="Layer_1" xmlns="http://www.w3.org/2000/svg" xmlns:xlink="http://www.w3.org/1999/xlink" x="0px" y="0px"
	 width="48px" height="48px" viewBox="0 0 48 48" style="enable-background:new 0 0 48 48;" xml:space="preserve">
<style type="text/css">
<![CDATA[
	.st0{fill:#FFFFFF;stroke:#F9F9F9;}
]]>
</style>
<path class="st0" d="M22.05,23c-2.1,0-3.883-0.733-5.35-2.2c-1.467-1.466-2.2-3.233-2.2-5.3c0-2.1,0.733-3.875,2.2-5.325
	C18.167,8.725,19.933,8,22,8c2.1,0,3.875,0.725,5.325,2.175c1.45,1.45,2.175,3.208,2.175,5.275c0,2.1-0.725,3.883-2.175,5.35
	C25.875,22.267,24.117,23,22.05,23z M22,20c1.267,0,2.333-0.441,3.2-1.325c0.866-0.883,1.3-1.941,1.3-3.175
	c0-1.267-0.434-2.333-1.3-3.2c-0.867-0.866-1.917-1.3-3.15-1.3c-1.267,0-2.341,0.434-3.225,1.3c-0.883,0.867-1.325,1.917-1.325,3.15
	c0,1.267,0.442,2.341,1.325,3.225C19.708,19.559,20.767,20,22,20z M43.85,45.95L37.9,40c-0.768,0.566-1.559,0.959-2.375,1.175
	C34.709,41.392,33.867,41.5,33,41.5c-2.367,0-4.375-0.825-6.025-2.475C25.325,37.375,24.5,35.367,24.5,33s0.825-4.375,2.475-6.025
	C28.625,25.325,30.633,24.5,33,24.5s4.375,0.825,6.025,2.475C40.675,28.625,41.5,30.633,41.5,33c0,0.867-0.108,1.709-0.325,2.525
	C40.959,36.342,40.566,37.133,40,37.9l5.95,5.949c0.3,0.301,0.45,0.65,0.45,1.051c0,0.399-0.15,0.75-0.45,1.05S45.3,46.4,44.9,46.4
	C44.5,46.4,44.15,46.25,43.85,45.95z M33,38.5c1.566,0,2.875-0.525,3.925-1.575S38.5,34.566,38.5,33s-0.525-2.875-1.575-3.925
	S34.566,27.5,33,27.5s-2.875,0.525-3.925,1.575S27.5,31.434,27.5,33s0.525,2.875,1.575,3.925S31.434,38.5,33,38.5z M23.9,40H9
	c-0.833,0-1.542-0.291-2.125-0.875S6,37.834,6,37v-1.7c0-1.233,0.292-2.283,0.875-3.149C7.458,31.283,8.3,30.566,9.4,30
	c1.567-0.767,3.608-1.492,6.125-2.175c2.517-0.684,5.075-0.942,7.675-0.775c-0.267,0.434-0.517,0.909-0.75,1.425
	C22.217,28.992,22.033,29.5,21.9,30c-2.6-0.033-4.867,0.275-6.8,0.925c-1.934,0.65-3.434,1.241-4.5,1.775
	c-0.467,0.267-0.85,0.625-1.15,1.075C9.15,34.225,9,34.733,9,35.3V37h12.9c0.367,0.566,0.7,1.092,1,1.575
	C23.2,39.059,23.533,39.533,23.9,40z"/>
</svg>
