<?xml version="1.0" encoding="utf-8"?>
<!-- Generator: Adobe Illustrator 13.0.0, SVG Export Plug-In . SVG Version: 6.00 Build 14948)  -->
<!DOCTYPE svg PUBLIC "-//W3C//DTD SVG 1.1//EN" "http://www.w3.org/Graphics/SVG/1.1/DTD/svg11.dtd">
<svg version="1.1" id="Layer_1" xmlns="http://www.w3.org/2000/svg" xmlns:xlink="http://www.w3.org/1999/xlink" x="0px" y="0px"
	 width="40px" height="40px" viewBox="0 0 40 40" style="enable-background:new 0 0 40 40;" xml:space="preserve">
<style type="text/css">
<![CDATA[
	.st0{fill:#FFFFFF;stroke:#FFFFFF;}
]]>
</style>
<path class="st0" d="M31.667,23.333c-0.39,0-0.716-0.132-0.979-0.396s-0.396-0.59-0.396-0.979v-3.916h-3.917
	c-0.389,0-0.715-0.132-0.979-0.396C25.132,17.382,25,17.056,25,16.667c0-0.389,0.132-0.716,0.396-0.979
	c0.264-0.264,0.59-0.396,0.979-0.396h3.917v-3.917c0-0.389,0.132-0.715,0.396-0.979S31.277,10,31.667,10
	c0.389,0,0.715,0.132,0.979,0.396c0.264,0.264,0.396,0.59,0.396,0.979v3.917h3.916c0.39,0,0.716,0.132,0.979,0.396
	c0.264,0.263,0.396,0.59,0.396,0.979c0,0.389-0.132,0.715-0.396,0.979s-0.59,0.396-0.979,0.396h-3.916v3.916
	c0,0.39-0.132,0.716-0.396,0.979C32.382,23.201,32.056,23.333,31.667,23.333z M15,19.958c-1.833,0-3.354-0.604-4.562-1.812
	c-1.208-1.208-1.813-2.729-1.813-4.563s0.604-3.354,1.813-4.562C11.646,7.813,13.167,7.208,15,7.208s3.354,0.604,4.562,1.813
	c1.208,1.208,1.813,2.729,1.813,4.562s-0.604,3.354-1.813,4.563C18.354,19.354,16.833,19.958,15,19.958z M3.042,33.333
	c-0.389,0-0.716-0.132-0.98-0.396c-0.263-0.264-0.395-0.59-0.395-0.979v-2.791c0-0.973,0.25-1.854,0.75-2.646
	c0.5-0.793,1.18-1.383,2.041-1.771c1.945-0.889,3.757-1.535,5.438-1.938c1.681-0.403,3.382-0.604,5.104-0.604
	s3.423,0.201,5.104,0.604c1.681,0.402,3.494,1.049,5.438,1.938c0.86,0.416,1.541,1.014,2.041,1.792c0.5,0.777,0.75,1.652,0.75,2.625
	v2.791c0,0.39-0.132,0.716-0.396,0.979s-0.59,0.396-0.979,0.396H3.042z M4.458,30.542h21.084v-1.375c0-0.39-0.097-0.765-0.292-1.125
	c-0.195-0.361-0.486-0.626-0.875-0.792c-1.805-0.889-3.424-1.486-4.854-1.792C18.09,25.152,16.583,25,15,25s-3.09,0.16-4.521,0.479
	c-1.431,0.32-3.049,0.91-4.854,1.771c-0.361,0.166-0.646,0.431-0.854,0.792c-0.208,0.36-0.313,0.735-0.313,1.125V30.542z M15,17.208
	c1.028,0,1.889-0.347,2.583-1.041c0.695-0.695,1.042-1.556,1.042-2.584c0-1.027-0.347-1.888-1.042-2.583
	C16.889,10.305,16.028,9.958,15,9.958S13.111,10.305,12.417,11c-0.695,0.695-1.042,1.556-1.042,2.583
	c0,1.028,0.347,1.889,1.042,2.584C13.111,16.861,13.972,17.208,15,17.208z"/>
</svg>
