<?xml version="1.0" encoding="UTF-8"?>
<!DOCTYPE svg PUBLIC "-//W3C//DTD SVG 1.1//EN" "http://www.w3.org/Graphics/SVG/1.1/DTD/svg11.dtd">
<!-- Creator: CorelDRAW -->
<svg xmlns="http://www.w3.org/2000/svg" xml:space="preserve" width="3019px" height="228px" style="shape-rendering:geometricPrecision; text-rendering:geometricPrecision; image-rendering:optimizeQuality; fill-rule:evenodd; clip-rule:evenodd"
viewBox="0 0 3019 227.724">
 <defs>
  <style type="text/css">
   <![CDATA[
    .str0 {stroke:#1F66B0;stroke-width:2.08354}
    .str1 {stroke:#1F66B0;stroke-width:4.16707}
    .fil6 {fill:none;fill-rule:nonzero}
    .fil0 {fill:#000000} 
    .fil4 {fill:#1D65FE}
    .fil3 {fill:#50E2FF}
    .fil2 {fill:#81FCFE}
    .fil1 {fill:white}
    .fil5 {fill:#1F66B0;fill-rule:nonzero}
   ]]>
  </style>
 </defs>
 <g id="Layer_x0020_1">
  <metadata id="CorelCorpID_0Corel-Layer"/>
  <g id="_269019528">
   <polygon id="_269814992" class="fil0" points="0,227.723 3019,227.723 3019,0 0,0 "/>
   <path id="_269961552" class="fil1" d="M339.982 170.785l0 -34.1823 73.2474 0c9.43733,0 17.0888,7.65144 17.0888,17.0923 0,9.43733 -7.65144,17.0899 -17.0888,17.0899l-73.2474 0zm0 -113.94l73.2474 0c9.43733,0 17.0888,7.65144 17.0888,17.0899 0,9.43969 -7.65144,17.0923 -17.0888,17.0923l-73.2474 0 0 -34.1823zm135.815 13.5489c-1.8414,-33.4594 -30.6329,-59.1256 -64.1455,-59.1256l-117.245 0 0 205.095 117.245 0c33.5126,0 62.3041,-25.6662 64.1455,-59.128 0.908299,-16.5206 -4.58519,-31.7467 -14.2257,-43.4188 9.64048,-11.6756 15.134,-26.9005 14.2257,-43.4223z"/>
   <path id="_269962104" class="fil1" d="M654.482 146.301l-99.4427 -89.455 92.0996 0 21.1554 -45.5756 -131.03 0c-9.00149,0 -17.3073,2.97648 -23.9784,8.01405 -9.65938,7.2782 -15.9029,18.8369 -15.9029,31.8637 0,1.93825 0.140556,3.83753 0.406313,5.69783 1.31697,9.24126 5.81004,17.4703 12.3299,23.5343l100.42 90.4058 -102.577 0 -21.1543 45.5756 141.608 0c8.96487,0 17.2435,-2.96231 23.9016,-7.94909 9.69954,-7.28056 15.9773,-18.877 15.9773,-31.9298 0,-1.93707 -0.139375,-3.83871 -0.405132,-5.69665 -1.39257,-9.73616 -6.30494,-18.3455 -13.4071,-24.4851z"/>
   <polygon id="_269961288" class="fil1" points="260.226,216.36 214.65,216.36 214.65,11.2693 260.226,11.2693 "/>
   <path id="_269961216" class="fil2" d="M34.4433 15.3926l42.5766 38.3044 -58.3413 0 -0.0366154 0c-0.271663,-1.89691 -0.414581,-3.83399 -0.414581,-5.80886 0,-13.2843 6.36518,-25.0733 16.2159,-32.4956z"/>
   <path id="_269960880" class="fil3" d="M192.099 169.886c0.270482,1.8981 0.4134,3.83399 0.4134,5.80886 0,13.3115 -6.40415,25.1371 -16.2939,32.5594l0 -0.0118114 -42.6014 -38.3564 58.4819 0z"/>
   <path id="_269961120" class="fil1" d="M192.099 169.886l-58.4819 0 -102.403 -92.1893c-6.64747,-6.18446 -11.2303,-14.5741 -12.5721,-24.0008l0.0389777 0 58.3378 0 101.408 91.222c7.24277,6.26242 12.252,15.0395 13.6717,24.9682z"/>
   <path id="_269960664" class="fil4" d="M176.219 208.241l0 0.0118114c-6.79157,5.086 -15.2344,8.10854 -24.3741,8.10854l-144.404 0 21.5736 -46.4768 104.602 0 42.6026 38.3564z"/>
   <path id="_269961072" class="fil3" d="M192.511 7.2215l-21.5736 46.4744 -93.9185 0 -42.5743 -38.3044c6.80102,-5.13679 15.2698,-8.16996 24.4496,-8.16996l133.617 0z"/>
   <path id="_269963064" class="fil5" d="M846.09 9.87435c30.1652,0 55.744,10.172 76.7353,30.4652 20.9913,20.3428 31.5117,45.0736 31.5117,74.2915 0,29.1187 -10.5204,53.8495 -31.5117,74.1427 -20.9913,20.2932 -46.5701,30.464 -76.7353,30.464 -30.1156,0 -55.594,-10.1708 -76.4861,-30.464 -20.8909,-20.2932 -31.3121,-45.024 -31.3121,-74.1427 0,-29.2179 10.4212,-53.9487 31.3121,-74.2915 20.892,-20.2932 46.3705,-30.4652 76.4861,-30.4652zm0.598839 194.755c25.378,0 46.8181,-8.72628 64.3191,-26.0773 17.501,-17.4018 26.2273,-38.6919 26.2273,-63.9211 0,-25.3284 -8.72628,-46.6693 -26.2273,-64.0711 -17.501,-17.351 -38.9411,-26.0761 -64.3191,-26.0761 -25.5292,0 -47.1181,8.7251 -64.8187,26.0761 -17.651,17.4018 -26.5261,38.7427 -26.5261,64.0711 0,25.2292 8.8751,46.5193 26.5261,63.9211 17.7006,17.351 39.2895,26.0773 64.8187,26.0773z"/>
   <polygon id="_269963064" class="fil5" points="1176.61,12.5166 1176.61,216.596 1163.5,216.596 1008.49,38.2454 1008.49,216.596 992.729,216.596 992.729,12.5166 1006.14,12.5166 1160.86,190.868 1160.86,12.5166 "/>
   <path id="_269963064" class="fil5" d="M1223.93 12.5166l42.5306 0c22.287,0 39.1903,4.68795 50.7076,14.0119 11.4677,9.37355 17.2022,22.287 17.2022,38.7415 0,19.6448 -9.77277,34.8024 -29.3679,45.422 31.4621,6.83055 47.2173,24.0327 47.2173,51.7057 0,16.5537 -6.1821,29.7164 -18.4979,39.5387 -12.3158,9.77277 -28.9687,14.6592 -50.0096,14.6592l-59.7823 0 0 -204.079zm15.8049 13.1638l0 81.3724 21.8889 0c37.0961,0 55.6944,-13.5631 55.6944,-40.6372 0,-27.1734 -18.7483,-40.7352 -56.2425,-40.7352l-21.3409 0zm0 94.6343l0 83.1182 42.2317 0c17.4018,0 30.6648,-3.7395 39.6887,-11.2185 9.07472,-7.52978 13.6127,-17.5518 13.6127,-30.1168 0,-27.8218 -20.044,-41.7829 -60.1816,-41.7829l-35.3516 0z"/>
   <path id="_269963064" class="fil5" d="M1481.81 9.87435c30.1652,0 55.744,10.172 76.7353,30.4652 20.9913,20.3428 31.5117,45.0736 31.5117,74.2915 0,29.1187 -10.5204,53.8495 -31.5117,74.1427 -20.9913,20.2932 -46.5701,30.464 -76.7353,30.464 -30.1156,0 -55.594,-10.1708 -76.4861,-30.464 -20.8909,-20.2932 -31.3121,-45.024 -31.3121,-74.1427 0,-29.2179 10.4212,-53.9487 31.3121,-74.2915 20.892,-20.2932 46.3705,-30.4652 76.4861,-30.4652zm0.598839 194.755c25.378,0 46.8181,-8.72628 64.3191,-26.0773 17.501,-17.4018 26.2273,-38.6919 26.2273,-63.9211 0,-25.3284 -8.72628,-46.6693 -26.2273,-64.0711 -17.501,-17.351 -38.9411,-26.0761 -64.3191,-26.0761 -25.5292,0 -47.1181,8.7251 -64.8187,26.0761 -17.651,17.4018 -26.5261,38.7427 -26.5261,64.0711 0,25.2292 8.8751,46.5193 26.5261,63.9211 17.7006,17.351 39.2895,26.0773 64.8187,26.0773z"/>
   <path id="_269963064" class="fil5" d="M1694.31 11.0708l94.2363 205.525 -16.5537 0 -32.2594 -70.552 -99.6211 0 -32.2594 70.552 -16.5537 0 94.2363 -205.525 8.77471 0zm39.4395 121.809l-43.9763 -96.08 -43.6775 96.08 87.6538 0z"/>
   <path id="_269963064" class="fil5" d="M1813.38 12.5166l52.2537 0c21.9385,0 38.6919,4.73756 50.26,14.2611 11.6177,9.47276 17.4006,22.3366 17.4006,38.4922 0,23.5331 -12.963,40.1376 -38.8407,49.66 6.68172,3.19145 15.7553,13.5619 27.1734,31.1137l46.1212 70.552 -18.5475 0 -35.6504 -55.9436c-11.8669,-18.6975 -21.0917,-30.3648 -27.7226,-35.002 -6.63093,-4.63717 -16.3045,-6.92976 -29.0691,-6.92976l-27.6222 0 0 97.8754 -15.7564 0 0 -204.079zm15.7564 13.1638l0 79.8759 33.9047 0c17.2022,0 30.4156,-3.44067 39.4903,-10.42 9.12433,-6.98055 13.6611,-16.8029 13.6611,-29.5675 0,-12.565 -4.63717,-22.3874 -13.8607,-29.3679 -9.27433,-7.03016 -22.5374,-10.5204 -39.8884,-10.5204l-33.307 0z"/>
   <path id="_269963064" class="fil5" d="M1984.85 12.5166l71.4001 0c36.1489,0 63.7226,9.52355 82.7686,28.521 19.0471,18.9467 28.5707,43.5275 28.5707,73.5934 0,29.5179 -9.42434,53.8991 -28.2718,73.095 -18.8463,19.2467 -45.6216,28.8695 -80.2752,28.8695l-74.1923 0 0 -204.079zm15.7564 13.1638l0 177.752 57.5394 0c26.4257,0 48.4138,-8.07783 65.9644,-24.2819 17.6014,-16.2549 26.3761,-37.7446 26.3761,-64.5199 0,-26.1765 -8.67549,-47.567 -26.0265,-64.1207 -17.3014,-16.5537 -39.7395,-24.83 -67.3121,-24.83l-56.5413 0z"/>
   <polygon id="_269963064" class="fil5" points="2221.74,12.5166 2221.74,216.596 2205.98,216.596 2205.98,12.5166 "/>
   <polygon id="_269963064" class="fil5" points="2452.09,12.5166 2452.09,216.596 2438.98,216.596 2283.96,38.2454 2283.96,216.596 2268.21,216.596 2268.21,12.5166 2281.62,12.5166 2436.34,190.868 2436.34,12.5166 "/>
   <path id="_269963064" class="fil5" d="M2669.88 27.2761l0 17.8494c-24.1319,-13.7615 -48.2154,-20.6416 -72.2977,-20.6416 -25.7773,0 -47.267,8.57509 -64.4195,25.7276 -17.1514,17.1514 -25.678,38.5915 -25.678,64.4195 0,25.828 8.47588,47.2681 25.3792,64.3699 16.9529,17.0522 39.9876,25.6284 69.1063,25.6284 21.0409,0 39.6887,-4.18833 55.9436,-12.565l0 -55.0956 -43.0798 0 0 -13.113 59.0347 0 0 78.1302c-24.0823,11.4689 -48.2142,17.2518 -72.4962,17.2518 -31.6121,0 -58.0378,-10.022 -79.2287,-30.1156 -21.1909,-20.044 -31.7609,-45.0736 -31.7609,-75.0899 0,-29.766 10.3704,-54.5959 31.1621,-74.3907 20.7928,-19.8444 46.9185,-29.7672 78.3806,-29.7672 21.4401,0 44.7747,5.83366 69.9543,17.4018z"/>
   <path id="_269963064" class="fil6 str0" d="M846.09 9.87435c30.1652,0 55.744,10.172 76.7353,30.4652 20.9913,20.3428 31.5117,45.0736 31.5117,74.2915 0,29.1187 -10.5204,53.8495 -31.5117,74.1427 -20.9913,20.2932 -46.5701,30.464 -76.7353,30.464 -30.1156,0 -55.594,-10.1708 -76.4861,-30.464 -20.8909,-20.2932 -31.3121,-45.024 -31.3121,-74.1427 0,-29.2179 10.4212,-53.9487 31.3121,-74.2915 20.892,-20.2932 46.3705,-30.4652 76.4861,-30.4652zm0.598839 194.755c25.378,0 46.8181,-8.72628 64.3191,-26.0773 17.501,-17.4018 26.2273,-38.6919 26.2273,-63.9211 0,-25.3284 -8.72628,-46.6693 -26.2273,-64.0711 -17.501,-17.351 -38.9411,-26.0761 -64.3191,-26.0761 -25.5292,0 -47.1181,8.7251 -64.8187,26.0761 -17.651,17.4018 -26.5261,38.7427 -26.5261,64.0711 0,25.2292 8.8751,46.5193 26.5261,63.9211 17.7006,17.351 39.2895,26.0773 64.8187,26.0773z"/>
   <polygon id="_269963064" class="fil6 str0" points="1176.61,12.5166 1176.61,216.596 1163.5,216.596 1008.49,38.2454 1008.49,216.596 992.729,216.596 992.729,12.5166 1006.14,12.5166 1160.86,190.868 1160.86,12.5166 "/>
   <path id="_269963064" class="fil6 str0" d="M1223.93 12.5166l42.5306 0c22.287,0 39.1903,4.68795 50.7076,14.0119 11.4677,9.37355 17.2022,22.287 17.2022,38.7415 0,19.6448 -9.77277,34.8024 -29.3679,45.422 31.4621,6.83055 47.2173,24.0327 47.2173,51.7057 0,16.5537 -6.1821,29.7164 -18.4979,39.5387 -12.3158,9.77277 -28.9687,14.6592 -50.0096,14.6592l-59.7823 0 0 -204.079zm15.8049 13.1638l0 81.3724 21.8889 0c37.0961,0 55.6944,-13.5631 55.6944,-40.6372 0,-27.1734 -18.7483,-40.7352 -56.2425,-40.7352l-21.3409 0zm0 94.6343l0 83.1182 42.2317 0c17.4018,0 30.6648,-3.7395 39.6887,-11.2185 9.07472,-7.52978 13.6127,-17.5518 13.6127,-30.1168 0,-27.8218 -20.044,-41.7829 -60.1816,-41.7829l-35.3516 0z"/>
   <path id="_269963064" class="fil6 str0" d="M1481.81 9.87435c30.1652,0 55.744,10.172 76.7353,30.4652 20.9913,20.3428 31.5117,45.0736 31.5117,74.2915 0,29.1187 -10.5204,53.8495 -31.5117,74.1427 -20.9913,20.2932 -46.5701,30.464 -76.7353,30.464 -30.1156,0 -55.594,-10.1708 -76.4861,-30.464 -20.8909,-20.2932 -31.3121,-45.024 -31.3121,-74.1427 0,-29.2179 10.4212,-53.9487 31.3121,-74.2915 20.892,-20.2932 46.3705,-30.4652 76.4861,-30.4652zm0.598839 194.755c25.378,0 46.8181,-8.72628 64.3191,-26.0773 17.501,-17.4018 26.2273,-38.6919 26.2273,-63.9211 0,-25.3284 -8.72628,-46.6693 -26.2273,-64.0711 -17.501,-17.351 -38.9411,-26.0761 -64.3191,-26.0761 -25.5292,0 -47.1181,8.7251 -64.8187,26.0761 -17.651,17.4018 -26.5261,38.7427 -26.5261,64.0711 0,25.2292 8.8751,46.5193 26.5261,63.9211 17.7006,17.351 39.2895,26.0773 64.8187,26.0773z"/>
   <path id="_269963064" class="fil6 str0" d="M1694.31 11.0708l94.2363 205.525 -16.5537 0 -32.2594 -70.552 -99.6211 0 -32.2594 70.552 -16.5537 0 94.2363 -205.525 8.77471 0zm39.4395 121.809l-43.9763 -96.08 -43.6775 96.08 87.6538 0z"/>
   <path id="_269963064" class="fil6 str0" d="M1813.38 12.5166l52.2537 0c21.9385,0 38.6919,4.73756 50.26,14.2611 11.6177,9.47276 17.4006,22.3366 17.4006,38.4922 0,23.5331 -12.963,40.1376 -38.8407,49.66 6.68172,3.19145 15.7553,13.5619 27.1734,31.1137l46.1212 70.552 -18.5475 0 -35.6504 -55.9436c-11.8669,-18.6975 -21.0917,-30.3648 -27.7226,-35.002 -6.63093,-4.63717 -16.3045,-6.92976 -29.0691,-6.92976l-27.6222 0 0 97.8754 -15.7564 0 0 -204.079zm15.7564 13.1638l0 79.8759 33.9047 0c17.2022,0 30.4156,-3.44067 39.4903,-10.42 9.12433,-6.98055 13.6611,-16.8029 13.6611,-29.5675 0,-12.565 -4.63717,-22.3874 -13.8607,-29.3679 -9.27433,-7.03016 -22.5374,-10.5204 -39.8884,-10.5204l-33.307 0z"/>
   <path id="_269963064" class="fil6 str0" d="M1984.85 12.5166l71.4001 0c36.1489,0 63.7226,9.52355 82.7686,28.521 19.0471,18.9467 28.5707,43.5275 28.5707,73.5934 0,29.5179 -9.42434,53.8991 -28.2718,73.095 -18.8463,19.2467 -45.6216,28.8695 -80.2752,28.8695l-74.1923 0 0 -204.079zm15.7564 13.1638l0 177.752 57.5394 0c26.4257,0 48.4138,-8.07783 65.9644,-24.2819 17.6014,-16.2549 26.3761,-37.7446 26.3761,-64.5199 0,-26.1765 -8.67549,-47.567 -26.0265,-64.1207 -17.3014,-16.5537 -39.7395,-24.83 -67.3121,-24.83l-56.5413 0z"/>
   <polygon id="_269963064" class="fil6 str0" points="2221.74,12.5166 2221.74,216.596 2205.98,216.596 2205.98,12.5166 "/>
   <polygon id="_269963064" class="fil6 str0" points="2452.09,12.5166 2452.09,216.596 2438.98,216.596 2283.96,38.2454 2283.96,216.596 2268.21,216.596 2268.21,12.5166 2281.62,12.5166 2436.34,190.868 2436.34,12.5166 "/>
   <path id="_269963064" class="fil6 str0" d="M2669.88 27.2761l0 17.8494c-24.1319,-13.7615 -48.2154,-20.6416 -72.2977,-20.6416 -25.7773,0 -47.267,8.57509 -64.4195,25.7276 -17.1514,17.1514 -25.678,38.5915 -25.678,64.4195 0,25.828 8.47588,47.2681 25.3792,64.3699 16.9529,17.0522 39.9876,25.6284 69.1063,25.6284 21.0409,0 39.6887,-4.18833 55.9436,-12.565l0 -55.0956 -43.0798 0 0 -13.113 59.0347 0 0 78.1302c-24.0823,11.4689 -48.2142,17.2518 -72.4962,17.2518 -31.6121,0 -58.0378,-10.022 -79.2287,-30.1156 -21.1909,-20.044 -31.7609,-45.0736 -31.7609,-75.0899 0,-29.766 10.3704,-54.5959 31.1621,-74.3907 20.7928,-19.8444 46.9185,-29.7672 78.3806,-29.7672 21.4401,0 44.7747,5.83366 69.9543,17.4018z"/>
   <path id="_269960976" class="fil5" d="M2769.74 125.127l25.5517 0c9.76332,0 17.2612,2.19692 22.4488,6.56951 5.21002,4.39385 7.81444,10.3515 7.81444,17.9179 0,7.65617 -2.62804,13.7272 -7.88294,18.1896 -5.23246,4.46236 -12.9122,6.70535 -23.0606,6.70535l-17.7136 0 0 43.3338 -7.15772 0 0 -92.7161zm7.15772 5.98012l0 37.4221 17.2612 0c7.74711,0 13.6138,-1.63116 17.6463,-4.91591 4.03242,-3.26232 6.04745,-7.88294 6.04745,-13.8631 0,-5.70846 -1.97015,-10.2393 -5.91162,-13.5914 -3.94147,-3.37571 -9.58261,-5.05175 -16.921,-5.05175l-18.1223 0z"/>
   <path id="_269960976" class="fil5" d="M2839.17 125.127l23.7398 0c9.96648,0 17.5778,2.15204 22.8327,6.47857 5.27853,4.30408 7.90657,10.1484 7.90657,17.488 0,10.6917 -5.89036,18.2345 -17.6463,22.561 3.03554,1.45044 7.15772,6.16202 12.3453,14.1359l20.9535 32.0527 -8.42745 0 -16.1958 -25.4158c-5.39073,-8.49478 -9.58143,-13.7957 -12.5945,-15.9017 -3.01309,-2.10716 -7.40694,-3.14893 -13.2064,-3.14893l-12.5496 0 0 44.4665 -7.15772 0 0 -92.7161zm7.15772 5.98012l0 36.2894 15.4033 0c7.81562,0 13.8182,-1.56265 17.9416,-4.73402 4.14463,-3.17137 6.20572,-7.6349 6.20572,-13.4331 0,-5.70846 -2.10598,-10.1708 -6.29667,-13.3422 -4.21313,-3.19381 -10.2393,-4.78008 -18.1223,-4.78008l-15.1316 0z"/>
   <path id="_269960976" class="fil5" d="M2960.14 123.927c13.7048,0 25.3249,4.62063 34.8614,13.8406 9.53654,9.24126 14.3166,20.4775 14.3166,33.7511 0,13.2288 -4.78008,24.465 -14.3166,33.6838 -9.53654,9.22 -21.1566,13.8406 -34.8614,13.8406 -13.6824,0 -25.2575,-4.62063 -34.7492,-13.8406 -9.49048,-9.21882 -14.2257,-20.455 -14.2257,-33.6838 0,-13.2737 4.7352,-24.5099 14.2257,-33.7511 9.49166,-9.22 21.0669,-13.8406 34.7492,-13.8406zm0.271663 88.4794c11.5303,0 21.2712,-3.96391 29.2215,-11.8469 7.95145,-7.90539 11.9154,-17.5778 11.9154,-29.0407 0,-11.5067 -3.96391,-21.2027 -11.9154,-29.1081 -7.95027,-7.88294 -17.6912,-11.8469 -29.2215,-11.8469 -11.5976,0 -21.4058,3.96391 -29.4482,11.8469 -8.01878,7.90539 -12.0512,17.6014 -12.0512,29.1081 0,11.463 4.03242,21.1354 12.0512,29.0407 8.0424,7.88294 17.8506,11.8469 29.4482,11.8469z"/>
   <path id="_269960976" class="fil6 str1" d="M2769.74 125.127l25.5517 0c9.76332,0 17.2612,2.19692 22.4488,6.56951 5.21002,4.39385 7.81444,10.3515 7.81444,17.9179 0,7.65617 -2.62804,13.7272 -7.88294,18.1896 -5.23246,4.46236 -12.9122,6.70535 -23.0606,6.70535l-17.7136 0 0 43.3338 -7.15772 0 0 -92.7161zm7.15772 5.98012l0 37.4221 17.2612 0c7.74711,0 13.6138,-1.63116 17.6463,-4.91591 4.03242,-3.26232 6.04745,-7.88294 6.04745,-13.8631 0,-5.70846 -1.97015,-10.2393 -5.91162,-13.5914 -3.94147,-3.37571 -9.58261,-5.05175 -16.921,-5.05175l-18.1223 0z"/>
   <path id="_269960976" class="fil6 str1" d="M2839.17 125.127l23.7398 0c9.96648,0 17.5778,2.15204 22.8327,6.47857 5.27853,4.30408 7.90657,10.1484 7.90657,17.488 0,10.6917 -5.89036,18.2345 -17.6463,22.561 3.03554,1.45044 7.15772,6.16202 12.3453,14.1359l20.9535 32.0527 -8.42745 0 -16.1958 -25.4158c-5.39073,-8.49478 -9.58143,-13.7957 -12.5945,-15.9017 -3.01309,-2.10716 -7.40694,-3.14893 -13.2064,-3.14893l-12.5496 0 0 44.4665 -7.15772 0 0 -92.7161zm7.15772 5.98012l0 36.2894 15.4033 0c7.81562,0 13.8182,-1.56265 17.9416,-4.73402 4.14463,-3.17137 6.20572,-7.6349 6.20572,-13.4331 0,-5.70846 -2.10598,-10.1708 -6.29667,-13.3422 -4.21313,-3.19381 -10.2393,-4.78008 -18.1223,-4.78008l-15.1316 0z"/>
   <path id="_269960976" class="fil6 str1" d="M2960.14 123.927c13.7048,0 25.3249,4.62063 34.8614,13.8406 9.53654,9.24126 14.3166,20.4775 14.3166,33.7511 0,13.2288 -4.78008,24.465 -14.3166,33.6838 -9.53654,9.22 -21.1566,13.8406 -34.8614,13.8406 -13.6824,0 -25.2575,-4.62063 -34.7492,-13.8406 -9.49048,-9.21882 -14.2257,-20.455 -14.2257,-33.6838 0,-13.2737 4.7352,-24.5099 14.2257,-33.7511 9.49166,-9.22 21.0669,-13.8406 34.7492,-13.8406zm0.271663 88.4794c11.5303,0 21.2712,-3.96391 29.2215,-11.8469 7.95145,-7.90539 11.9154,-17.5778 11.9154,-29.0407 0,-11.5067 -3.96391,-21.2027 -11.9154,-29.1081 -7.95027,-7.88294 -17.6912,-11.8469 -29.2215,-11.8469 -11.5976,0 -21.4058,3.96391 -29.4482,11.8469 -8.01878,7.90539 -12.0512,17.6014 -12.0512,29.1081 0,11.463 4.03242,21.1354 12.0512,29.0407 8.0424,7.88294 17.8506,11.8469 29.4482,11.8469z"/>
  </g>
 </g>
</svg>
