<?xml version="1.0" encoding="UTF-8"?>
<!DOCTYPE svg PUBLIC "-//W3C//DTD SVG 1.1//EN" "http://www.w3.org/Graphics/SVG/1.1/DTD/svg11.dtd">
<!-- Creator: CorelDRAW -->
<svg xmlns="http://www.w3.org/2000/svg" xml:space="preserve" width="200px" height="200px" style="shape-rendering:geometricPrecision; text-rendering:geometricPrecision; image-rendering:optimizeQuality; fill-rule:evenodd; clip-rule:evenodd"
viewBox="0 0 200 200">
 <defs>
  <style type="text/css">
   <![CDATA[
    .fil1 {fill:none}
    .fil0 {fill:#1e66b0}
   ]]>
  </style>
 </defs>
 <g id="Layer_x0020_1">
  <metadata id="CorelCorpID_0Corel-Layer"/>
  <path class="fil0" d="M24.8521 170.556l0 -113.953c-1.94911,-0.276923 -3.82604,-1.66982 -5.63669,-4.17515 -1.80828,-2.50414 -2.71243,-5.21893 -2.71243,-8.13964l0 -15.2627c0,-3.2 1.25089,-6.08876 3.75621,-8.66391 2.50533,-2.57278 5.4284,-3.86036 8.76805,-3.86036l141.946 0c3.20118,0 6.09112,1.28757 8.66391,3.86036 2.57278,2.57515 3.86154,5.46391 3.86154,8.66391l0 15.2627c0,2.92071 -0.905325,5.6355 -2.71598,8.13964 -1.80947,2.50533 -3.68521,3.89822 -5.63432,4.17515l0 113.953c0,3.19645 -1.28876,6.15621 -3.86036,8.87219 -2.57278,2.71124 -5.46391,4.06864 -8.66391,4.06864l-125.247 0c-3.33846,0 -6.26154,-1.3574 -8.76686,-4.06864 -2.50533,-2.71598 -3.7574,-5.67574 -3.7574,-8.87219zm12.5243 -113.743l0 114.16 125.247 0 0 -114.16 -125.247 0zm133.596 -12.5243l0 -15.2627 -141.946 0 0 15.2627 141.946 0zm-133.596 126.684l0 -114.16 0 114.16z"/>
  <g id="_202732344">
   <polygon id="_203257520" class="fil1" points="50.8627,66.7787 148.112,66.7787 148.112,164.028 50.8627,164.028 "/>
   <polygon id="_201206888" class="fil0" points="71.1231,107.299 79.226,107.299 79.226,135.664 71.1231,135.664 "/>
   <polygon id="_201205664" class="fil0" points="95.4343,107.299 103.54,107.299 103.54,135.664 95.4343,135.664 "/>
   <polygon id="_201205328" class="fil0" points="140.008,91.0911 99.4876,70.8308 58.9657,91.0911 58.9657,99.1953 140.008,99.1953 "/>
   <path id="_202733736" class="fil0" d="M58.9657 143.768l0 8.10296 50.2473 0c-0.854438,-2.59527 -1.29704,-5.31006 -1.45917,-8.10296l-48.7882 0z"/>
   <polygon id="_202733808" class="fil0" points="127.852,116.457 127.852,107.299 119.748,107.299 119.748,120.508 "/>
   <path id="_202733424" class="fil0" d="M131.903 123.508l-16.2083 8.10296 0 10.3337c0,10.2118 6.93018,19.7716 16.2083,22.084 9.27929,-2.31243 16.2095,-11.8722 16.2095,-22.084l0 -10.3337 -16.2095 -8.10296zm-2.91953 28.3633l-8.22249 -8.22604 4.29704 -4.29349 3.92544 3.92899 9.76686 -9.64379 4.29704 4.29822 -14.0639 13.9361z"/>
  </g>
 </g>
</svg>
