<?xml version="1.0" encoding="UTF-8"?>
<!DOCTYPE svg PUBLIC "-//W3C//DTD SVG 1.1//EN" "http://www.w3.org/Graphics/SVG/1.1/DTD/svg11.dtd">
<!-- Creator: CorelDRAW -->
<svg xmlns="http://www.w3.org/2000/svg" xml:space="preserve" width="200px" height="200px" style="shape-rendering:geometricPrecision; text-rendering:geometricPrecision; image-rendering:optimizeQuality; fill-rule:evenodd; clip-rule:evenodd"
viewBox="0 0 200 200">
 <defs>
  <style type="text/css">
   <![CDATA[
    .fil0 {fill:white}
    .fil1 {fill:white;fill-rule:nonzero}
   ]]>
  </style>
 </defs>
 <g id="Layer_x0020_1">
  <metadata id="CorelCorpID_0Corel-Layer"/>
  <polygon class="fil0" points="135.851,108.601 101.618,74.3669 110.594,65.3917 135.851,90.858 184.698,42.2189 193.467,50.7787 "/>
  <path class="fil0" d="M122.886 187.257l-64.9183 -18.5787 0 11.897 -44.8805 0 0 -82.2438 64.503 0 53.2296 20.0402c3.75503,1.39053 6.92308,3.65325 9.49586,6.78462 2.57633,3.13018 3.86509,7.61538 3.86509,13.4627l23.7929 0c5.84615,0 10.7148,2.08757 14.6118,6.26154 3.89822,4.17515 5.84734,9.80947 5.84734,16.9077l0 5.42722 -65.5467 20.0414zm-97.2746 -19.2059l19.6237 0 0 -57.1964 -19.6237 0 0 57.1964zm96.4391 6.26154l53.4414 -16.2793c-0.835503,-2.64615 -1.87929,-4.45207 -3.13136,-5.43077 -1.25562,-0.970414 -2.71479,-1.45917 -4.38698,-1.45917l-43.2083 0c-4.17515,0 -8.0355,-0.278107 -11.587,-0.835503 -3.54675,-0.55858 -6.92071,-1.32071 -10.1231,-2.29586l-16.9077 -5.21893 4.5929 -12.1089 15.2379 5.01065c3.48166,1.11361 6.78462,1.88047 9.91479,2.29586 3.13136,0.420118 8.10533,0.628402 14.9266,0.628402 0,-1.67219 -0.313609,-3.30296 -0.942012,-4.90533 -0.623669,-1.60237 -1.70414,-2.75148 -3.23314,-3.44497l-51.142 -19.4142 -17.5349 0 0 44.671 64.0828 18.787z"/>
  <polygon class="fil1" points="49.3751,50.1112 49.3751,16.2686 59.6024,16.2686 65.7408,39.3562 71.8083,16.2686 82.0592,16.2686 82.0592,50.1112 75.716,50.1112 75.716,23.471 68.9953,50.1112 62.4154,50.1112 55.7183,23.471 55.7183,50.1112 "/>
  <path class="fil1" d="M110.504 37.6698l6.61893 2.09586c-1.01657,3.69586 -2.70296,6.43787 -5.06627,8.23432 -2.35621,1.78817 -5.35858,2.68639 -8.99053,2.68639 -4.49112,0 -8.18698,-1.53609 -11.0781,-4.60118 -2.89231,-3.07337 -4.34201,-7.27337 -4.34201,-12.5917 0,-5.63432 1.45799,-10.0071 4.36568,-13.1278 2.90651,-3.11243 6.72899,-4.67219 11.4722,-4.67219 4.13609,0 7.50059,1.2213 10.0852,3.67219 1.54438,1.44142 2.69467,3.52189 3.46746,6.23195l-6.76805 1.61538c-0.394083,-1.75621 -1.22959,-3.1432 -2.50651,-4.15976 -1.26864,-1.01657 -2.81302,-1.52071 -4.62485,-1.52071 -2.50533,0 -4.54675,0.898225 -6.10651,2.70296 -1.56095,1.79645 -2.34083,4.71124 -2.34083,8.74556 0,4.27929 0.764497,7.32781 2.30888,9.14083 1.53728,1.82012 3.53846,2.72544 5.99645,2.72544 1.82012,0 3.37988,-0.575148 4.68876,-1.73254 1.30769,-1.15148 2.24497,-2.9716 2.82012,-5.44497z"/>
  <path class="fil1" d="M144.646 37.6698l6.61893 2.09586c-1.01657,3.69586 -2.70296,6.43787 -5.06627,8.23432 -2.35621,1.78817 -5.35858,2.68639 -8.99053,2.68639 -4.49112,0 -8.18698,-1.53609 -11.0781,-4.60118 -2.89231,-3.07337 -4.34201,-7.27337 -4.34201,-12.5917 0,-5.63432 1.45799,-10.0071 4.36568,-13.1278 2.90651,-3.11243 6.72899,-4.67219 11.4722,-4.67219 4.13609,0 7.50059,1.2213 10.0852,3.67219 1.54438,1.44142 2.69467,3.52189 3.46746,6.23195l-6.76805 1.61538c-0.394083,-1.75621 -1.22959,-3.1432 -2.50651,-4.15976 -1.26864,-1.01657 -2.81302,-1.52071 -4.62485,-1.52071 -2.50533,0 -4.54675,0.898225 -6.10651,2.70296 -1.56095,1.79645 -2.34083,4.71124 -2.34083,8.74556 0,4.27929 0.764497,7.32781 2.30888,9.14083 1.53728,1.82012 3.53846,2.72544 5.99645,2.72544 1.82012,0 3.37988,-0.575148 4.68876,-1.73254 1.30769,-1.15148 2.24497,-2.9716 2.82012,-5.44497z"/>
 </g>
</svg>
