<?xml version="1.0" encoding="UTF-8"?>
<!DOCTYPE svg PUBLIC "-//W3C//DTD SVG 1.1//EN" "http://www.w3.org/Graphics/SVG/1.1/DTD/svg11.dtd">
<!-- Creator: CorelDRAW -->
<svg xmlns="http://www.w3.org/2000/svg" xml:space="preserve" width="200px" height="200px" style="shape-rendering:geometricPrecision; text-rendering:geometricPrecision; image-rendering:optimizeQuality; fill-rule:evenodd; clip-rule:evenodd"
viewBox="0 0 200 200">
 <defs>
  <style type="text/css">
   <![CDATA[
    .fil2 {fill:white}
    .fil1 {fill:none}
    .fil0 {fill:white}
   ]]>
  </style>
 </defs>
 <g id="Layer_x0020_1">
  <metadata id="CorelCorpID_0Corel-Layer"/>
  <path class="fil0" d="M31.9112 157.572l0 -10.3385 82.7136 0 0 10.3385 -82.7136 0zm38.2544 -36.5302l-38.2544 -38.258 12.0615 -12.4059 38.6012 38.2544 -12.4083 12.4095zm43.7692 -43.7704l-38.2544 -38.6012 12.4071 -12.0627 38.2568 38.2568 -12.4095 12.4071zm34.8118 73.4083l-92.3669 -92.3645 7.23905 -7.23787 92.3633 92.3669 -7.2355 7.2355z"/>
  <g id="_203561424">
   <circle id="_203553936" class="fil1" cx="166.867" cy="164.137" r="23.9162"/>
   <path id="_203561520" class="fil2" d="M166.542 146.453c9.66627,0 17.5053,7.83905 17.5053,17.5053 0,9.66627 -7.83905,17.5053 -17.5053,17.5053 -9.66627,0 -17.5053,-7.83905 -17.5053,-17.5053 0,-9.66627 7.83905,-17.5053 17.5053,-17.5053zm-2.74793 26.6367l-8.22249 -8.22604 4.29704 -4.29467 3.92544 3.93018 9.76686 -9.64379 4.29586 4.29822 -14.0627 13.9361z"/>
  </g>
 </g>
</svg>
