<?xml version="1.0" encoding="UTF-8"?>
<!DOCTYPE svg PUBLIC "-//W3C//DTD SVG 1.1//EN" "http://www.w3.org/Graphics/SVG/1.1/DTD/svg11.dtd">
<!-- Creator: CorelDRAW -->
<svg xmlns="http://www.w3.org/2000/svg" xml:space="preserve" width="200px" height="200px" style="shape-rendering:geometricPrecision; text-rendering:geometricPrecision; image-rendering:optimizeQuality; fill-rule:evenodd; clip-rule:evenodd"
viewBox="0 0 200 200">
 <defs>
  <style type="text/css">
   <![CDATA[
    .fil0 {fill:#1e66b0}
    .fil1 {fill:#1e66b0;fill-rule:nonzero}
   ]]>
  </style>
 </defs>
 <g id="Layer_x0020_1">
  <metadata id="CorelCorpID_0Corel-Layer"/>
  <path class="fil0" d="M24.8521 170.556l0 -113.953c-1.94911,-0.276923 -3.82604,-1.66982 -5.63669,-4.17515 -1.80828,-2.50414 -2.71243,-5.21893 -2.71243,-8.13964l0 -15.2627c0,-3.2 1.25089,-6.08876 3.75621,-8.66391 2.50533,-2.57278 5.4284,-3.86036 8.76805,-3.86036l141.946 0c3.20118,0 6.09112,1.28757 8.66391,3.86036 2.57278,2.57515 3.86154,5.46391 3.86154,8.66391l0 15.2627c0,2.92071 -0.905325,5.6355 -2.71598,8.13964 -1.80947,2.50533 -3.68521,3.89822 -5.63432,4.17515l0 113.953c0,3.19645 -1.28876,6.15621 -3.86036,8.87219 -2.57278,2.71124 -5.46391,4.06864 -8.66391,4.06864l-125.247 0c-3.33846,0 -6.26154,-1.3574 -8.76686,-4.06864 -2.50533,-2.71598 -3.7574,-5.67574 -3.7574,-8.87219zm12.5243 -113.743l0 114.16 125.247 0 0 -114.16 -125.247 0zm133.596 -12.5243l0 -15.2627 -141.946 0 0 15.2627 141.946 0zm-133.596 126.684l0 -114.16 0 114.16z"/>
  <polygon class="fil1" points="49.3751,110.23 49.3751,76.387 59.6024,76.387 65.7408,99.4746 71.8083,76.387 82.0592,76.387 82.0592,110.23 75.716,110.23 75.716,83.5893 68.9953,110.23 62.4154,110.23 55.7183,83.5893 55.7183,110.23 "/>
  <path class="fil1" d="M110.504 97.7882l6.61893 2.09586c-1.01657,3.69586 -2.70296,6.43787 -5.06627,8.23432 -2.35621,1.78817 -5.35858,2.68639 -8.99053,2.68639 -4.49112,0 -8.18698,-1.53609 -11.0781,-4.60118 -2.89231,-3.07337 -4.34201,-7.27337 -4.34201,-12.5917 0,-5.63432 1.45799,-10.0071 4.36568,-13.1278 2.90651,-3.11243 6.72899,-4.67219 11.4722,-4.67219 4.13609,0 7.50059,1.2213 10.0852,3.67219 1.54438,1.44142 2.69467,3.52189 3.46746,6.23195l-6.76805 1.61538c-0.394083,-1.75621 -1.22959,-3.1432 -2.50651,-4.15976 -1.26864,-1.01657 -2.81302,-1.52071 -4.62485,-1.52071 -2.50533,0 -4.54675,0.898225 -6.10651,2.70296 -1.56095,1.79645 -2.34083,4.71124 -2.34083,8.74556 0,4.27929 0.764497,7.32781 2.30888,9.14083 1.53728,1.82012 3.53846,2.72544 5.99645,2.72544 1.82012,0 3.37988,-0.575148 4.68876,-1.73254 1.30769,-1.15148 2.24497,-2.9716 2.82012,-5.44497z"/>
  <path class="fil1" d="M144.646 97.7882l6.61893 2.09586c-1.01657,3.69586 -2.70296,6.43787 -5.06627,8.23432 -2.35621,1.78817 -5.35858,2.68639 -8.99053,2.68639 -4.49112,0 -8.18698,-1.53609 -11.0781,-4.60118 -2.89231,-3.07337 -4.34201,-7.27337 -4.34201,-12.5917 0,-5.63432 1.45799,-10.0071 4.36568,-13.1278 2.90651,-3.11243 6.72899,-4.67219 11.4722,-4.67219 4.13609,0 7.50059,1.2213 10.0852,3.67219 1.54438,1.44142 2.69467,3.52189 3.46746,6.23195l-6.76805 1.61538c-0.394083,-1.75621 -1.22959,-3.1432 -2.50651,-4.15976 -1.26864,-1.01657 -2.81302,-1.52071 -4.62485,-1.52071 -2.50533,0 -4.54675,0.898225 -6.10651,2.70296 -1.56095,1.79645 -2.34083,4.71124 -2.34083,8.74556 0,4.27929 0.764497,7.32781 2.30888,9.14083 1.53728,1.82012 3.53846,2.72544 5.99645,2.72544 1.82012,0 3.37988,-0.575148 4.68876,-1.73254 1.30769,-1.15148 2.24497,-2.9716 2.82012,-5.44497z"/>
  <polygon class="fil0" points="151.831,140.617 132.29,160.157 126.798,154.666 137.015,144.449 50.2899,144.449 50.2899,136.786 137.015,136.786 126.798,126.568 132.29,121.075 "/>
 </g>
</svg>
