<?xml version="1.0" encoding="UTF-8"?>
<!DOCTYPE svg PUBLIC "-//W3C//DTD SVG 1.1//EN" "http://www.w3.org/Graphics/SVG/1.1/DTD/svg11.dtd">
<!-- Creator: CorelDRAW -->
<svg xmlns="http://www.w3.org/2000/svg" xml:space="preserve" width="200px" height="200px" style="shape-rendering:geometricPrecision; text-rendering:geometricPrecision; image-rendering:optimizeQuality; fill-rule:evenodd; clip-rule:evenodd"
viewBox="0 0 200 200">
 <defs>
  <style type="text/css">
   <![CDATA[
    .fil0 {fill:#d9d9d9}
   ]]>
  </style>
 </defs>
 <g id="Layer_x0020_1">
  <metadata id="CorelCorpID_0Corel-Layer"/>
  <path class="fil0" d="M24.8521 170.556l0 -113.953c-1.94911,-0.276923 -3.82604,-1.66982 -5.63669,-4.17515 -1.80828,-2.50414 -2.71243,-5.21893 -2.71243,-8.13964l0 -15.2627c0,-3.2 1.25089,-6.08876 3.75621,-8.66391 2.50533,-2.57278 5.4284,-3.86036 8.76805,-3.86036l141.946 0c3.20118,0 6.09112,1.28757 8.66391,3.86036 2.57278,2.57515 3.86154,5.46391 3.86154,8.66391l0 15.2627c0,2.92071 -0.905325,5.6355 -2.71598,8.13964 -1.80947,2.50533 -3.68521,3.89822 -5.63432,4.17515l0 113.953c0,3.19645 -1.28876,6.15621 -3.86036,8.87219 -2.57278,2.71124 -5.46391,4.06864 -8.66391,4.06864l-125.247 0c-3.33846,0 -6.26154,-1.3574 -8.76686,-4.06864 -2.50533,-2.71598 -3.7574,-5.67574 -3.7574,-8.87219zm12.5243 -113.743l0 114.16 125.247 0 0 -114.16 -125.247 0zm133.596 -12.5243l0 -15.2627 -141.946 0 0 15.2627 141.946 0zm-133.596 126.684l0 -114.16 0 114.16z"/>
  <path class="fil0" d="M102.993 112.43c1.82722,-2.2497 3.18225,-4.57041 4.05917,-6.95976 0.878107,-2.39053 1.31834,-5.16805 1.31834,-8.33136 0,-3.16331 -0.440237,-5.94083 -1.31834,-8.33018 -0.876923,-2.39053 -2.23195,-4.71124 -4.05917,-6.96095 5.34201,-1.19408 10.0367,-0.385799 14.0769,2.42604 4.04142,2.81183 6.06391,7.10059 6.06391,12.8651 0,5.7645 -2.02249,10.0544 -6.06391,12.8651 -4.04024,2.81183 -8.73491,3.6213 -14.0769,2.42604zm22.7775 34.3775l0 -9.91243c0,-3.58698 -0.914793,-6.92426 -2.74201,-10.0189 -1.82604,-3.09112 -4.99053,-5.69467 -9.48994,-7.80355 12.1621,1.54911 20.4746,3.79763 24.9396,6.74911 4.46391,2.95385 6.69586,6.64497 6.69586,11.0734l0 9.91243 -19.4036 0zm11.6 -30.4769l0 -10.5456 -10.5456 0 0 -6.32663 10.5456 0 0 -10.5456 6.32663 0 0 10.5456 10.5456 0 0 6.32663 -10.5456 0 0 10.5456 -6.32663 0zm-51.1456 -3.37278c-4.64024,0 -8.43669,-1.47692 -11.3882,-4.42959 -2.95266,-2.95266 -4.42959,-6.74911 -4.42959,-11.3893 0,-4.64024 1.47692,-8.4355 4.42959,-11.3893 2.95148,-2.95266 6.74793,-4.4284 11.3882,-4.4284 4.64024,0 8.43669,1.47574 11.3893,4.4284 2.95266,2.95385 4.42959,6.74911 4.42959,11.3893 0,4.64024 -1.47692,8.43669 -4.42959,11.3893 -2.95266,2.95266 -6.74911,4.42959 -11.3893,4.42959zm-33.2178 33.8497l0 -9.91243c0,-2.46154 0.649704,-4.69231 1.9503,-6.69586 1.30059,-2.00473 3.04142,-3.49822 5.22012,-4.48166 5.06154,-2.2497 9.57988,-3.86864 13.5515,-4.85089 3.97278,-0.984615 8.13728,-1.47692 12.4959,-1.47692 4.35976,0 8.50651,0.492308 12.4438,1.47692 3.93609,0.982249 8.43669,2.60118 13.497,4.85089 2.18225,0.983432 3.93609,2.47692 5.27337,4.48166 1.33728,2.00355 2.00355,4.23432 2.00355,6.69586l0 9.91243 -66.4355 0zm33.2178 -40.1775c2.74201,0 5.00947,-0.897041 6.80237,-2.68994 1.7929,-1.79172 2.68876,-4.05917 2.68876,-6.80118 0,-2.74201 -0.895858,-5.00828 -2.68876,-6.80118 -1.7929,-1.7929 -4.06036,-2.68876 -6.80237,-2.68876 -2.74083,0 -5.00828,0.895858 -6.80237,2.68876 -1.7929,1.7929 -2.68876,4.05917 -2.68876,6.80118 0,2.74201 0.895858,5.00947 2.68876,6.80118 1.79408,1.7929 4.06154,2.68994 6.80237,2.68994zm-26.8911 33.8509l53.7822 0 0 -3.5858c0,-1.12544 -0.280473,-2.17988 -0.84497,-3.16331 -0.559763,-0.983432 -1.44142,-1.7574 -2.63669,-2.31953 -4.8497,-2.25089 -8.96213,-3.76331 -12.3373,-4.53609 -3.37396,-0.771598 -7.06509,-1.15858 -11.0722,-1.15858 -4.0071,0 -7.68047,0.386982 -11.0201,1.15858 -3.33846,0.772781 -7.50414,2.28521 -12.4959,4.53609 -1.05444,0.491124 -1.88047,1.24615 -2.47811,2.26746 -0.597633,1.01775 -0.897041,2.08994 -0.897041,3.21538l0 3.5858z"/>
 </g>
</svg>
