<?xml version="1.0" encoding="UTF-8"?>
<!DOCTYPE svg PUBLIC "-//W3C//DTD SVG 1.1//EN" "http://www.w3.org/Graphics/SVG/1.1/DTD/svg11.dtd">
<!-- Creator: CorelDRAW -->
<svg xmlns="http://www.w3.org/2000/svg" xml:space="preserve" width="200px" height="200px" style="shape-rendering:geometricPrecision; text-rendering:geometricPrecision; image-rendering:optimizeQuality; fill-rule:evenodd; clip-rule:evenodd"
viewBox="0 0 200 200">
 <defs>
  <style type="text/css">
   <![CDATA[
    .str0 {stroke:#d9d9d9;stroke-width:0.901775}
    .fil1 {fill:#d9d9d9}
    .fil2 {fill:none}
    .fil3 {fill:#d9d9d9}
    .fil0 {fill:#d9d9d9;fill-rule:nonzero}
   ]]>
  </style>
 </defs>
 <g id="Layer_x0020_1">
  <metadata id="CorelCorpID_0Corel-Layer"/>
  <path class="fil0" d="M92.4118 75.5231l-1.91243 9.01302c-1.84497,-1.84497 -4.54556,-2.76686 -8.07929,-2.76686 -3.53491,0 -6.40237,1.26627 -8.59172,3.81183 -1.24497,1.43432 -2.12308,3.22367 -2.64615,5.36805l17.9172 0 -1.04497 5.04615 -17.516 0c-0.0224852,0.500592 -0.0331361,1.14556 -0.0331361,1.92308 0,0.766864 0.0213018,1.55621 0.0662722,2.3787l16.5716 0 -1.04497 5.04615 -14.8485 0c0.544379,2.32308 1.37751,4.14556 2.51124,5.46864 2.16805,2.56686 4.99053,3.84497 8.45917,3.84497 4.16805,0 7.49112,-1.27811 9.96923,-3.84497l0 9.96923c-2.82249,1.41183 -6.11243,2.11243 -9.86982,2.11243 -6.33491,0 -11.5479,-2.16805 -15.6272,-6.51361 -2.7787,-2.94556 -4.61183,-6.62485 -5.50178,-11.0367l-4.82367 0 1.04497 -5.04615 3.18935 0c-0.0213018,-0.521893 -0.0331361,-1.07811 -0.0331361,-1.65562 0,-1.00118 0.0224852,-1.87929 0.0674556,-2.64615l-4.26864 0 1.04497 -5.04615 3.87929 0c0.911243,-4.31243 2.72308,-7.93491 5.43432,-10.8367 4.10178,-4.38935 9.49231,-6.57988 16.1834,-6.57988 3.64497,0 6.81302,0.656805 9.50296,1.99053z"/>
  <polygon class="fil1 str0" points="121.265,74.4959 139.554,92.7858 102.975,92.7858 "/>
  <polygon class="fil1 str0" points="121.265,122.304 139.554,104.014 102.975,104.014 "/>
  <g id="_203520416">
   <circle id="_203524760" class="fil2" cx="137.931" cy="146.9" r="23.9162"/>
   <path id="_203524496" class="fil1" d="M137.606 129.217c9.66627,0 17.5053,7.83905 17.5053,17.5053 0,9.66627 -7.83905,17.5053 -17.5053,17.5053 -9.66627,0 -17.5053,-7.83905 -17.5053,-17.5053 0,-9.66627 7.83905,-17.5053 17.5053,-17.5053zm-2.74793 26.6367l-8.22249 -8.22604 4.29704 -4.29467 3.92544 3.93018 9.76686 -9.64379 4.29586 4.29822 -14.0627 13.9361z"/>
  </g>
  <path class="fil3" d="M24.8521 170.557l0 -113.953c-1.94911,-0.276923 -3.82604,-1.66982 -5.63669,-4.17515 -1.80828,-2.50414 -2.71243,-5.21893 -2.71243,-8.13964l0 -15.2627c0,-3.2 1.25089,-6.08876 3.75621,-8.66391 2.50533,-2.57278 5.4284,-3.86036 8.76805,-3.86036l141.946 0c3.20118,0 6.09112,1.28757 8.66391,3.86036 2.57278,2.57515 3.86154,5.46391 3.86154,8.66391l0 15.2627c0,2.92071 -0.905325,5.6355 -2.71598,8.13964 -1.80947,2.50533 -3.68521,3.89822 -5.63432,4.17515l0 113.953c0,3.19645 -1.28876,6.15621 -3.86036,8.87219 -2.57278,2.71124 -5.46391,4.06864 -8.66391,4.06864l-125.247 0c-3.33846,0 -6.26154,-1.3574 -8.76686,-4.06864 -2.50533,-2.71598 -3.7574,-5.67574 -3.7574,-8.87219zm12.5243 -113.743l0 114.16 125.247 0 0 -114.16 -125.247 0zm133.596 -12.5243l0 -15.2627 -141.946 0 0 15.2627 141.946 0zm-133.596 126.684l0 -114.16 0 114.16z"/>
 </g>
</svg>
