<?xml version="1.0" encoding="UTF-8"?>
<!DOCTYPE svg PUBLIC "-//W3C//DTD SVG 1.1//EN" "http://www.w3.org/Graphics/SVG/1.1/DTD/svg11.dtd">
<!-- Creator: CorelDRAW -->
<svg xmlns="http://www.w3.org/2000/svg" xml:space="preserve" width="200px" height="200px" style="shape-rendering:geometricPrecision; text-rendering:geometricPrecision; image-rendering:optimizeQuality; fill-rule:evenodd; clip-rule:evenodd"
viewBox="0 0 200 200">
 <defs>
  <style type="text/css">
   <![CDATA[
    .fil0 {fill:#d9d9d9}
   ]]>
  </style>
 </defs>
 <g id="Layer_x0020_1">
  <metadata id="CorelCorpID_0Corel-Layer"/>
  <path class="fil0" d="M24.8521 170.556l0 -113.953c-1.94911,-0.276923 -3.82604,-1.66982 -5.63669,-4.17515 -1.80828,-2.50414 -2.71243,-5.21893 -2.71243,-8.13964l0 -15.2627c0,-3.2 1.25089,-6.08876 3.75621,-8.66391 2.50533,-2.57278 5.4284,-3.86036 8.76805,-3.86036l141.946 0c3.20118,0 6.09112,1.28757 8.66391,3.86036 2.57278,2.57515 3.86154,5.46391 3.86154,8.66391l0 15.2627c0,2.92071 -0.905325,5.6355 -2.71598,8.13964 -1.80947,2.50533 -3.68521,3.89822 -5.63432,4.17515l0 113.953c0,3.19645 -1.28876,6.15621 -3.86036,8.87219 -2.57278,2.71124 -5.46391,4.06864 -8.66391,4.06864l-125.247 0c-3.33846,0 -6.26154,-1.3574 -8.76686,-4.06864 -2.50533,-2.71598 -3.7574,-5.67574 -3.7574,-8.87219zm12.5243 -113.743l0 114.16 125.247 0 0 -114.16 -125.247 0zm133.596 -12.5243l0 -15.2627 -141.946 0 0 15.2627 141.946 0zm-133.596 126.684l0 -114.16 0 114.16z"/>
  <path class="fil0" d="M36.2024 134.498l36.613 0c3.20118,5.01183 7.09822,9.1503 11.6888,12.4201 4.5929,3.27337 9.74201,4.90414 15.4485,4.90414 5.70769,0 10.8533,-1.63077 15.4473,-4.90414 4.59053,-3.26982 8.48876,-7.40828 11.6888,-12.4201l36.3136 0 0 12.5254 -31.303 0c-3.61538,5.56568 -8.31243,9.84615 -14.0899,12.8379 -5.77751,2.9929 -11.7953,4.48521 -18.0568,4.48521 -6.26272,0 -12.2828,-1.49231 -18.058,-4.48521 -5.77396,-2.99172 -10.471,-7.27219 -14.0899,-12.8379l-31.6024 0 0 -12.5254zm63.7503 -3.47337l-31.9373 -31.9385 8.97515 -8.97633 16.6994 16.6994 0 -39.4533 12.5243 0 0 39.4533 16.7006 -16.6994 8.97751 8.97633 -31.9396 31.9385z"/>
 </g>
</svg>
