<?xml version="1.0" encoding="UTF-8"?>
<!DOCTYPE svg PUBLIC "-//W3C//DTD SVG 1.1//EN" "http://www.w3.org/Graphics/SVG/1.1/DTD/svg11.dtd">
<!-- Creator: CorelDRAW -->
<svg xmlns="http://www.w3.org/2000/svg" xml:space="preserve" width="200px" height="200px" style="shape-rendering:geometricPrecision; text-rendering:geometricPrecision; image-rendering:optimizeQuality; fill-rule:evenodd; clip-rule:evenodd"
viewBox="0 0 200 200">
 <defs>
  <style type="text/css">
   <![CDATA[
    .fil0 {fill:white}
    .fil2 {fill:white}
    .fil1 {fill:white;fill-rule:nonzero}
   ]]>
  </style>
 </defs>
 <g id="Layer_x0020_1">
  <metadata id="CorelCorpID_0Corel-Layer"/>
  <path class="fil0" d="M152.982 121.633l0 -43.1811c0,-13.916 -4.66272,-25.5361 -13.987,-34.8604 -9.32426,-9.32426 -20.9432,-13.9858 -34.8604,-13.9858 -13.9148,0 -25.5349,4.66154 -34.8592,13.9858 -9.32426,9.32426 -13.9882,20.9444 -13.9882,34.8604l0 20.3527 -18.787 -18.7882 -8.76568 8.76686 33.8154 33.8154 33.8189 -33.8154 -8.77041 -8.76686 -18.787 18.7882 0 -20.3527c0,-10.4367 3.44615,-19.1006 10.3361,-25.9882 6.88639,-6.88876 15.5491,-10.3337 25.987,-10.3337 10.4367,0 19.1006,3.44497 25.9893,10.3337 6.88757,6.88757 10.3325,15.5515 10.3325,25.9882l0 43.1811 12.5254 0z"/>
  <path class="fil1" d="M56.7349 163.188l7.14911 2.26391c-1.09704,3.99172 -2.91834,6.95385 -5.47219,8.89349 -2.54556,1.93254 -5.78817,2.90296 -9.71124,2.90296 -4.85207,0 -8.84379,-1.65917 -11.968,-4.97041 -3.12308,-3.31953 -4.68876,-7.8568 -4.68876,-13.6012 0,-6.08639 1.57396,-10.8095 4.71479,-14.1799 3.14083,-3.36213 7.26864,-5.04734 12.3929,-5.04734 4.46864,0 8.10296,1.31834 10.8947,3.96568 1.66746,1.5574 2.91124,3.80473 3.74438,6.73254l-7.31124 1.74556c-0.424852,-1.89822 -1.32781,-3.39645 -2.70651,-4.49467 -1.37041,-1.09822 -3.03787,-1.6426 -4.99645,-1.6426 -2.70651,0 -4.91124,0.970414 -6.59645,2.91953 -1.68521,1.94083 -2.52781,5.08994 -2.52781,9.44734 0,4.62249 0.826036,7.91598 2.49467,9.87337 1.65917,1.96686 3.8213,2.94556 6.47692,2.94556 1.96568,0 3.65089,-0.621302 5.06391,-1.87337 1.41302,-1.2426 2.42604,-3.20828 3.04734,-5.88047z"/>
  <path class="fil1" d="M68.7278 158.574c0,-3.72781 0.553846,-6.85089 1.66864,-9.3787 0.83432,-1.85562 1.96568,-3.53254 3.40473,-5.0142 1.43787,-1.47219 3.01302,-2.57041 4.72308,-3.28521 2.28166,-0.970414 4.90296,-1.44615 7.88166,-1.44615 5.38817,0 9.69467,1.66746 12.929,5.01302 3.23432,3.33609 4.85207,7.98343 4.85207,13.9325 0,5.90769 -1.60947,10.5207 -4.81775,13.8568 -3.20828,3.32781 -7.49822,4.99645 -12.8604,4.99645 -5.43905,0 -9.76331,-1.65917 -12.9716,-4.97041 -3.20947,-3.31953 -4.80947,-7.88994 -4.80947,-13.7041zm7.60118 -0.246154c0,4.13609 0.960947,7.27692 2.86864,9.41302 1.91479,2.13728 4.34083,3.20118 7.28521,3.20118 2.93609,0 5.35385,-1.05562 7.24379,-3.18343 1.88047,-2.11953 2.82485,-5.29467 2.82485,-9.53254 0,-4.18817 -0.918343,-7.31243 -2.74911,-9.37988 -1.83787,-2.06036 -4.28047,-3.08994 -7.31953,-3.08994 -3.04734,0 -5.49822,1.04734 -7.36213,3.13254 -1.85562,2.08521 -2.79172,5.22604 -2.79172,9.43905z"/>
  <polygon class="fil1" points="109.992,176.627 109.992,140.071 135.058,140.071 135.058,146.258 117.38,146.258 117.38,154.907 132.64,154.907 132.64,161.093 117.38,161.093 117.38,176.627 "/>
  <polygon class="fil1" points="141.186,176.627 141.186,140.071 166.252,140.071 166.252,146.258 148.574,146.258 148.574,154.907 163.834,154.907 163.834,161.093 148.574,161.093 148.574,176.627 "/>
  <path class="fil2" d="M-0.261538 186.579l0 -108.209 12.5243 0 0 108.626 174.843 0 0 -108.626 12.5243 0 0 108.209c0,3.19645 -1.28876,6.15621 -3.86036,8.87219 -2.57278,2.71124 -5.46391,4.06864 -8.66391,4.06864l-174.843 0c-3.33846,0 -6.26154,-1.3574 -8.76686,-4.06864 -2.50533,-2.71598 -3.7574,-5.67574 -3.7574,-8.87219zm12.5243 0.416568l0 -108.626 0 108.626z"/>
  <path class="fil2" d="M-0.261538 13.3538l0 108.209 12.5243 0 0 -108.626 174.843 0 0 108.626 12.5243 0 0 -108.209c0,-3.19645 -1.28876,-6.15621 -3.86036,-8.87219 -2.57278,-2.71124 -5.46391,-4.06864 -8.66391,-4.06864l-174.843 0c-3.33846,0 -6.26154,1.3574 -8.76686,4.06864 -2.50533,2.71598 -3.7574,5.67574 -3.7574,8.87219zm12.5243 -0.416568l0 108.626 0 -108.626z"/>
 </g>
</svg>
