<?xml version="1.0" encoding="UTF-8"?>
<!DOCTYPE svg PUBLIC "-//W3C//DTD SVG 1.1//EN" "http://www.w3.org/Graphics/SVG/1.1/DTD/svg11.dtd">
<!-- Creator: CorelDRAW -->
<svg xmlns="http://www.w3.org/2000/svg" xml:space="preserve" width="200px" height="200px" style="shape-rendering:geometricPrecision; text-rendering:geometricPrecision; image-rendering:optimizeQuality; fill-rule:evenodd; clip-rule:evenodd"
viewBox="0 0 200 200">
 <defs>
  <style type="text/css">
   <![CDATA[
    .fil0 {fill:white}
    .fil1 {fill:white}
   ]]>
  </style>
 </defs>
 <g id="Layer_x0020_1">
  <metadata id="CorelCorpID_0Corel-Layer"/>
  <path class="fil0" d="M152.189 143.6l0 -43.1811c0,-13.916 -4.66272,-25.5361 -13.987,-34.8604 -9.32426,-9.32426 -20.9432,-13.9858 -34.8604,-13.9858 -13.9148,0 -25.5349,4.66154 -34.8592,13.9858 -9.32426,9.32426 -13.9882,20.9444 -13.9882,34.8604l0 20.3527 -18.787 -18.7882 -8.76568 8.76686 33.8154 33.8154 33.8189 -33.8154 -8.77041 -8.76686 -18.787 18.7882 0 -20.3527c0,-10.4367 3.44615,-19.1006 10.3361,-25.9882 6.88639,-6.88876 15.5491,-10.3337 25.987,-10.3337 10.4367,0 19.1006,3.44497 25.9893,10.3337 6.88757,6.88757 10.3325,15.5515 10.3325,25.9882l0 43.1811 12.5254 0z"/>
  <path class="fil1" d="M-0.261538 186.58l0 -108.209 12.5243 0 0 108.626 174.843 0 0 -108.626 12.5243 0 0 108.209c0,3.19645 -1.28876,6.15621 -3.86036,8.87219 -2.57278,2.71124 -5.46391,4.06864 -8.66391,4.06864l-174.843 0c-3.33846,0 -6.26154,-1.3574 -8.76686,-4.06864 -2.50533,-2.71598 -3.7574,-5.67574 -3.7574,-8.87219zm12.5243 0.416568l0 -108.626 0 108.626z"/>
  <path class="fil1" d="M-0.261538 13.355l0 108.209 12.5243 0 0 -108.626 174.843 0 0 108.626 12.5243 0 0 -108.209c0,-3.19645 -1.28876,-6.15621 -3.86036,-8.87219 -2.57278,-2.71124 -5.46391,-4.06864 -8.66391,-4.06864l-174.843 0c-3.33846,0 -6.26154,1.3574 -8.76686,4.06864 -2.50533,2.71598 -3.7574,5.67574 -3.7574,8.87219zm12.5243 -0.416568l0 108.626 0 -108.626z"/>
 </g>
</svg>
