<?xml version="1.0" encoding="UTF-8"?>
<!DOCTYPE svg PUBLIC "-//W3C//DTD SVG 1.1//EN" "http://www.w3.org/Graphics/SVG/1.1/DTD/svg11.dtd">
<!-- Creator: CorelDRAW -->
<svg xmlns="http://www.w3.org/2000/svg" xml:space="preserve" width="200px" height="200px" style="shape-rendering:geometricPrecision; text-rendering:geometricPrecision; image-rendering:optimizeQuality; fill-rule:evenodd; clip-rule:evenodd"
viewBox="0 0 200 200">
 <defs>
  <style type="text/css">
   <![CDATA[
    .fil0 {fill:#d9d9d9}
   ]]>
  </style>
 </defs>
 <g id="Layer_x0020_1">
  <metadata id="CorelCorpID_0Corel-Layer"/>
  <path class="fil0" d="M24.8521 170.556l0 -113.953c-1.94911,-0.276923 -3.82604,-1.66982 -5.63669,-4.17515 -1.80828,-2.50414 -2.71243,-5.21893 -2.71243,-8.13964l0 -15.2627c0,-3.2 1.25089,-6.08876 3.75621,-8.66391 2.50533,-2.57278 5.4284,-3.86036 8.76805,-3.86036l141.946 0c3.20118,0 6.09112,1.28757 8.66391,3.86036 2.57278,2.57515 3.86154,5.46391 3.86154,8.66391l0 15.2627c0,2.92071 -0.905325,5.6355 -2.71598,8.13964 -1.80947,2.50533 -3.68521,3.89822 -5.63432,4.17515l0 113.953c0,3.19645 -1.28876,6.15621 -3.86036,8.87219 -2.57278,2.71124 -5.46391,4.06864 -8.66391,4.06864l-125.247 0c-3.33846,0 -6.26154,-1.3574 -8.76686,-4.06864 -2.50533,-2.71598 -3.7574,-5.67574 -3.7574,-8.87219zm12.5243 -113.743l0 114.16 125.247 0 0 -114.16 -125.247 0zm133.596 -12.5243l0 -15.2627 -141.946 0 0 15.2627 141.946 0zm-133.596 126.684l0 -114.16 0 114.16z"/>
  <path class="fil0" d="M63.5633 153.253l0 -6.68166 53.4544 0 0 6.68166 -53.4544 0zm24.7231 -23.6083l-24.7231 -24.7243 7.79527 -8.01775 24.9467 24.7231 -8.01893 8.01893zm28.2852 -28.2864l-24.7219 -24.9467 8.01775 -7.79527 24.7243 24.7231 -8.02012 8.01893zm22.497 47.4402l-59.6923 -59.6911 4.67811 -4.67692 59.6911 59.6923 -4.67692 4.67574z"/>
 </g>
</svg>
