<?xml version="1.0" encoding="UTF-8"?>
<!DOCTYPE svg PUBLIC "-//W3C//DTD SVG 1.1//EN" "http://www.w3.org/Graphics/SVG/1.1/DTD/svg11.dtd">
<!-- Creator: CorelDRAW -->
<svg xmlns="http://www.w3.org/2000/svg" xml:space="preserve" width="600px" height="200px" style="shape-rendering:geometricPrecision; text-rendering:geometricPrecision; image-rendering:optimizeQuality; fill-rule:evenodd; clip-rule:evenodd"
viewBox="0 0 600 199.998">
 <defs>
  <style type="text/css">
   <![CDATA[
    .fil1 {fill:white}
    .fil0 {fill:white;fill-rule:nonzero}
   ]]>
  </style>
 </defs>
 <g id="Layer_x0020_1">
  <metadata id="CorelCorpID_0Corel-Layer"/>
  <path class="fil0" d="M35.1425 24.2917c6.68622,0 12.3555,2.25472 17.0079,6.75236 4.65236,4.50827 6.98386,9.98976 6.98386,16.4657 0,6.45354 -2.3315,11.935 -6.98386,16.4327 -4.65236,4.49764 -10.3217,6.75236 -17.0079,6.75236 -6.67441,0 -12.3213,-2.25472 -16.9512,-6.75236 -4.6311,-4.49764 -6.94016,-9.97913 -6.94016,-16.4327 0,-6.47598 2.30906,-11.9575 6.94016,-16.4657 4.62992,-4.49764 10.2768,-6.75236 16.9512,-6.75236zm0.133465 43.1646c5.62441,0 10.3772,-1.93346 14.2559,-5.77913 3.87874,-3.8563 5.8122,-8.57598 5.8122,-14.1673 0,-5.61378 -1.93346,-10.3441 -5.8122,-14.2004 -3.87874,-3.84567 -8.6315,-5.78031 -14.2559,-5.78031 -5.65866,0 -10.4433,1.93465 -14.3669,5.78031 -3.91181,3.8563 -5.87835,8.58661 -5.87835,14.2004 0,5.59134 1.96654,10.311 5.87835,14.1673 3.92362,3.84567 8.70827,5.77913 14.3669,5.77913z"/>
  <polygon class="fil0" points="111.348,24.8776 111.348,70.1091 108.442,70.1091 74.0846,30.5799 74.0846,70.1091 70.5921,70.1091 70.5921,24.8776 73.565,24.8776 107.856,64.4067 107.856,24.8776 "/>
  <path class="fil0" d="M124.783 24.8776l9.42638 0c4.94055,0 8.68583,1.03819 11.2394,3.10512 2.54173,2.07756 3.8126,4.93937 3.8126,8.58661 0,4.35354 -2.16614,7.71378 -6.50906,10.0677 6.97323,1.51417 10.4646,5.32677 10.4646,11.4591 0,3.66969 -1.37008,6.58701 -4.09961,8.76378 -2.72953,2.16614 -6.42047,3.24921 -11.0835,3.24921l-13.2508 0 0 -45.2315zm3.50315 2.91732l0 18.0354 4.85197 0c8.22165,0 12.3437,-3.00591 12.3437,-9.00709 0,-6.02244 -4.15512,-9.02835 -12.4654,-9.02835l-4.73031 0zm0 20.9752l0 18.4217 9.36024 0c3.85748,0 6.79606,-0.829134 8.79685,-2.48622 2.01142,-1.6689 3.01654,-3.89055 3.01654,-6.67559 0,-6.16654 -4.44213,-9.25984 -13.3382,-9.25984l-7.83543 0z"/>
  <path class="fil0" d="M184.886 24.2917c6.68622,0 12.3555,2.25472 17.0079,6.75236 4.65236,4.50827 6.98386,9.98976 6.98386,16.4657 0,6.45354 -2.3315,11.935 -6.98386,16.4327 -4.65236,4.49764 -10.3217,6.75236 -17.0079,6.75236 -6.67441,0 -12.3213,-2.25472 -16.9512,-6.75236 -4.6311,-4.49764 -6.94016,-9.97913 -6.94016,-16.4327 0,-6.47598 2.30906,-11.9575 6.94016,-16.4657 4.62992,-4.49764 10.2768,-6.75236 16.9512,-6.75236zm0.133465 43.1646c5.62441,0 10.3772,-1.93346 14.2559,-5.77913 3.87874,-3.8563 5.8122,-8.57598 5.8122,-14.1673 0,-5.61378 -1.93346,-10.3441 -5.8122,-14.2004 -3.87874,-3.84567 -8.6315,-5.78031 -14.2559,-5.78031 -5.65866,0 -10.4433,1.93465 -14.3669,5.78031 -3.91181,3.8563 -5.87835,8.58661 -5.87835,14.2004 0,5.59134 1.96654,10.311 5.87835,14.1673 3.92362,3.84567 8.70827,5.77913 14.3669,5.77913z"/>
  <path class="fil0" d="M234.934 24.5575l20.8866 45.5516 -3.66969 0 -7.15039 -15.6366 -22.0795 0 -7.14921 15.6366 -3.66969 0 20.8866 -45.5516 1.94528 0zm8.74134 26.9965l-9.74764 -21.2953 -9.68031 21.2953 19.428 0z"/>
  <path class="fil0" d="M264.272 24.8776l11.5819 0c4.8626,0 8.57598,1.05 11.139,3.16063 2.5748,2.1 3.85748,4.95118 3.85748,8.5311 0,5.21575 -2.87362,8.89606 -8.60906,11.0067 1.4811,0.70748 3.49252,3.00591 6.02244,6.89646l10.2224 15.6366 -4.11142 0 -7.90039 -12.3992c-2.63031,-4.14449 -4.6748,-6.72992 -6.14528,-7.75748 -1.46929,-1.02756 -3.61299,-1.53661 -6.44291,-1.53661l-6.12165 0 0 21.6933 -3.49252 0 0 -45.2315zm3.49252 2.91732l0 17.7035 7.51417 0c3.8126,0 6.74173,-0.762992 8.75315,-2.30906 2.02205,-1.54724 3.02717,-3.7252 3.02717,-6.55394 0,-2.78504 -1.02756,-4.96181 -3.07205,-6.50906 -2.05512,-1.55787 -4.99488,-2.3315 -8.84055,-2.3315l-7.38189 0z"/>
  <path class="fil0" d="M305.224 24.8776l15.8256 0c8.01142,0 14.1224,2.11063 18.3449,6.32126 4.22126,4.19882 6.33189,9.64724 6.33189,16.311 0,6.54213 -2.08819,11.9457 -6.26575,16.2012 -4.17756,4.26496 -10.1114,6.39803 -17.7921,6.39803l-16.4445 0 0 -45.2315zm3.49252 2.91732l0 39.3969 12.7524 0c5.85709,0 10.7315,-1.79055 14.6209,-5.38228 3.90118,-3.60236 5.84646,-8.36575 5.84646,-14.2996 0,-5.80157 -1.92283,-10.5425 -5.7685,-14.2122 -3.83504,-3.6685 -8.80866,-5.50276 -14.9197,-5.50276l-12.5315 0z"/>
  <polygon class="fil0" points="360.676,24.8776 360.676,70.1091 357.183,70.1091 357.183,24.8776 "/>
  <polygon class="fil0" points="414.679,24.8776 414.679,70.1091 411.772,70.1091 377.415,30.5799 377.415,70.1091 373.923,70.1091 373.923,24.8776 376.896,24.8776 411.187,64.4067 411.187,24.8776 "/>
  <path class="fil0" d="M465.898 28.148l0 3.95669c-5.34921,-3.04961 -10.6866,-4.57559 -16.024,-4.57559 -5.71299,0 -10.4764,1.90157 -14.2783,5.70236 -3.80079,3.80197 -5.69055,8.55354 -5.69055,14.2783 0,5.7248 1.87795,10.4764 5.62441,14.2665 3.75827,3.77953 8.86299,5.67992 15.3165,5.67992 4.66417,0 8.79685,-0.928346 12.3992,-2.78386l0 -12.2114 -9.54803 0 0 -2.90669 13.0854 0 0 17.3173c-5.33858,2.54173 -10.6866,3.82323 -16.0689,3.82323 -7.0063,0 -12.8634,-2.22165 -17.5594,-6.67441 -4.69724,-4.44331 -7.03937,-9.99094 -7.03937,-16.6429 0,-6.59764 2.29843,-12.1016 6.90591,-16.4882 4.60866,-4.39843 10.3996,-6.59764 17.3728,-6.59764 4.75157,0 9.92362,1.29331 15.5043,3.8563z"/>
  <path class="fil0" d="M505.218 24.8776l15.8256 0c8.01142,0 14.1224,2.11063 18.3449,6.32126 4.22126,4.19882 6.33189,9.64724 6.33189,16.311 0,6.54213 -2.08819,11.9457 -6.26575,16.2012 -4.17756,4.26496 -10.1114,6.39803 -17.7921,6.39803l-16.4445 0 0 -45.2315zm3.49252 2.91732l0 39.3969 12.7524 0c5.85709,0 10.7315,-1.79055 14.6209,-5.38228 3.90118,-3.60236 5.84646,-8.36575 5.84646,-14.2996 0,-5.80157 -1.92283,-10.5425 -5.7685,-14.2122 -3.83504,-3.6685 -8.80866,-5.50276 -14.9197,-5.50276l-12.5315 0z"/>
  <polygon class="fil0" points="581.975,24.8776 581.975,27.7949 560.802,27.7949 560.802,45.8965 581.422,45.8965 581.422,48.8362 560.802,48.8362 560.802,67.1917 582.495,67.1917 582.495,70.1091 557.298,70.1091 557.298,24.8776 "/>
  <path class="fil0" d="M117.596 100.721l0 3.82441c-5.4815,-2.9185 -10.8638,-4.37717 -16.1232,-4.37717 -5.61378,0 -10.311,1.9122 -14.0906,5.73543 -3.76772,3.82441 -5.65748,8.58661 -5.65748,14.3114 0,5.78031 1.90039,10.5425 5.69055,14.2783 3.80197,3.73465 8.65276,5.60197 14.5429,5.60197 4.91811,0 10.278,-1.54606 16.0913,-4.62992l0 3.6248c-5.35984,2.82874 -10.6984,4.2437 -16.024,4.2437 -6.88465,0 -12.6201,-2.20984 -17.2063,-6.62008 -4.59803,-4.41969 -6.88583,-9.91181 -6.88583,-16.4988 0,-6.63071 2.34331,-12.1665 7.02874,-16.6098 4.68543,-4.44213 10.2555,-6.67441 16.7315,-6.67441 5.09409,0 10.3984,1.27087 15.9024,3.79016z"/>
  <path class="fil0" d="M149.785 96.9307c6.68622,0 12.3555,2.25472 17.0079,6.75236 4.65236,4.50827 6.98386,9.98976 6.98386,16.4657 0,6.45354 -2.3315,11.935 -6.98386,16.4327 -4.65236,4.49764 -10.3217,6.75236 -17.0079,6.75236 -6.67441,0 -12.3213,-2.25472 -16.9512,-6.75236 -4.6311,-4.49764 -6.94016,-9.97913 -6.94016,-16.4327 0,-6.47598 2.30906,-11.9575 6.94016,-16.4657 4.62992,-4.49764 10.2768,-6.75236 16.9512,-6.75236zm0.133465 43.1646c5.62441,0 10.3772,-1.93346 14.2559,-5.77913 3.87874,-3.8563 5.8122,-8.57598 5.8122,-14.1673 0,-5.61378 -1.93346,-10.3441 -5.8122,-14.2004 -3.87874,-3.84567 -8.6315,-5.78031 -14.2559,-5.78031 -5.65866,0 -10.4433,1.93465 -14.3669,5.78031 -3.91181,3.8563 -5.87835,8.58661 -5.87835,14.2004 0,5.59134 1.96654,10.311 5.87835,14.1673 3.92362,3.84567 8.70827,5.77913 14.3669,5.77913z"/>
  <polygon class="fil0" points="205.923,118.535 223.14,97.5165 226.676,97.5165 226.676,142.748 223.14,142.748 223.14,102.633 205.923,123.774 188.661,102.633 188.661,142.748 185.169,142.748 185.169,97.5165 188.661,97.5165 "/>
  <polygon class="fil0" points="264.755,97.5165 264.755,100.434 243.581,100.434 243.581,118.535 264.202,118.535 264.202,121.475 243.581,121.475 243.581,139.831 265.274,139.831 265.274,142.748 240.078,142.748 240.078,97.5165 "/>
  <path class="fil0" d="M275.471 97.5165l11.5819 0c4.8626,0 8.57598,1.05 11.139,3.16063 2.5748,2.1 3.85748,4.95118 3.85748,8.5311 0,5.21575 -2.87362,8.89606 -8.60906,11.0067 1.4811,0.70748 3.49252,3.00591 6.02244,6.89646l10.2224 15.6366 -4.11142 0 -7.90039 -12.3992c-2.63031,-4.14449 -4.6748,-6.72992 -6.14528,-7.75748 -1.46929,-1.02756 -3.61299,-1.53661 -6.44291,-1.53661l-6.12165 0 0 21.6933 -3.49252 0 0 -45.2315zm3.49252 2.91732l0 17.7035 7.51417 0c3.8126,0 6.74173,-0.762992 8.75315,-2.30906 2.02205,-1.54724 3.02717,-3.7252 3.02717,-6.55394 0,-2.78504 -1.02756,-4.96181 -3.07205,-6.50906 -2.05512,-1.55787 -4.99488,-2.3315 -8.84055,-2.3315l-7.38189 0z"/>
  <path class="fil0" d="M354.074 100.721l0 3.82441c-5.4815,-2.9185 -10.8638,-4.37717 -16.1232,-4.37717 -5.61378,0 -10.311,1.9122 -14.0906,5.73543 -3.76772,3.82441 -5.65748,8.58661 -5.65748,14.3114 0,5.78031 1.90039,10.5425 5.69055,14.2783 3.80197,3.73465 8.65276,5.60197 14.5429,5.60197 4.91811,0 10.278,-1.54606 16.0913,-4.62992l0 3.6248c-5.35984,2.82874 -10.6984,4.2437 -16.024,4.2437 -6.88465,0 -12.6201,-2.20984 -17.2063,-6.62008 -4.59803,-4.41969 -6.88583,-9.91181 -6.88583,-16.4988 0,-6.63071 2.34331,-12.1665 7.02874,-16.6098 4.68543,-4.44213 10.2555,-6.67441 16.7315,-6.67441 5.09409,0 10.3984,1.27087 15.9024,3.79016z"/>
  <polygon class="fil0" points="367.676,97.5165 367.676,142.748 364.183,142.748 364.183,97.5165 "/>
  <path class="fil0" d="M398.826 97.1965l20.8866 45.5516 -3.66969 0 -7.15039 -15.6366 -22.0795 0 -7.14921 15.6366 -3.66969 0 20.8866 -45.5516 1.94528 0zm8.74134 26.9965l-9.74764 -21.2953 -9.68031 21.2953 19.428 0z"/>
  <polygon class="fil0" points="468.854,97.5165 468.854,142.748 465.947,142.748 431.59,103.219 431.59,142.748 428.098,142.748 428.098,97.5165 431.07,97.5165 465.361,137.046 465.361,97.5165 "/>
  <polygon class="fil0" points="514.702,97.5165 514.702,100.434 497.739,100.434 497.739,142.748 494.213,142.748 494.213,100.434 477.239,100.434 477.239,97.5165 "/>
  <polygon class="fil0" points="547.918,97.5165 547.918,100.434 526.744,100.434 526.744,118.535 547.365,118.535 547.365,121.475 526.744,121.475 526.744,139.831 548.438,139.831 548.438,142.748 523.241,142.748 523.241,97.5165 "/>
  <path class="fil0" d="M579.896 99.7819l0 3.8563c-3.92244,-2.30906 -7.30394,-3.47008 -10.1339,-3.47008 -2.71772,0 -4.98307,0.829134 -6.80669,2.4874 -1.82362,1.64646 -2.74134,3.69094 -2.74134,6.13228 0,1.74685 0.542126,3.32717 1.6252,4.71969 1.07126,1.40315 3.32598,2.7626 6.76299,4.05591 3.43701,1.29213 5.93386,2.3752 7.51417,3.2374 1.56969,0.862205 2.90669,2.11063 4.0122,3.75709 1.10433,1.63583 1.64646,3.75709 1.64646,6.37677 0,3.47008 -1.27087,6.40984 -3.8126,8.80748 -2.55236,2.38701 -5.65866,3.59173 -9.32717,3.59173 -3.75709,0 -7.6252,-1.31575 -11.5925,-3.95669l0 -4.11024c4.3878,3.21496 8.17795,4.82835 11.3941,4.82835 2.68465,0 4.93937,-0.872835 6.78425,-2.60787 1.84606,-1.73504 2.77441,-3.86693 2.77441,-6.39803 0,-1.92283 -0.575197,-3.64724 -1.72441,-5.19449 -1.1374,-1.54724 -3.45827,-2.98346 -6.96142,-4.32047 -3.49252,-1.33701 -5.99055,-2.42008 -7.49291,-3.23858 -1.50236,-0.817323 -2.77323,-1.98898 -3.82323,-3.51378 -1.03937,-1.5248 -1.56969,-3.48071 -1.56969,-5.87953 0,-3.31417 1.2815,-6.15472 3.82323,-8.49803 2.55354,-2.34213 5.61378,-3.51378 9.19488,-3.51378 3.51378,0 7.0063,0.950787 10.4539,2.85118z"/>
  <g id="_206235752">
   <path id="_206235992" class="fil1" d="M583.729 173.751c-1.17047,0.0200787 -2.13189,-0.933071 -2.10827,-2.15906 -0.023622,-1.22717 0.938976,-2.15906 2.10827,-2.14488 1.16339,-0.0141732 2.13071,0.918898 2.11181,2.14488 0.0188976,1.22598 -0.948425,2.17913 -2.11181,2.15906m0 -4.02992c-1.02992,0 -1.81299,0.777165 -1.81299,1.87087 -0.0200787,1.0937 0.796063,1.9063 1.81299,1.88622 1.0252,0 1.80591,-0.778346 1.80591,-1.88622 0,-1.0937 -0.780709,-1.87087 -1.80591,-1.87087m0.967323 3.11811l-0.377953 0 -0.491339 -0.981496 -0.505512 0 0 0.981496 -0.344882 0 0 -2.47441 0.961417 0c0.501969,0 0.811417,0.281102 0.811417,0.737008 0,0.392126 -0.216142,0.651969 -0.575197,0.72874l0.522047 1.00866zm-0.800787 -2.16614l-0.561024 0 0 0.884646 0.561024 0c0.325984,0 0.505512,-0.168898 0.505512,-0.455906 0,-0.288189 -0.166535,-0.42874 -0.505512,-0.42874z"/>
   <g>
    <path id="_206236208" class="fil1" d="M512.898 174.69l10.4717 0 0 -5.22165 -10.4717 0c-7.80945,0 -12.1961,3.78071 -12.1961,11.0669l0 0.233858 0 4.6748 0 0.233858c0,7.28622 4.38661,11.0669 12.1961,11.0669l10.4717 0 0 -5.22283 -10.4717 0c-4.19291,0 -6.30945,-1.90748 -6.30945,-6.07795l0 -4.6748c0,-4.17047 2.11654,-6.07913 6.30945,-6.07913z"/>
    <rect id="_206235800" class="fil1" x="488.929" y="169.465" width="5.88735" height="27.2766"/>
    <path id="_206235680" class="fil1" d="M546.265 186.574c4.30984,-0.936614 6.81024,-3.92598 6.81024,-8.29016 0,-5.25945 -3.73228,-8.81575 -9.6189,-8.81575l-14.198 0 0 5.21929 5.88661 0 1.7315 0 5.92559 0c2.96339,0 4.38661,1.2189 4.38661,3.51732 0,2.29961 -1.57795,3.59764 -4.30984,3.59764l-6.00236 0 -1.7315 0 -5.88661 0 0 14.9398 5.88661 0 0 -9.71929 4.85906 0 6.14528 9.71929 6.69449 0 -6.57874 -10.0913 0 -0.0767717 0 0z"/>
    <polygon id="_206236064" class="fil1" points="558.919,169.465 579.272,169.465 579.272,174.686 564.806,174.686 564.806,180.497 574.854,180.497 574.854,185.718 564.806,185.718 564.806,191.519 579.234,191.519 579.234,196.742 558.919,196.742 "/>
    <path id="_206235776" class="fil1" d="M428.229 169.467l5.88898 0 0 16.5213c0,4.20827 2.11417,6.11811 6.30827,6.11811 4.19409,0 6.31063,-1.90984 6.31063,-6.07913l0 -16.5602 5.88543 0 0 16.7941c0,7.28622 -4.38661,11.0669 -12.1961,11.0669 -7.81063,0 -12.1972,-3.78071 -12.1972,-11.0669l0 -16.7941 0 0z"/>
    <path id="_206235632" class="fil1" d="M483.043 196.743l-5.8878 0 0 -16.5224c0,-4.20827 -2.11535,-6.11693 -6.30945,-6.11693 -4.19409,0 -6.31063,1.90748 -6.31063,6.07913l0 16.5602 -5.88543 0 0 -16.7953c0,-7.28622 4.38661,-11.0657 12.1961,-11.0657 7.81063,0 12.1972,3.77953 12.1972,11.0657l0 16.7953 0 0z"/>
   </g>
  </g>
 </g>
</svg>
