<?xml version="1.0" encoding="UTF-8"?>
<!DOCTYPE svg PUBLIC "-//W3C//DTD SVG 1.1//EN" "http://www.w3.org/Graphics/SVG/1.1/DTD/svg11.dtd">
<!-- Creator: CorelDRAW -->
<svg xmlns="http://www.w3.org/2000/svg" xml:space="preserve" width="2835px" height="945px" style="shape-rendering:geometricPrecision; text-rendering:geometricPrecision; image-rendering:optimizeQuality; fill-rule:evenodd; clip-rule:evenodd"
viewBox="0 0 2835 945">
 <defs>
  <style type="text/css">
   <![CDATA[
    .fil1 {fill:white}
    .fil0 {fill:white;fill-rule:nonzero}
   ]]>
  </style>
 </defs>
 <g id="Layer_x0020_1">
  <metadata id="CorelCorpID_0Corel-Layer"/>
  <path class="fil0" d="M193.153 62.7197c31.1602,0 57.5824,10.5072 79.2654,31.4697 21.6842,21.0144 32.5517,46.5613 32.5517,76.7434 0,30.0782 -10.8675,55.6251 -32.5517,76.5875 -21.683,20.9625 -48.1052,31.4697 -79.2654,31.4697 -31.1094,0 -57.4288,-10.5072 -79.0091,-31.4697 -21.5803,-20.9625 -32.345,-46.5094 -32.345,-76.5875 0,-30.1821 10.7647,-55.729 32.345,-76.7434 21.5803,-20.9625 47.8997,-31.4697 79.0091,-31.4697zm0.617794 201.179c26.2155,0 48.3627,-9.01294 66.4418,-26.936 18.0779,-17.9763 27.0908,-39.9688 27.0908,-66.0295 0,-26.1647 -9.01294,-48.2092 -27.0908,-66.1843 -18.079,-17.9243 -40.2263,-26.9372 -66.4418,-26.9372 -26.3714,0 -48.6722,9.01294 -66.9568,26.9372 -18.2326,17.9751 -27.4003,40.0196 -27.4003,66.1843 0,26.0607 9.16768,48.0532 27.4003,66.0295 18.2846,17.9231 40.5854,26.936 66.9568,26.936z"/>
  <polygon class="fil0" points="548.317,65.4495 548.317,276.26 534.772,276.26 374.643,92.0265 374.643,276.26 358.366,276.26 358.366,65.4495 372.221,65.4495 532.042,249.683 532.042,65.4495 "/>
  <path class="fil0" d="M610.934 65.4495l43.9342 0c23.0226,0 40.4826,4.84194 52.3802,14.4739 11.8468,9.68271 17.7695,23.0226 17.7695,40.0184 0,20.2939 -10.095,35.9513 -30.3369,46.9216 32.4997,7.05561 48.775,24.8252 48.775,53.4102 0,17.0998 -6.38584,30.6971 -19.1079,40.8441 -12.7221,10.095 -29.9246,15.1424 -51.6596,15.1424l-61.7546 0 0 -210.811zm16.3272 13.5974l0 84.0566 22.6103 0c38.3197,0 57.5316,-14.0096 57.5316,-41.9769 0,-28.07 -19.3666,-42.0797 -58.0974,-42.0797l-22.0445 0zm0 97.7567l0 85.8592 43.6247 0c17.9751,0 31.6752,-3.86269 40.9976,-11.5881 9.3744,-7.77735 14.0616,-18.1298 14.0616,-31.1094 0,-28.7398 -20.705,-43.1617 -62.1668,-43.1617l-36.5172 0z"/>
  <path class="fil0" d="M891.057 62.7197c31.1602,0 57.5824,10.5072 79.2654,31.4697 21.6842,21.0144 32.5517,46.5613 32.5517,76.7434 0,30.0782 -10.8675,55.6251 -32.5517,76.5875 -21.683,20.9625 -48.1052,31.4697 -79.2654,31.4697 -31.1094,0 -57.4288,-10.5072 -79.0091,-31.4697 -21.5803,-20.9625 -32.345,-46.5094 -32.345,-76.5875 0,-30.1821 10.7647,-55.729 32.345,-76.7434 21.5803,-20.9625 47.8997,-31.4697 79.0091,-31.4697zm0.617794 201.179c26.2155,0 48.3627,-9.01294 66.4418,-26.936 18.0779,-17.9763 27.0908,-39.9688 27.0908,-66.0295 0,-26.1647 -9.01294,-48.2092 -27.0908,-66.1843 -18.079,-17.9243 -40.2263,-26.9372 -66.4418,-26.9372 -26.3714,0 -48.6722,9.01294 -66.9568,26.9372 -18.2326,17.9751 -27.4003,40.0196 -27.4003,66.1843 0,26.0607 9.16768,48.0532 27.4003,66.0295 18.2846,17.9231 40.5854,26.936 66.9568,26.936z"/>
  <path class="fil0" d="M1124.31 63.9564l97.3444 212.304 -17.0998 0 -33.3231 -72.8796 -102.908 0 -33.3231 72.8796 -17.0998 0 97.3444 -212.304 9.06491 0zm40.7401 125.827l-45.4273 -99.2498 -45.1178 99.2498 90.5452 0z"/>
  <path class="fil0" d="M1261.04 65.4495l53.9772 0c22.6623,0 39.9676,4.89392 51.9171,14.7314 12.0003,9.78548 17.9751,23.0734 17.9751,39.7609 0,24.3113 -13.3906,41.4619 -40.1223,51.2993 6.90204,3.29687 16.2753,14.0096 28.07,32.1395l47.6422 72.8796 -19.1599 0 -36.8255 -57.7891c-12.259,-19.3134 -21.787,-31.3657 -28.637,-36.1557 -6.85007,-4.78997 -16.8423,-7.15956 -30.0274,-7.15956l-28.5343 0 0 101.104 -16.2753 0 0 -210.811zm16.2753 13.5974l0 82.5115 35.0241 0c17.7695,0 31.4177,-3.55438 40.7921,-10.7647 9.42519,-7.21035 14.1124,-17.3573 14.1124,-30.5424 0,-12.9796 -4.78997,-23.1253 -14.3191,-30.3369 -9.57994,-7.26232 -23.2801,-10.8675 -41.2032,-10.8675l-34.4063 0z"/>
  <path class="fil0" d="M1451.91 65.4495l73.7549 0c37.3417,0 65.824,9.83745 85.4989,29.4616 19.6749,19.5721 29.5123,44.9631 29.5123,76.0217 0,30.4904 -9.73468,55.677 -29.2029,75.5055 -19.4694,19.8816 -47.1272,29.8218 -82.9237,29.8218l-76.6395 0 0 -210.811zm16.2753 13.5974l0 183.616 59.437 0c27.2975,0 50.0118,-8.34435 68.1416,-25.0827 18.1806,-16.7915 27.2455,-38.9895 27.2455,-66.6473 0,-27.0412 -8.96096,-49.1365 -26.8853,-66.2362 -17.8723,-17.0998 -41.0496,-25.6497 -69.5319,-25.6497l-58.4069 0z"/>
  <polygon class="fil0" points="1710.34,65.4495 1710.34,276.26 1694.07,276.26 1694.07,65.4495 "/>
  <polygon class="fil0" points="1962.03,65.4495 1962.03,276.26 1948.49,276.26 1788.36,92.0265 1788.36,276.26 1772.08,276.26 1772.08,65.4495 1785.94,65.4495 1945.76,249.683 1945.76,65.4495 "/>
  <path class="fil0" d="M2200.75 80.6959l0 18.4381c-24.9291,-14.2152 -49.805,-21.3227 -74.6822,-21.3227 -26.6289,0 -48.827,8.85819 -66.5445,26.5769 -17.7176,17.7176 -26.525,39.8648 -26.525,66.5445 0,26.6785 8.75542,48.8258 26.2155,66.4926 17.512,17.6148 41.3071,26.473 71.3865,26.473 21.735,0 40.9976,-4.32574 57.7879,-12.9784l0 -56.9138 -44.5001 0 0 -13.5454 60.982 0 0 80.7089c-24.8771,11.8456 -49.805,17.8203 -74.8889,17.8203 -32.6533,0 -59.9508,-10.3525 -81.8405,-31.1094 -21.8897,-20.7049 -32.8092,-46.5601 -32.8092,-77.5668 0,-30.7479 10.7128,-56.3976 32.1902,-76.845 21.4787,-20.4994 48.4667,-30.7491 80.9664,-30.7491 22.1473,0 46.2518,6.02674 72.2618,17.9763z"/>
  <path class="fil0" d="M2384.01 65.4495l73.7549 0c37.3417,0 65.824,9.83745 85.4989,29.4616 19.6749,19.5721 29.5123,44.9631 29.5123,76.0217 0,30.4904 -9.73468,55.677 -29.2029,75.5055 -19.4694,19.8816 -47.1271,29.8218 -82.9237,29.8218l-76.6395 0 0 -210.811zm16.2753 13.5974l0 183.616 59.437 0c27.2975,0 50.0118,-8.34435 68.1416,-25.0827 18.1806,-16.7915 27.2455,-38.9895 27.2455,-66.6473 0,-27.0412 -8.96096,-49.1365 -26.8853,-66.2362 -17.8723,-17.0998 -41.0496,-25.6497 -69.5319,-25.6497l-58.4069 0z"/>
  <polygon class="fil0" points="2741.75,65.4495 2741.75,79.0469 2643.07,79.0469 2643.07,163.413 2739.18,163.413 2739.18,177.113 2643.07,177.113 2643.07,262.663 2744.17,262.663 2744.17,276.26 2626.74,276.26 2626.74,65.4495 "/>
  <path class="fil0" d="M577.458 418.935l0 17.8203c-25.5469,-13.5974 -50.6296,-20.3955 -75.1464,-20.3955 -26.1647,0 -48.0544,8.91017 -65.6692,26.7305 -17.5628,17.8215 -26.3702,40.0196 -26.3702,66.6993 0,26.9372 8.85938,49.1365 26.525,66.5445 17.7176,17.4093 40.3291,26.1127 67.7813,26.1127 22.9198,0 47.8997,-7.21035 74.9905,-21.5803l0 16.8942c-24.9799,13.1851 -49.857,19.7777 -74.6822,19.7777 -32.0875,0 -58.8192,-10.3017 -80.1927,-30.8519 -21.4267,-20.6022 -32.0887,-46.1999 -32.0887,-76.897 0,-30.9027 10.9195,-56.7071 32.7572,-77.412 21.839,-20.7049 47.7969,-31.1094 77.979,-31.1094 23.7443,0 48.4667,5.92397 74.1164,17.6668z"/>
  <path class="fil0" d="M727.478 401.268c31.1602,0 57.5824,10.5072 79.2654,31.4697 21.6842,21.0144 32.5517,46.5613 32.5517,76.7434 0,30.0782 -10.8675,55.6251 -32.5517,76.5875 -21.683,20.9625 -48.1052,31.4697 -79.2654,31.4697 -31.1094,0 -57.4288,-10.5072 -79.0091,-31.4697 -21.5803,-20.9625 -32.345,-46.5094 -32.345,-76.5875 0,-30.1821 10.7647,-55.729 32.345,-76.7434 21.5803,-20.9625 47.8997,-31.4697 79.0091,-31.4697zm0.617794 201.179c26.2155,0 48.3627,-9.01294 66.4418,-26.936 18.0779,-17.9763 27.0908,-39.9688 27.0908,-66.0295 0,-26.1647 -9.01294,-48.2092 -27.0908,-66.1843 -18.079,-17.9243 -40.2263,-26.9372 -66.4418,-26.9372 -26.3714,0 -48.6722,9.01294 -66.9568,26.9372 -18.2326,17.9751 -27.4003,40.0196 -27.4003,66.1843 0,26.0607 9.16768,48.0532 27.4003,66.0295 18.2846,17.9231 40.5854,26.936 66.9568,26.936z"/>
  <polygon class="fil0" points="989.109,501.962 1069.35,403.998 1085.84,403.998 1085.84,614.809 1069.35,614.809 1069.35,427.845 989.109,526.374 908.658,427.845 908.658,614.809 892.382,614.809 892.382,403.998 908.658,403.998 "/>
  <polygon class="fil0" points="1263.31,403.998 1263.31,417.596 1164.62,417.596 1164.62,501.962 1260.73,501.962 1260.73,515.662 1164.62,515.662 1164.62,601.211 1265.73,601.211 1265.73,614.809 1148.3,614.809 1148.3,403.998 "/>
  <path class="fil0" d="M1313.25 403.998l53.9772 0c22.6623,0 39.9676,4.89392 51.9171,14.7314 12.0003,9.78548 17.9751,23.0734 17.9751,39.7609 0,24.3113 -13.3906,41.4619 -40.1223,51.2993 6.90204,3.29687 16.2753,14.0096 28.07,32.1395l47.6422 72.8796 -19.1599 0 -36.8255 -57.7891c-12.259,-19.3134 -21.787,-31.3657 -28.637,-36.1557 -6.85007,-4.78997 -16.8423,-7.15956 -30.0274,-7.15956l-28.5343 0 0 101.104 -16.2753 0 0 -210.811zm16.2753 13.5974l0 82.5115 35.0241 0c17.7695,0 31.4177,-3.55438 40.7921,-10.7647 9.42519,-7.21035 14.1124,-17.3573 14.1124,-30.5424 0,-12.9796 -4.78997,-23.1253 -14.3191,-30.3369 -9.57994,-7.26232 -23.2801,-10.8675 -41.2032,-10.8675l-34.4063 0z"/>
  <path class="fil0" d="M1679.6 418.935l0 17.8203c-25.5469,-13.5974 -50.6296,-20.3955 -75.1464,-20.3955 -26.1647,0 -48.0544,8.91017 -65.6692,26.7305 -17.5628,17.8215 -26.3702,40.0196 -26.3702,66.6993 0,26.9372 8.85938,49.1365 26.525,66.5445 17.7176,17.4093 40.3291,26.1127 67.7813,26.1127 22.9198,0 47.8997,-7.21035 74.9905,-21.5803l0 16.8942c-24.9799,13.1851 -49.857,19.7777 -74.6822,19.7777 -32.0875,0 -58.8192,-10.3017 -80.1927,-30.8519 -21.4267,-20.6022 -32.0887,-46.1999 -32.0887,-76.897 0,-30.9027 10.9195,-56.7071 32.7572,-77.412 21.839,-20.7049 47.7969,-31.1094 77.979,-31.1094 23.7443,0 48.4667,5.92397 74.1164,17.6668z"/>
  <polygon class="fil0" points="1742.98,403.998 1742.98,614.809 1726.71,614.809 1726.71,403.998 "/>
  <path class="fil0" d="M1888.16 402.505l97.3444 212.304 -17.0998 0 -33.3231 -72.8796 -102.908 0 -33.3231 72.8796 -17.0998 0 97.3445 -212.304 9.06491 0zm40.7401 125.827l-45.4273 -99.2498 -45.1178 99.2498 90.5452 0z"/>
  <polygon class="fil0" points="2214.54,403.998 2214.54,614.809 2200.99,614.809 2040.86,430.575 2040.86,614.809 2024.59,614.809 2024.59,403.998 2038.44,403.998 2198.26,588.232 2198.26,403.998 "/>
  <polygon class="fil0" points="2428.22,403.998 2428.22,417.596 2349.16,417.596 2349.16,614.809 2332.73,614.809 2332.73,417.596 2253.62,417.596 2253.62,403.998 "/>
  <polygon class="fil0" points="2583.03,403.998 2583.03,417.596 2484.34,417.596 2484.34,501.962 2580.45,501.962 2580.45,515.662 2484.34,515.662 2484.34,601.211 2585.45,601.211 2585.45,614.809 2468.02,614.809 2468.02,403.998 "/>
  <path class="fil0" d="M2732.07 414.557l0 17.9751c-18.2846,-10.7647 -34.0448,-16.1725 -47.2311,-16.1725 -12.6701,0 -23.2281,3.86269 -31.7272,11.5881 -8.49791,7.67458 -12.7729,17.2025 -12.7729,28.5863 0,8.13763 2.52433,15.5027 7.57181,21.9925 4.99551,6.54058 15.5027,12.8756 31.5205,18.9024 16.0177,6.02556 27.659,11.073 35.0241,15.0905 7.31312,4.01743 13.5454,9.83745 18.6956,17.512 5.15025,7.62261 7.67458,17.512 7.67458,29.7179 0,16.1725 -5.92279,29.8738 -17.7695,41.0496 -11.8976,11.125 -26.3702,16.7395 -43.47,16.7395 -17.512,0 -35.5391,-6.12951 -54.0292,-18.4393l0 -19.1599c20.4474,14.9889 38.1142,22.5075 53.1019,22.5075 12.5153,0 23.0226,-4.06822 31.6244,-12.1551 8.60068,-8.08566 12.9276,-18.0259 12.9276,-29.8207 0,-8.96214 -2.67789,-16.997 -8.03486,-24.2074 -5.30499,-7.21153 -16.1205,-13.9069 -32.4478,-20.1391 -16.2764,-6.23227 -27.9165,-11.2798 -34.9213,-15.0905 -7.00363,-3.81189 -12.9276,-9.27163 -17.8203,-16.3792 -4.84076,-7.10758 -7.31312,-16.2233 -7.31312,-27.4003 0,-15.4519 5.97358,-28.6878 17.8203,-39.6073 11.8975,-10.9195 26.1647,-16.3792 42.8522,-16.3792 16.378,0 32.6545,4.42969 48.7242,13.2891z"/>
  <g id="_231661208">
   <path id="_231662072" class="fil1" d="M2749.93 759.308c-5.45619,0.0956813 -9.93904,-4.347 -9.82918,-10.0631 -0.109856,-5.71607 4.37535,-10.0595 9.82918,-9.99456 5.41839,-0.0649688 9.92959,4.27967 9.83981,9.99456 0.089775,5.71607 -4.42142,10.1588 -9.83981,10.0631m0 -18.7819c-4.80178,0 -8.45303,3.62407 -8.45303,8.71999 -0.0945,5.10064 3.70913,8.88654 8.45303,8.78968 4.77579,0 8.41404,-3.6288 8.41404,-8.78968 0,-5.09827 -3.63825,-8.71999 -8.41404,-8.71999m4.50647 14.5353l-1.76243 0 -2.29163 -4.57616 -2.35541 0 0 4.57616 -1.60886 0 0 -11.5325 4.48166 0c2.3436,0 3.78118,1.30646 3.78118,3.43507 0,1.82739 -1.00643,3.03345 -2.68026,3.39491l2.43574 4.70256zm-3.73039 -10.095l-2.61529 0 0 4.11784 2.61529 0c1.51436,0 2.35187,-0.783169 2.35187,-2.12034 0,-1.34426 -0.772537,-1.99749 -2.35187,-1.99749z"/>
   <g>
    <path id="_231661400" class="fil1" d="M2419.81 763.688l48.8033 0 0 -24.3408 -48.8033 0c-36.4014,0 -56.8429,17.6207 -56.8429,51.5816l0 1.08675 0 21.7882 0 1.09266c0,33.9574 20.4415,51.5769 56.8429,51.5769l48.8033 0 0 -24.3385 -48.8033 0c-19.5414,0 -29.4084,-8.89363 -29.4084,-28.3287l0 -21.7882c0,-19.4363 9.86698,-28.3299 29.4084,-28.3299z"/>
    <rect id="_231661280" class="fil1" x="2308.09" y="739.335" width="27.4391" height="127.128"/>
    <path id="_231661160" class="fil1" d="M2575.32 819.074c20.0872,-4.36354 31.7414,-18.2964 31.7414,-38.6363 0,-24.5168 -17.3939,-41.091 -44.8296,-41.091l-66.1736 -0.00118125 0 24.3278 27.4369 0 8.06912 0 27.6141 0c13.8124,0 20.4463,5.68181 20.4463,16.3934 0,10.7198 -7.35328,16.7655 -20.086,16.7655l-27.9744 0 -8.06912 0 -27.4369 0 0 69.6335 27.4369 0 0 -45.3009 22.6446 0 28.6394 45.3009 31.2027 0 -30.6617 -47.0362 0 -0.355556 0 0z"/>
    <polygon id="_231661040" class="fil1" points="2634.29,739.333 2729.15,739.333 2729.15,763.669 2661.73,763.669 2661.73,790.751 2708.57,790.751 2708.57,815.085 2661.73,815.085 2661.73,842.124 2728.98,842.124 2728.98,866.461 2634.29,866.461 "/>
    <path id="_231660800" class="fil1" d="M2025.19 739.343l27.444 0 0 77.0021c0,19.6099 9.85753,28.5107 29.4037,28.5107 19.5438,0 29.4108,-8.89836 29.4108,-28.3323l0 -77.1793 27.4322 0 0 78.272c0,33.955 -20.4451,51.5769 -56.8429,51.5769 -36.4038,0 -56.8477,-17.6219 -56.8477,-51.5769l0 -78.2732 0 0z"/>
    <path id="_231661064" class="fil1" d="M2280.66 866.471l-27.4416 0 0 -77.0057c0,-19.6158 -9.85753,-28.5118 -29.4049,-28.5118 -19.5461,0 -29.4108,8.89363 -29.4108,28.3323l0 77.1852 -27.4334 0 0 -78.2803c0,-33.9574 20.4439,-51.5734 56.8453,-51.5734 36.4038,0 56.8477,17.616 56.8477,51.5734l-0.00118125 78.2803 -0.00118125 0z"/>
   </g>
  </g>
 </g>
</svg>
