<?xml version="1.0" encoding="UTF-8"?>
<!DOCTYPE svg PUBLIC "-//W3C//DTD SVG 1.1//EN" "http://www.w3.org/Graphics/SVG/1.1/DTD/svg11.dtd">
<!-- Creator: CorelDRAW -->
<svg xmlns="http://www.w3.org/2000/svg" xml:space="preserve" width="829px" height="56px" style="shape-rendering:geometricPrecision; text-rendering:geometricPrecision; image-rendering:optimizeQuality; fill-rule:evenodd; clip-rule:evenodd"
viewBox="0 0 829 56.3059">
 <defs>
  <style type="text/css">
   <![CDATA[
    .str0 {stroke:white;stroke-width:4.72365}
    .str2 {stroke:white;stroke-width:4.72365;stroke-linecap:round;stroke-linejoin:round}
    .str1 {stroke:white;stroke-width:20.0755;stroke-linecap:round;stroke-linejoin:round}
    .fil2 {fill:none}
    .fil3 {fill:none;fill-rule:nonzero}
    .fil0 {fill:#747474}
    .fil1 {fill:white;fill-rule:nonzero}
   ]]>
  </style>
 </defs>
 <g id="Layer_x0020_1">
  <metadata id="CorelCorpID_0Corel-Layer"/>
  <rect class="fil0" x="-0.00118429" y="0.00224312" width="829.002" height="56.3015"/>
  <path class="fil1" d="M735.575 18.5545l0 -6.03918 22.2507 0 0 4.71892c-1.83396,1.81034 -3.6998,4.40362 -5.60461,7.78575 -1.89654,3.37623 -3.34316,6.9721 -4.33867,10.7746 -0.996689,3.80962 -1.48677,7.20828 -1.47024,10.2043l-6.27655 0c0.111006,-4.6953 1.07463,-9.478 2.90859,-14.354 1.82569,-4.88543 4.269,-9.24063 7.32756,-13.0904l-14.7968 0z"/>
  <path class="fil1" d="M762.046 37.2648l6.48202 -0.664853c0.18186,1.46315 0.734527,2.62517 1.64383,3.47897 0.909302,0.860885 1.96031,1.28837 3.14595,1.28837 1.35923,0 2.51416,-0.553848 3.45417,-1.6521 0.941187,-1.10651 1.41473,-2.77514 1.41473,-4.99644 0,-2.0784 -0.46646,-3.64311 -1.40647,-4.68704 -0.93292,-1.04275 -2.15044,-1.56471 -3.64429,-1.56471 -1.86584,0 -3.54155,0.830181 -5.02714,2.48228l-5.27986 -0.767593 3.33489 -17.6664 17.2082 0 0 6.08642 -12.2756 0 -1.01913 5.77112c1.4537,-0.727442 2.9322,-1.09116 4.44968,-1.09116 2.88497,0 5.33536,1.05101 7.33582,3.14595 2.00755,2.10202 3.01132,4.82993 3.01132,8.18136 0,2.78931 -0.806563,5.28812 -2.42677,7.47753 -2.21303,2.99597 -5.27159,4.48983 -9.19222,4.48983 -3.13886,0 -5.69199,-0.838447 -7.66766,-2.52243 -1.97685,-1.6828 -3.16248,-3.94425 -3.54155,-6.78906z"/>
  <path class="fil1" d="M788.375 20.4357c0,-3.04321 0.663672,-5.29521 1.99928,-6.76544 1.33679,-1.46315 3.14595,-2.19768 5.43101,-2.19768 2.363,0 4.21349,0.727442 5.5491,2.18941 1.33561,1.4537 1.99928,3.71515 1.99928,6.77371 0,3.03612 -0.663672,5.29639 -1.99928,6.75836 -1.33561,1.47024 -3.14595,2.19768 -5.43101,2.19768 -2.363,0 -4.21231,-0.727442 -5.5491,-2.18114 -1.33561,-1.46315 -1.99928,-3.72341 -1.99928,-6.77489zm5.06729 -0.0472365c0,2.20594 0.259801,3.69153 0.766412,4.44259 0.387339,0.560933 0.916387,0.837266 1.59659,0.837266 0.695557,0 1.23287,-0.276333 1.62021,-0.837266 0.498345,-0.75106 0.742793,-2.23665 0.742793,-4.44259 0,-2.21303 -0.244449,-3.68326 -0.742793,-4.42606 -0.387339,-0.569199 -0.924654,-0.853799 -1.62021,-0.853799 -0.680205,0 -1.20925,0.276333 -1.59659,0.830181 -0.506611,0.758145 -0.766412,2.23665 -0.766412,4.44968zm7.31929 26.9071l-4.81458 0 18.0857 -35.823 4.67995 0 -17.951 35.823zm10.5125 -8.91706c0,-3.04321 0.671939,-5.29521 2.00755,-6.75718 1.33561,-1.47024 3.16248,-2.20594 5.47825,-2.20594 2.32403,0 4.15799,0.735708 5.4936,2.20594 1.33561,1.46197 2.00755,3.71397 2.00755,6.75718 0,3.05974 -0.671939,5.32001 -2.00755,6.79024 -1.33561,1.46197 -3.14595,2.19768 -5.43101,2.19768 -2.363,0 -4.20523,-0.735708 -5.54084,-2.19768 -1.33561,-1.47024 -2.00755,-3.7305 -2.00755,-6.79024zm5.07438 -0.0236182c0,2.20594 0.252715,3.68444 0.759326,4.42724 0.387339,0.569199 0.924654,0.853799 1.60486,0.853799 0.695557,0 1.22461,-0.277514 1.59659,-0.830181 0.50543,-0.759326 0.758145,-2.24491 0.758145,-4.45086 0,-2.20476 -0.244449,-3.69035 -0.734527,-4.44141 -0.387339,-0.562114 -0.924654,-0.838447 -1.62021,-0.838447 -0.695557,0 -1.23405,0.276333 -1.60486,0.838447 -0.506611,0.75106 -0.759326,2.23665 -0.759326,4.44141z"/>
  <line class="fil2" x1="25.8383" y1="28.7245" x2="726.002" y2= "28.7245" />
  <path class="fil3 str0" d="M25.8383 46.4382c-9.78267,0 -17.7137,-7.931 -17.7137,-17.7137 0,-9.78267 7.931,-17.7137 17.7137,-17.7137l670.169 0c9.78267,0 17.7137,7.931 17.7137,17.7137 0,9.78267 -7.931,17.7137 -17.7137,17.7137l-670.169 0z"/>
  <line class="fil2 str1" x1="26.1041" y1="28.8013" x2="502.278" y2= "28.8013" />
  <path class="fil2 str2" d="M25.7096 4.67051l0 6.34031m0 35.4274l0 6.32614"/>
  <path class="fil2 str2" d="M360.446 4.67051l0 6.34031m0 35.4274l0 6.32614"/>
  <path class="fil2 str2" d="M697.175 4.67051l0 6.37928m0 35.3494l0 6.36511"/>
 </g>
</svg>
