<?xml version="1.0" encoding="UTF-8"?>
<!DOCTYPE svg PUBLIC "-//W3C//DTD SVG 1.1//EN" "http://www.w3.org/Graphics/SVG/1.1/DTD/svg11.dtd">
<!-- Creator: CorelDRAW -->
<svg xmlns="http://www.w3.org/2000/svg" xml:space="preserve" width="829px" height="56px" style="shape-rendering:geometricPrecision; text-rendering:geometricPrecision; image-rendering:optimizeQuality; fill-rule:evenodd; clip-rule:evenodd"
viewBox="0 0 829 56.3059">
 <defs>
  <style type="text/css">
   <![CDATA[
    .str0 {stroke:white;stroke-width:4.72365}
    .str2 {stroke:white;stroke-width:4.72365;stroke-linecap:round;stroke-linejoin:round}
    .str1 {stroke:white;stroke-width:20.0755;stroke-linecap:round;stroke-linejoin:round}
    .fil2 {fill:none}
    .fil3 {fill:none;fill-rule:nonzero}
    .fil0 {fill:#747474}
    .fil1 {fill:white;fill-rule:nonzero}
   ]]>
  </style>
 </defs>
 <g id="Layer_x0020_1">
  <metadata id="CorelCorpID_0Corel-Layer"/>
  <rect class="fil0" x="-0.00118429" y="0.00224312" width="829.002" height="56.3015"/>
  <path class="fil1" d="M735.648 38.1494l6.29898 -0.695557c0.158242,1.28129 0.562114,2.22956 1.20925,2.846 0.648321,0.616436 1.50212,0.924654 2.56966,0.924654 1.34388,0 2.48228,-0.616436 3.42228,-1.84931 0.948272,-1.23287 1.54936,-3.79427 1.81034,-7.69128 -1.63674,1.90481 -3.68326,2.85308 -6.13366,2.85308 -2.6724,0 -4.9799,-1.03448 -6.9166,-3.09045 -1.9367,-2.06305 -2.90859,-4.74254 -2.90859,-8.04673 0,-3.4459 1.02739,-6.22104 3.07509,-8.33133 2.03825,-2.10202 4.64689,-3.1613 7.80937,-3.1613 3.4459,0 6.26828,1.33561 8.48131,3.99975 2.20476,2.66414 3.31128,7.04296 3.31128,13.1365 0,6.21396 -1.15375,10.6873 -3.45417,13.4376 -2.29924,2.74326 -5.29521,4.11902 -8.98674,4.11902 -2.65587,0 -4.79804,-0.703823 -6.43479,-2.11856 -1.63556,-1.41473 -2.68657,-3.52502 -3.15303,-6.33205zm14.7331 -14.2194c0,-2.1032 -0.481812,-3.73168 -1.44662,-4.88543 -0.963624,-1.16202 -2.08667,-1.7383 -3.35143,-1.7383 -1.20099,0 -2.20476,0.473546 -2.99479,1.42182 -0.799477,0.949453 -1.1939,2.50589 -1.1939,4.67169 0,2.18941 0.434575,3.80254 1.29664,4.82166 0.860885,1.02739 1.94378,1.54227 3.24042,1.54227 1.24822,0 2.3075,-0.490078 3.1613,-1.4785 0.862066,-0.988423 1.28837,-2.44213 1.28837,-4.3552z"/>
  <path class="fil1" d="M761.984 37.2648l6.48202 -0.664853c0.18186,1.46315 0.734527,2.62517 1.64383,3.47897 0.909302,0.860885 1.96031,1.28837 3.14595,1.28837 1.35923,0 2.51416,-0.553848 3.45417,-1.6521 0.941187,-1.10651 1.41473,-2.77514 1.41473,-4.99644 0,-2.0784 -0.46646,-3.64311 -1.40647,-4.68704 -0.93292,-1.04275 -2.15044,-1.56471 -3.64429,-1.56471 -1.86584,0 -3.54155,0.830181 -5.02714,2.48228l-5.27986 -0.767593 3.33489 -17.6664 17.2082 0 0 6.08642 -12.2756 0 -1.01913 5.77112c1.4537,-0.727442 2.9322,-1.09116 4.44968,-1.09116 2.88497,0 5.33536,1.05101 7.33582,3.14595 2.00755,2.10202 3.01132,4.82993 3.01132,8.18136 0,2.78931 -0.806563,5.28812 -2.42677,7.47753 -2.21303,2.99597 -5.27159,4.48983 -9.19222,4.48983 -3.13886,0 -5.69199,-0.838447 -7.66766,-2.52243 -1.97685,-1.6828 -3.16248,-3.94425 -3.54155,-6.78906z"/>
  <path class="fil1" d="M788.314 20.4357c0,-3.04321 0.663672,-5.29521 1.99928,-6.76544 1.33679,-1.46315 3.14595,-2.19768 5.43101,-2.19768 2.363,0 4.21349,0.727442 5.5491,2.18941 1.33561,1.4537 1.99928,3.71515 1.99928,6.77371 0,3.03612 -0.663672,5.29639 -1.99928,6.75836 -1.33561,1.47024 -3.14595,2.19768 -5.43101,2.19768 -2.363,0 -4.21231,-0.727442 -5.5491,-2.18114 -1.33561,-1.46315 -1.99928,-3.72341 -1.99928,-6.77489zm5.06729 -0.0472365c0,2.20594 0.259801,3.69153 0.766412,4.44259 0.387339,0.560933 0.916387,0.837266 1.59659,0.837266 0.695557,0 1.23287,-0.276333 1.62021,-0.837266 0.498345,-0.75106 0.742793,-2.23665 0.742793,-4.44259 0,-2.21303 -0.244449,-3.68326 -0.742793,-4.42606 -0.387339,-0.569199 -0.924654,-0.853799 -1.62021,-0.853799 -0.680205,0 -1.20925,0.276333 -1.59659,0.830181 -0.506611,0.758145 -0.766412,2.23665 -0.766412,4.44968zm7.31929 26.9071l-4.81458 0 18.0857 -35.823 4.67995 0 -17.951 35.823zm10.5125 -8.91706c0,-3.04321 0.671939,-5.29521 2.00755,-6.75718 1.33561,-1.47024 3.16248,-2.20594 5.47825,-2.20594 2.32403,0 4.15799,0.735708 5.4936,2.20594 1.33561,1.46197 2.00755,3.71397 2.00755,6.75718 0,3.05974 -0.671939,5.32001 -2.00755,6.79024 -1.33561,1.46197 -3.14595,2.19768 -5.43101,2.19768 -2.363,0 -4.20523,-0.735708 -5.54084,-2.19768 -1.33561,-1.47024 -2.00755,-3.7305 -2.00755,-6.79024zm5.07438 -0.0236182c0,2.20594 0.252715,3.68444 0.759326,4.42724 0.387339,0.569199 0.924654,0.853799 1.60486,0.853799 0.695557,0 1.22461,-0.277514 1.59659,-0.830181 0.50543,-0.759326 0.758145,-2.24491 0.758145,-4.45086 0,-2.20476 -0.244449,-3.69035 -0.734527,-4.44141 -0.387339,-0.562114 -0.924654,-0.838447 -1.62021,-0.838447 -0.695557,0 -1.23405,0.276333 -1.60486,0.838447 -0.506611,0.75106 -0.759326,2.23665 -0.759326,4.44141z"/>
  <line class="fil2" x1="25.8383" y1="28.7245" x2="726.002" y2= "28.7245" />
  <path class="fil3 str0" d="M25.8383 46.4382c-9.78267,0 -17.7137,-7.931 -17.7137,-17.7137 0,-9.78267 7.931,-17.7137 17.7137,-17.7137l670.169 0c9.78267,0 17.7137,7.931 17.7137,17.7137 0,9.78267 -7.931,17.7137 -17.7137,17.7137l-670.169 0z"/>
  <line class="fil2 str1" x1="26.1041" y1="28.8013" x2="664.256" y2= "28.8013" />
  <path class="fil2 str2" d="M25.7096 4.67051l0 6.34031m0 35.4274l0 6.32614"/>
  <path class="fil2 str2" d="M360.446 4.67051l0 6.34031m0 35.4274l0 6.32614"/>
  <path class="fil2 str2" d="M697.175 4.67051l0 6.37928m0 35.3494l0 6.36511"/>
 </g>
</svg>
