<?xml version="1.0" encoding="UTF-8"?>
<!DOCTYPE svg PUBLIC "-//W3C//DTD SVG 1.1//EN" "http://www.w3.org/Graphics/SVG/1.1/DTD/svg11.dtd">
<!-- Creator: CorelDRAW -->
<svg xmlns="http://www.w3.org/2000/svg" xml:space="preserve" width="829px" height="56px" style="shape-rendering:geometricPrecision; text-rendering:geometricPrecision; image-rendering:optimizeQuality; fill-rule:evenodd; clip-rule:evenodd"
viewBox="0 0 829 56.3059">
 <defs>
  <style type="text/css">
   <![CDATA[
    .str0 {stroke:white;stroke-width:4.72365}
    .str2 {stroke:white;stroke-width:4.72365;stroke-linecap:round;stroke-linejoin:round}
    .str1 {stroke:white;stroke-width:20.0755;stroke-linecap:round;stroke-linejoin:round}
    .fil2 {fill:none}
    .fil3 {fill:none;fill-rule:nonzero}
    .fil0 {fill:#747474}
    .fil1 {fill:white;fill-rule:nonzero}
   ]]>
  </style>
 </defs>
 <g id="Layer_x0020_1">
  <metadata id="CorelCorpID_0Corel-Layer"/>
  <rect class="fil0" x="-0.00118429" y="0.00224312" width="829.002" height="56.3015"/>
  <path class="fil1" d="M752.159 45.9989l-6.50446 0 0 -24.5275c-2.37954,2.22956 -5.1783,3.87339 -8.40337,4.93267l0 -5.90456c1.69225,-0.553848 3.54155,-1.60486 5.53375,-3.15422 1.9922,-1.55762 3.35969,-3.36678 4.09422,-5.4381l5.27986 0 0 34.0917z"/>
  <path class="fil1" d="M761.661 36.9873l6.2919 -0.758145c0.205479,1.60486 0.742793,2.82946 1.62848,3.675 0.877417,0.853799 1.94378,1.28129 3.19319,1.28129 1.34388,0 2.47401,-0.513697 3.3904,-1.534 0.917568,-1.01913 1.37576,-2.38662 1.37576,-4.11784 0,-1.63674 -0.434575,-2.9322 -1.32026,-3.88874 -0.877417,-0.964805 -1.95205,-1.43953 -3.2168,-1.43953 -0.830181,0 -1.82569,0.158242 -2.98771,0.482993l0.719175 -5.29639c1.7631,0.040151 3.1058,-0.340103 4.03163,-1.14667 0.924654,-0.813648 1.39111,-1.88828 1.39111,-3.23216 0,-1.14667 -0.340103,-2.05479 -1.02031,-2.73499 -0.679024,-0.680205 -1.58833,-1.02031 -2.71137,-1.02031 -1.11478,0 -2.06305,0.387339 -2.84482,1.16202 -0.791211,0.767593 -1.27302,1.89773 -1.43953,3.37623l-5.99903 -1.01204c0.419224,-2.05597 1.04393,-3.6998 1.88946,-4.9244 0.837266,-1.22579 2.01582,-2.18941 3.51675,-2.89323 1.51039,-0.703823 3.19437,-1.05928 5.05903,-1.05928 3.20145,0 5.76285,1.01913 7.69128,3.05856 1.58833,1.66863 2.38662,3.54982 2.38662,5.65184 0,2.98062 -1.6273,5.35898 -4.88425,7.13034 1.94378,0.418043 3.49314,1.35096 4.66342,2.80585 1.16202,1.44662 1.74657,3.20145 1.74657,5.25624 0,2.98062 -1.08998,5.51722 -3.26404,7.62042 -2.17406,2.09376 -4.88543,3.14595 -8.12585,3.14595 -3.07509,0 -5.61996,-0.885684 -7.64404,-2.64878 -2.0229,-1.77019 -3.19319,-4.07887 -3.51675,-6.94022z"/>
  <path class="fil1" d="M788.314 20.4357c0,-3.04321 0.663672,-5.29521 1.99928,-6.76544 1.33679,-1.46315 3.14595,-2.19768 5.43101,-2.19768 2.363,0 4.21349,0.727442 5.5491,2.18941 1.33561,1.4537 1.99928,3.71515 1.99928,6.77371 0,3.03612 -0.663672,5.29639 -1.99928,6.75836 -1.33561,1.47024 -3.14595,2.19768 -5.43101,2.19768 -2.363,0 -4.21231,-0.727442 -5.5491,-2.18114 -1.33561,-1.46315 -1.99928,-3.72341 -1.99928,-6.77489zm5.06729 -0.0472365c0,2.20594 0.259801,3.69153 0.766412,4.44259 0.387339,0.560933 0.916387,0.837266 1.59659,0.837266 0.695557,0 1.23287,-0.276333 1.62021,-0.837266 0.498345,-0.75106 0.742793,-2.23665 0.742793,-4.44259 0,-2.21303 -0.244449,-3.68326 -0.742793,-4.42606 -0.387339,-0.569199 -0.924654,-0.853799 -1.62021,-0.853799 -0.680205,0 -1.20925,0.276333 -1.59659,0.830181 -0.506611,0.758145 -0.766412,2.23665 -0.766412,4.44968zm7.31929 26.9071l-4.81458 0 18.0857 -35.823 4.67995 0 -17.951 35.823zm10.5125 -8.91706c0,-3.04321 0.671939,-5.29521 2.00755,-6.75718 1.33561,-1.47024 3.16248,-2.20594 5.47825,-2.20594 2.32403,0 4.15799,0.735708 5.4936,2.20594 1.33561,1.46197 2.00755,3.71397 2.00755,6.75718 0,3.05974 -0.671939,5.32001 -2.00755,6.79024 -1.33561,1.46197 -3.14595,2.19768 -5.43101,2.19768 -2.363,0 -4.20523,-0.735708 -5.54084,-2.19768 -1.33561,-1.47024 -2.00755,-3.7305 -2.00755,-6.79024zm5.07438 -0.0236182c0,2.20594 0.252715,3.68444 0.759326,4.42724 0.387339,0.569199 0.924654,0.853799 1.60486,0.853799 0.695557,0 1.22461,-0.277514 1.59659,-0.830181 0.50543,-0.759326 0.758145,-2.24491 0.758145,-4.45086 0,-2.20476 -0.244449,-3.69035 -0.734527,-4.44141 -0.387339,-0.562114 -0.924654,-0.838447 -1.62021,-0.838447 -0.695557,0 -1.23405,0.276333 -1.60486,0.838447 -0.506611,0.75106 -0.759326,2.23665 -0.759326,4.44141z"/>
  <line class="fil2" x1="25.8383" y1="28.7245" x2="726.002" y2= "28.7245" />
  <path class="fil3 str0" d="M25.8383 46.4382c-9.78267,0 -17.7137,-7.931 -17.7137,-17.7137 0,-9.78267 7.931,-17.7137 17.7137,-17.7137l670.169 0c9.78267,0 17.7137,7.931 17.7137,17.7137 0,9.78267 -7.931,17.7137 -17.7137,17.7137l-670.169 0z"/>
  <line class="fil2 str1" x1="26.1041" y1="28.8013" x2="105.936" y2= "28.8013" />
  <path class="fil2 str2" d="M25.7096 4.67051l0 6.34031m0 35.4274l0 6.32614"/>
  <path class="fil2 str2" d="M360.446 4.67051l0 6.34031m0 35.4274l0 6.32614"/>
  <path class="fil2 str2" d="M697.175 4.67051l0 6.37928m0 35.3494l0 6.36511"/>
 </g>
</svg>
