<?xml version="1.0" encoding="UTF-8"?>
<!DOCTYPE svg PUBLIC "-//W3C//DTD SVG 1.1//EN" "http://www.w3.org/Graphics/SVG/1.1/DTD/svg11.dtd">
<!-- Creator: CorelDRAW -->
<svg xmlns="http://www.w3.org/2000/svg" xml:space="preserve" width="829px" height="56px" style="shape-rendering:geometricPrecision; text-rendering:geometricPrecision; image-rendering:optimizeQuality; fill-rule:evenodd; clip-rule:evenodd"
viewBox="0 0 829 56.3059">
 <defs>
  <style type="text/css">
   <![CDATA[
    .str0 {stroke:white;stroke-width:4.72365}
    .str2 {stroke:white;stroke-width:4.72365;stroke-linecap:round;stroke-linejoin:round}
    .str1 {stroke:white;stroke-width:20.0755;stroke-linecap:round;stroke-linejoin:round}
    .fil2 {fill:none}
    .fil3 {fill:none;fill-rule:nonzero}
    .fil0 {fill:#747474}
    .fil1 {fill:white;fill-rule:nonzero}
   ]]>
  </style>
 </defs>
 <g id="Layer_x0020_1">
  <metadata id="CorelCorpID_0Corel-Layer"/>
  <rect class="fil0" x="-0.00118429" y="0.00224312" width="829.002" height="56.3015"/>
  <path class="fil1" d="M752.159 45.9989l-6.50446 0 0 -24.5275c-2.37954,2.22956 -5.1783,3.87339 -8.40337,4.93267l0 -5.90456c1.69225,-0.553848 3.54155,-1.60486 5.53375,-3.15422 1.9922,-1.55762 3.35969,-3.36678 4.09422,-5.4381l5.27986 0 0 34.0917z"/>
  <path class="fil1" d="M772.885 11.9071c3.29592,0 5.86441,1.17737 7.71372,3.52502 2.20594,2.77514 3.31246,7.38306 3.31246,13.8249 0,6.41825 -1.11478,11.0344 -3.33608,13.8486 -1.83396,2.31577 -4.39417,3.4707 -7.6901,3.4707 -3.29711,0 -5.96006,-1.26476 -7.98414,-3.8108 -2.0229,-2.5366 -3.03494,-7.06658 -3.03494,-13.5793 0,-6.39464 1.11478,-10.9955 3.33489,-13.8013 1.83396,-2.31577 4.39535,-3.47778 7.68419,-3.47778zm0 5.39913c-0.782944,0 -1.48677,0.252715 -2.1032,0.749879 -0.616436,0.506611 -1.09825,1.40765 -1.43835,2.70429 -0.442842,1.6828 -0.671939,4.51344 -0.671939,8.49666 0,3.9844 0.205479,6.71939 0.601084,8.20497 0.402691,1.49385 0.908121,2.48228 1.51747,2.97944 0.616436,0.490078 1.31199,0.743974 2.09494,0.743974 0.79003,0 1.49385,-0.253896 2.11029,-0.759326 0.616436,-0.498345 1.09825,-1.39938 1.43835,-2.69484 0.442842,-1.66863 0.671939,-4.48983 0.671939,-8.47422 0,-3.98322 -0.205479,-6.71821 -0.601084,-8.21206 -0.402691,-1.48677 -0.909302,-2.48228 -1.51747,-2.98889 -0.616436,-0.497164 -1.31199,-0.749879 -2.10202,-0.749879z"/>
  <path class="fil1" d="M788.314 20.4357c0,-3.04321 0.663672,-5.29521 1.99928,-6.76544 1.33679,-1.46315 3.14595,-2.19768 5.43101,-2.19768 2.363,0 4.21349,0.727442 5.5491,2.18941 1.33561,1.4537 1.99928,3.71515 1.99928,6.77371 0,3.03612 -0.663672,5.29639 -1.99928,6.75836 -1.33561,1.47024 -3.14595,2.19768 -5.43101,2.19768 -2.363,0 -4.21231,-0.727442 -5.5491,-2.18114 -1.33561,-1.46315 -1.99928,-3.72341 -1.99928,-6.77489zm5.06729 -0.0472365c0,2.20594 0.259801,3.69153 0.766412,4.44259 0.387339,0.560933 0.916387,0.837266 1.59659,0.837266 0.695557,0 1.23287,-0.276333 1.62021,-0.837266 0.498345,-0.75106 0.742793,-2.23665 0.742793,-4.44259 0,-2.21303 -0.244449,-3.68326 -0.742793,-4.42606 -0.387339,-0.569199 -0.924654,-0.853799 -1.62021,-0.853799 -0.680205,0 -1.20925,0.276333 -1.59659,0.830181 -0.506611,0.758145 -0.766412,2.23665 -0.766412,4.44968zm7.31929 26.9071l-4.81458 0 18.0857 -35.823 4.67995 0 -17.951 35.823zm10.5125 -8.91706c0,-3.04321 0.671939,-5.29521 2.00755,-6.75718 1.33561,-1.47024 3.16248,-2.20594 5.47825,-2.20594 2.32403,0 4.15799,0.735708 5.4936,2.20594 1.33561,1.46197 2.00755,3.71397 2.00755,6.75718 0,3.05974 -0.671939,5.32001 -2.00755,6.79024 -1.33561,1.46197 -3.14595,2.19768 -5.43101,2.19768 -2.363,0 -4.20523,-0.735708 -5.54084,-2.19768 -1.33561,-1.47024 -2.00755,-3.7305 -2.00755,-6.79024zm5.07438 -0.0236182c0,2.20594 0.252715,3.68444 0.759326,4.42724 0.387339,0.569199 0.924654,0.853799 1.60486,0.853799 0.695557,0 1.22461,-0.277514 1.59659,-0.830181 0.50543,-0.759326 0.758145,-2.24491 0.758145,-4.45086 0,-2.20476 -0.244449,-3.69035 -0.734527,-4.44141 -0.387339,-0.562114 -0.924654,-0.838447 -1.62021,-0.838447 -0.695557,0 -1.23405,0.276333 -1.60486,0.838447 -0.506611,0.75106 -0.759326,2.23665 -0.759326,4.44141z"/>
  <line class="fil2" x1="25.8383" y1="28.7245" x2="726.002" y2= "28.7245" />
  <path class="fil3 str0" d="M25.8383 46.4382c-9.78267,0 -17.7137,-7.931 -17.7137,-17.7137 0,-9.78267 7.931,-17.7137 17.7137,-17.7137l670.169 0c9.78267,0 17.7137,7.931 17.7137,17.7137 0,9.78267 -7.931,17.7137 -17.7137,17.7137l-670.169 0z"/>
  <line class="fil2 str1" x1="26.1041" y1="28.8013" x2="88.7361" y2= "28.8013" />
  <path class="fil2 str2" d="M25.7096 4.67051l0 6.34031m0 35.4274l0 6.32614"/>
  <path class="fil2 str2" d="M360.446 4.67051l0 6.34031m0 35.4274l0 6.32614"/>
  <path class="fil2 str2" d="M697.175 4.67051l0 6.37928m0 35.3494l0 6.36511"/>
 </g>
</svg>
